<?xml version="1.0" encoding="utf-8" ?>
<svg baseProfile="full" height="18cm" version="1.1" viewBox="0,0,180000,180000" width="18cm" xmlns="http://www.w3.org/2000/svg" xmlns:ev="http://www.w3.org/2001/xml-events" xmlns:xlink="http://www.w3.org/1999/xlink"><defs /><g><rect fill="white" height="180000" width="180000" x="0" y="0" /></g><g stroke="black" stroke-width="100.0"><circle cx="90000.0" cy="90000.0" fill="none" r="0.0" /><circle cx="90000.0" cy="90000.0" fill="none" r="5196.152422706631" /><circle cx="90000.0" cy="90000.0" fill="none" r="7348.469228349533" /><circle cx="90000.0" cy="90000.0" fill="none" r="9000.0" /><circle cx="90000.0" cy="90000.0" fill="none" r="10392.304845413262" /><circle cx="90000.0" cy="90000.0" fill="none" r="11618.950038622248" /><circle cx="90000.0" cy="90000.0" fill="none" r="12727.922061357855" /><circle cx="90000.0" cy="90000.0" fill="none" r="13747.727084867518" /><circle cx="90000.0" cy="90000.0" fill="none" r="14696.938456699067" /><circle cx="90000.0" cy="90000.0" fill="none" r="15588.457268119895" /><circle cx="90000.0" cy="90000.0" fill="none" r="16431.676725154983" /><circle cx="90000.0" cy="90000.0" fill="none" r="17233.687939614083" /><circle cx="90000.0" cy="90000.0" fill="none" r="18000.0" /><circle cx="90000.0" cy="90000.0" fill="none" r="18734.993995195193" /><circle cx="90000.0" cy="90000.0" fill="none" r="19442.222095223577" /><circle cx="90000.0" cy="90000.0" fill="none" r="20124.611797498106" /><circle cx="90000.0" cy="90000.0" fill="none" r="20784.609690826524" /><circle cx="90000.0" cy="90000.0" fill="none" r="21424.28528562855" /><circle cx="90000.0" cy="90000.0" fill="none" r="22045.407685048605" /><circle cx="90000.0" cy="90000.0" fill="none" r="22649.50330581225" /><circle cx="90000.0" cy="90000.0" fill="none" r="23237.900077244496" /><circle cx="90000.0" cy="90000.0" fill="none" r="23811.761799581316" /><circle cx="90000.0" cy="90000.0" fill="none" r="24372.11521390788" /><circle cx="90000.0" cy="90000.0" fill="none" r="24919.87158875422" /><circle cx="90000.0" cy="90000.0" fill="none" r="25455.84412271571" /><circle cx="90000.0" cy="90000.0" fill="none" r="25980.762113533157" /><circle cx="90000.0" cy="90000.0" fill="none" r="26495.28259898354" /><circle cx="90000.0" cy="90000.0" fill="none" r="26999.999999999996" /><circle cx="90000.0" cy="90000.0" fill="none" r="27495.454169735036" /><circle cx="90000.0" cy="90000.0" fill="none" r="27982.137159266444" /><circle cx="90000.0" cy="90000.0" fill="none" r="28460.498941515412" /><circle cx="90000.0" cy="90000.0" fill="none" r="28930.952282978862" /><circle cx="90000.0" cy="90000.0" fill="none" r="29393.876913398133" /><circle cx="90000.0" cy="90000.0" fill="none" r="29849.623113198595" /><circle cx="90000.0" cy="90000.0" fill="none" r="30298.51481508623" /><circle cx="90000.0" cy="90000.0" fill="none" r="30740.852297878795" /><circle cx="90000.0" cy="90000.0" fill="none" r="31176.91453623979" /><circle cx="90000.0" cy="90000.0" fill="none" r="31606.961258558214" /><circle cx="90000.0" cy="90000.0" fill="none" r="32031.23475609393" /><circle cx="90000.0" cy="90000.0" fill="none" r="32449.9614791759" /><circle cx="90000.0" cy="90000.0" fill="none" r="32863.353450309965" /><circle cx="90000.0" cy="90000.0" fill="none" r="33271.60951922825" /><circle cx="90000.0" cy="90000.0" fill="none" r="33674.91648096547" /><circle cx="90000.0" cy="90000.0" fill="none" r="34073.450074801636" /><circle cx="90000.0" cy="90000.0" fill="none" r="34467.375879228166" /><circle cx="90000.0" cy="90000.0" fill="none" r="34856.85011586676" /><circle cx="90000.0" cy="90000.0" fill="none" r="35242.02037341219" /><circle cx="90000.0" cy="90000.0" fill="none" r="35623.02626111375" /><circle cx="90000.0" cy="90000.0" fill="none" r="36000.0" /><circle cx="90000.0" cy="90000.0" fill="none" r="36373.06695894642" /><circle cx="90000.0" cy="90000.0" fill="none" r="36742.346141747665" /><circle cx="90000.0" cy="90000.0" fill="none" r="37107.950630558946" /><circle cx="90000.0" cy="90000.0" fill="none" r="37469.987990390386" /><circle cx="90000.0" cy="90000.0" fill="none" r="37828.56063875547" /><circle cx="90000.0" cy="90000.0" fill="none" r="38183.76618407356" /><circle cx="90000.0" cy="90000.0" fill="none" r="38535.69773599538" /><circle cx="90000.0" cy="90000.0" fill="none" r="38884.44419044715" /><circle cx="90000.0" cy="90000.0" fill="none" r="39230.09049186606" /><circle cx="90000.0" cy="90000.0" fill="none" r="39572.71787481875" /><circle cx="90000.0" cy="90000.0" fill="none" r="39912.404086950206" /><circle cx="90000.0" cy="90000.0" fill="none" r="40249.22359499621" /><circle cx="90000.0" cy="90000.0" fill="none" r="40583.24777540605" /><circle cx="90000.0" cy="90000.0" fill="none" r="40914.54509095757" /><circle cx="90000.0" cy="90000.0" fill="none" r="41243.181254602554" /><circle cx="90000.0" cy="90000.0" fill="none" r="41569.21938165305" /><circle cx="90000.0" cy="90000.0" fill="none" r="41892.72013130682" /><circle cx="90000.0" cy="90000.0" fill="none" r="42213.74183841086" /><circle cx="90000.0" cy="90000.0" fill="none" r="42532.34063627347" /><circle cx="90000.0" cy="90000.0" fill="none" r="42848.5705712571" /><circle cx="90000.0" cy="90000.0" fill="none" r="43162.48370981447" /><circle cx="90000.0" cy="90000.0" fill="none" r="43474.130238568316" /><circle cx="90000.0" cy="90000.0" fill="none" r="43783.55855797927" /><circle cx="90000.0" cy="90000.0" fill="none" r="44090.81537009721" /><circle cx="90000.0" cy="90000.0" fill="none" r="44395.945760846225" /><circle cx="90000.0" cy="90000.0" fill="none" r="44698.99327725401" /><circle cx="90000.0" cy="90000.0" fill="none" r="44999.99999999999" /><circle cx="90000.0" cy="90000.0" fill="none" r="45299.0066116245" /><circle cx="90000.0" cy="90000.0" fill="none" r="45596.052460711995" /><circle cx="90000.0" cy="90000.0" fill="none" r="45891.17562233505" /><circle cx="90000.0" cy="90000.0" fill="none" r="46184.41295502195" /><circle cx="90000.0" cy="90000.0" fill="none" r="46475.80015448899" /><circle cx="90000.0" cy="90000.0" fill="none" r="46765.37180435968" /><circle cx="90000.0" cy="90000.0" fill="none" r="47053.16142407436" /><circle cx="90000.0" cy="90000.0" fill="none" r="47339.2015141785" /><circle cx="90000.0" cy="90000.0" fill="none" r="47623.52359916263" /><circle cx="90000.0" cy="90000.0" fill="none" r="47906.158268013925" /><circle cx="90000.0" cy="90000.0" fill="none" r="48187.13521262702" /><circle cx="90000.0" cy="90000.0" fill="none" r="48466.48326421053" /><circle cx="90000.0" cy="90000.0" fill="none" r="48744.23042781576" /><circle cx="90000.0" cy="90000.0" fill="none" r="49020.40391510457" /><circle cx="90000.0" cy="90000.0" fill="none" r="49295.03017546494" /><circle cx="90000.0" cy="90000.0" fill="none" r="49568.13492557491" /><circle cx="90000.0" cy="90000.0" fill="none" r="49839.74317750844" /><circle cx="90000.0" cy="90000.0" fill="none" r="50109.8792654702" /><circle cx="90000.0" cy="90000.0" fill="none" r="50378.56687123999" /><circle cx="90000.0" cy="90000.0" fill="none" r="50645.82904840239" /><circle cx="90000.0" cy="90000.0" fill="none" r="50911.68824543142" /><circle cx="90000.0" cy="90000.0" fill="none" r="51176.16632769594" /><circle cx="90000.0" cy="90000.0" fill="none" r="51439.28459844674" /><circle cx="90000.0" cy="90000.0" fill="none" r="51701.06381884226" /><circle cx="90000.0" cy="90000.0" fill="none" r="51961.524227066315" /><circle cx="90000.0" cy="90000.0" fill="none" r="52220.685556587625" /><circle cx="90000.0" cy="90000.0" fill="none" r="52478.5670536077" /><circle cx="90000.0" cy="90000.0" fill="none" r="52735.18749374083" /><circle cx="90000.0" cy="90000.0" fill="none" r="52990.56519796708" /><circle cx="90000.0" cy="90000.0" fill="none" r="53244.718047896546" /><circle cx="90000.0" cy="90000.0" fill="none" r="53497.66350038102" /><circle cx="90000.0" cy="90000.0" fill="none" r="53749.418601506746" /><circle cx="90000.0" cy="90000.0" fill="none" r="53999.99999999999" /><circle cx="90000.0" cy="90000.0" fill="none" r="54249.423960075364" /><circle cx="90000.0" cy="90000.0" fill="none" r="54497.706373754845" /><circle cx="90000.0" cy="90000.0" fill="none" r="54744.86277268398" /><circle cx="90000.0" cy="90000.0" fill="none" r="54990.90833947007" /><circle cx="90000.0" cy="90000.0" fill="none" r="55235.857918565904" /><circle cx="90000.0" cy="90000.0" fill="none" r="55479.72602672078" /><circle cx="90000.0" cy="90000.0" fill="none" r="55722.526863020124" /><circle cx="90000.0" cy="90000.0" fill="none" r="55964.27431853289" /><circle cx="90000.0" cy="90000.0" fill="none" r="56204.981985585575" /><circle cx="90000.0" cy="90000.0" fill="none" r="56444.66316668034" /><circle cx="90000.0" cy="90000.0" fill="none" r="56683.33088307355" /><circle cx="90000.0" cy="90000.0" fill="none" r="56920.997883030825" /><circle cx="90000.0" cy="90000.0" fill="none" r="57157.67664977294" /><circle cx="90000.0" cy="90000.0" fill="none" r="57393.37940912697" /><circle cx="90000.0" cy="90000.0" fill="none" r="57628.11813689564" /><circle cx="90000.0" cy="90000.0" fill="none" r="57861.904565957724" /><circle cx="90000.0" cy="90000.0" fill="none" r="58094.75019311125" /><circle cx="90000.0" cy="90000.0" fill="none" r="58326.66628567073" /><circle cx="90000.0" cy="90000.0" fill="none" r="58557.6638878294" /><circle cx="90000.0" cy="90000.0" fill="none" r="58787.75382679627" /><circle cx="90000.0" cy="90000.0" fill="none" r="59016.946718718" /><circle cx="90000.0" cy="90000.0" fill="none" r="59245.25297439449" /><circle cx="90000.0" cy="90000.0" fill="none" r="59472.68280479703" /><circle cx="90000.0" cy="90000.0" fill="none" r="59699.24622639719" /><circle cx="90000.0" cy="90000.0" fill="none" r="59924.953066314534" /><circle cx="90000.0" cy="90000.0" fill="none" r="60149.81296729026" /><circle cx="90000.0" cy="90000.0" fill="none" r="60373.83539249432" /><circle cx="90000.0" cy="90000.0" fill="none" r="60597.02963017246" /><circle cx="90000.0" cy="90000.0" fill="none" r="60819.40479813987" /><circle cx="90000.0" cy="90000.0" fill="none" r="61040.9698481274" /><circle cx="90000.0" cy="90000.0" fill="none" r="61261.73356998641" /><circle cx="90000.0" cy="90000.0" fill="none" r="61481.70459575759" /><circle cx="90000.0" cy="90000.0" fill="none" r="61700.8914036094" /><circle cx="90000.0" cy="90000.0" fill="none" r="61919.30232165087" /><circle cx="90000.0" cy="90000.0" fill="none" r="62136.94553162393" /><circle cx="90000.0" cy="90000.0" fill="none" r="62353.82907247958" /><circle cx="90000.0" cy="90000.0" fill="none" r="62569.960843842615" /><circle cx="90000.0" cy="90000.0" fill="none" r="62785.348609369044" /><circle cx="90000.0" cy="90000.0" fill="none" r="62999.99999999999" /><circle cx="90000.0" cy="90000.0" fill="none" r="63213.92251711643" /><circle cx="90000.0" cy="90000.0" fill="none" r="63427.123535597915" /><circle cx="90000.0" cy="90000.0" fill="none" r="63639.61030678928" /><circle cx="90000.0" cy="90000.0" fill="none" r="63851.389961378285" /><circle cx="90000.0" cy="90000.0" fill="none" r="64062.46951218786" /><circle cx="90000.0" cy="90000.0" fill="none" r="64272.855856885646" /><circle cx="90000.0" cy="90000.0" fill="none" r="64482.55578061402" /><circle cx="90000.0" cy="90000.0" fill="none" r="64691.57595854347" /><circle cx="90000.0" cy="90000.0" fill="none" r="64899.9229583518" /><circle cx="90000.0" cy="90000.0" fill="none" r="65107.6032426321" /><circle cx="90000.0" cy="90000.0" fill="none" r="65314.623171231724" /><circle cx="90000.0" cy="90000.0" fill="none" r="65520.98900352466" /><circle cx="90000.0" cy="90000.0" fill="none" r="65726.70690061993" /><circle cx="90000.0" cy="90000.0" fill="none" r="65931.78292750772" /><circle cx="90000.0" cy="90000.0" fill="none" r="66136.2230551458" /><circle cx="90000.0" cy="90000.0" fill="none" r="66340.03316248793" /><circle cx="90000.0" cy="90000.0" fill="none" r="66543.2190384565" /><circle cx="90000.0" cy="90000.0" fill="none" r="66745.78638386096" /><circle cx="90000.0" cy="90000.0" fill="none" r="66947.74081326419" /><circle cx="90000.0" cy="90000.0" fill="none" r="67149.08785679817" /><circle cx="90000.0" cy="90000.0" fill="none" r="67349.83296193094" /><circle cx="90000.0" cy="90000.0" fill="none" r="67549.9814951862" /><circle cx="90000.0" cy="90000.0" fill="none" r="67749.53874381728" /><circle cx="90000.0" cy="90000.0" fill="none" r="67948.50991743674" /><circle cx="90000.0" cy="90000.0" fill="none" r="68146.90014960327" /><circle cx="90000.0" cy="90000.0" fill="none" r="68344.7144993671" /><circle cx="90000.0" cy="90000.0" fill="none" r="68541.95795277516" /><circle cx="90000.0" cy="90000.0" fill="none" r="68738.6354243376" /><circle cx="90000.0" cy="90000.0" fill="none" r="68934.75175845633" /><circle cx="90000.0" cy="90000.0" fill="none" r="69130.31173081747" /><circle cx="90000.0" cy="90000.0" fill="none" r="69325.32004974804" /><circle cx="90000.0" cy="90000.0" fill="none" r="69519.7813575388" /><circle cx="90000.0" cy="90000.0" fill="none" r="69713.70023173351" /><circle cx="90000.0" cy="90000.0" fill="none" r="69907.08118638625" /><circle cx="90000.0" cy="90000.0" fill="none" r="70099.92867328752" /><circle cx="90000.0" cy="90000.0" fill="none" r="70292.24708315989" /><circle cx="90000.0" cy="90000.0" fill="none" r="70484.04074682438" /><circle cx="90000.0" cy="90000.0" fill="none" r="70675.31393633847" /><circle cx="90000.0" cy="90000.0" fill="none" r="70866.07086610628" /><circle cx="90000.0" cy="90000.0" fill="none" r="71056.31569396207" /><circle cx="90000.0" cy="90000.0" fill="none" r="71246.0525222275" /><circle cx="90000.0" cy="90000.0" fill="none" r="71435.28539874394" /><circle cx="90000.0" cy="90000.0" fill="none" r="71624.01831787993" /><circle cx="90000.0" cy="90000.0" fill="none" r="71812.25522151493" /><circle cx="90000.0" cy="90000.0" fill="none" r="72000.0" /><circle cx="90000.0" cy="90000.0" fill="none" r="72187.25649309579" /><circle cx="90000.0" cy="90000.0" fill="none" r="72374.0284908889" /><circle cx="90000.0" cy="90000.0" fill="none" r="72560.31973468694" /><circle cx="90000.0" cy="90000.0" fill="none" r="72746.13391789285" /><circle cx="90000.0" cy="90000.0" fill="none" r="72931.47468685929" /><circle cx="90000.0" cy="90000.0" fill="none" r="73116.34564172363" /><circle cx="90000.0" cy="90000.0" fill="none" r="73300.75033722368" /><circle cx="90000.0" cy="90000.0" fill="none" r="73484.69228349533" /><circle cx="90000.0" cy="90000.0" fill="none" r="73668.17494685204" /><circle cx="90000.0" cy="90000.0" fill="none" r="73851.20175054701" /><circle cx="90000.0" cy="90000.0" fill="none" r="74033.77607551838" /><circle cx="90000.0" cy="90000.0" fill="none" r="74215.90126111789" /><circle cx="90000.0" cy="90000.0" fill="none" r="74397.58060582346" /><circle cx="90000.0" cy="90000.0" fill="none" r="74578.81736793631" /><circle cx="90000.0" cy="90000.0" fill="none" r="74759.61476626268" /><circle cx="90000.0" cy="90000.0" fill="none" r="74939.97598078077" /><circle cx="90000.0" cy="90000.0" fill="none" r="75119.90415329348" /><circle cx="90000.0" cy="90000.0" fill="none" r="75299.4023880668" /><circle cx="90000.0" cy="90000.0" fill="none" r="75478.47375245474" /><circle cx="90000.0" cy="90000.0" fill="none" r="75657.12127751095" /><circle cx="90000.0" cy="90000.0" fill="none" r="75835.34795858723" /><circle cx="90000.0" cy="90000.0" fill="none" r="76013.15675591957" /><circle cx="90000.0" cy="90000.0" fill="none" r="76190.55059520176" /><circle cx="90000.0" cy="90000.0" fill="none" r="76367.53236814712" /><circle cx="90000.0" cy="90000.0" fill="none" r="76544.10493303844" /><circle cx="90000.0" cy="90000.0" fill="none" r="76720.27111526653" /><circle cx="90000.0" cy="90000.0" fill="none" r="76896.03370785777" /><circle cx="90000.0" cy="90000.0" fill="none" r="77071.39547199076" /><circle cx="90000.0" cy="90000.0" fill="none" r="77246.3591375024" /><circle cx="90000.0" cy="90000.0" fill="none" r="77420.92740338364" /><circle cx="90000.0" cy="90000.0" fill="none" r="77595.10293826538" /><circle cx="90000.0" cy="90000.0" fill="none" r="77768.8883808943" /><circle cx="90000.0" cy="90000.0" fill="none" r="77942.28634059947" /><circle cx="90000.0" cy="90000.0" fill="none" r="78115.29939774922" /><circle cx="90000.0" cy="90000.0" fill="none" r="78287.93010419933" /><circle cx="90000.0" cy="90000.0" fill="none" r="78460.18098373212" /><circle cx="90000.0" cy="90000.0" fill="none" r="78632.05453248693" /><circle cx="90000.0" cy="90000.0" fill="none" r="78803.55321938217" /><circle cx="90000.0" cy="90000.0" fill="none" r="78974.67948652909" /><circle cx="90000.0" cy="90000.0" fill="none" r="79145.4357496375" /><circle cx="90000.0" cy="90000.0" fill="none" r="79315.82439841371" /><circle cx="90000.0" cy="90000.0" fill="none" r="79485.84779695062" /><circle cx="90000.0" cy="90000.0" fill="none" r="79655.50828411052" /><circle cx="90000.0" cy="90000.0" fill="none" r="79824.80817390041" /><circle cx="90000.0" cy="90000.0" fill="none" r="79993.7497558403" /><circle cx="90000.0" cy="90000.0" fill="none" r="80162.33529532432" /><circle cx="90000.0" cy="90000.0" fill="none" r="80330.56703397528" /><circle cx="90000.0" cy="90000.0" fill="none" r="80498.44718999242" /><circle cx="90000.0" cy="90000.0" fill="none" r="80665.97795849251" /><circle cx="90000.0" cy="90000.0" fill="none" r="80833.16151184487" /><circle cx="90000.0" cy="90000.0" fill="none" r="81000.0" /><circle cx="90000.0" cy="90000.0" fill="none" r="81166.4955508121" /><circle cx="90000.0" cy="90000.0" fill="none" r="81332.65027035575" /><circle cx="90000.0" cy="90000.0" fill="none" r="81498.46624323673" /><circle cx="90000.0" cy="90000.0" fill="none" r="81663.94553289718" /><circle cx="90000.0" cy="90000.0" fill="none" r="81829.09018191513" /><circle cx="90000.0" cy="90000.0" fill="none" r="81993.90221229868" /><circle cx="90000.0" cy="90000.0" fill="none" r="82158.3836257749" /><circle cx="90000.0" cy="90000.0" fill="none" r="82322.53640407346" /><circle cx="90000.0" cy="90000.0" fill="none" r="82486.36250920511" /><circle cx="90000.0" cy="90000.0" fill="none" r="82649.86388373545" /><circle cx="90000.0" cy="90000.0" fill="none" r="82813.04245105355" /><circle cx="90000.0" cy="90000.0" fill="none" r="82975.90011563597" /><circle cx="90000.0" cy="90000.0" fill="none" r="83138.4387633061" /><circle cx="90000.0" cy="90000.0" fill="none" r="83300.66026148891" /><circle cx="90000.0" cy="90000.0" fill="none" r="83462.56645946132" /><circle cx="90000.0" cy="90000.0" fill="none" r="83624.15918859812" /><circle cx="90000.0" cy="90000.0" fill="none" r="83785.44026261364" /><circle cx="90000.0" cy="90000.0" fill="none" r="83946.41147779932" /><circle cx="90000.0" cy="90000.0" fill="none" r="84107.07461325711" /><circle cx="90000.0" cy="90000.0" fill="none" r="84267.43143112882" /><circle cx="90000.0" cy="90000.0" fill="none" r="84427.48367682172" /><circle cx="90000.0" cy="90000.0" fill="none" r="84587.2330792301" /><circle cx="90000.0" cy="90000.0" fill="none" r="84746.6813509532" /><circle cx="90000.0" cy="90000.0" fill="none" r="84905.83018850943" /><circle cx="90000.0" cy="90000.0" fill="none" r="85064.68127254694" /><circle cx="90000.0" cy="90000.0" fill="none" r="85223.23626805074" /><circle cx="90000.0" cy="90000.0" fill="none" r="85381.49682454624" /><circle cx="90000.0" cy="90000.0" fill="none" r="85539.46457629952" /><circle cx="90000.0" cy="90000.0" fill="none" r="85697.1411425142" /><circle cx="90000.0" cy="90000.0" fill="none" r="85854.5281275251" /><circle cx="90000.0" cy="90000.0" fill="none" r="86011.6271209887" /><circle cx="90000.0" cy="90000.0" fill="none" r="86168.43969807043" /><circle cx="90000.0" cy="90000.0" fill="none" r="86324.96741962894" /><circle cx="90000.0" cy="90000.0" fill="none" r="86481.21183239744" /><circle cx="90000.0" cy="90000.0" fill="none" r="86637.1744691619" /><circle cx="90000.0" cy="90000.0" fill="none" r="86792.85684893659" /><circle cx="90000.0" cy="90000.0" fill="none" r="86948.26047713663" /><circle cx="90000.0" cy="90000.0" fill="none" r="87103.38684574784" /><circle cx="90000.0" cy="90000.0" fill="none" r="87258.23743349392" /><circle cx="90000.0" cy="90000.0" fill="none" r="87412.81370600079" /><circle cx="90000.0" cy="90000.0" fill="none" r="87567.11711595854" /><circle cx="90000.0" cy="90000.0" fill="none" r="87721.14910328067" /><circle cx="90000.0" cy="90000.0" fill="none" r="87874.91109526085" /><circle cx="90000.0" cy="90000.0" fill="none" r="88028.40450672725" /><circle cx="90000.0" cy="90000.0" fill="none" r="88181.63074019442" /><circle cx="90000.0" cy="90000.0" fill="none" r="88334.59118601272" /><circle cx="90000.0" cy="90000.0" fill="none" r="88487.28722251573" /><circle cx="90000.0" cy="90000.0" fill="none" r="88639.72021616493" /><circle cx="90000.0" cy="90000.0" fill="none" r="88791.89152169245" /><circle cx="90000.0" cy="90000.0" fill="none" r="88943.80248224155" /><circle cx="90000.0" cy="90000.0" fill="none" r="89095.45442950499" /><circle cx="90000.0" cy="90000.0" fill="none" r="89246.84868386111" /><circle cx="90000.0" cy="90000.0" fill="none" r="89397.98655450802" /><circle cx="90000.0" cy="90000.0" fill="none" r="89548.86933959578" /><circle cx="90000.0" cy="90000.0" fill="none" r="89699.49832635632" /><circle cx="90000.0" cy="90000.0" fill="none" r="89849.8747912316" /></g></svg>