<?xml version="1.0" encoding="utf-8" ?>
<svg baseProfile="full" height="18cm" version="1.1" viewBox="0,0,180000,180000" width="18cm" xmlns="http://www.w3.org/2000/svg" xmlns:ev="http://www.w3.org/2001/xml-events" xmlns:xlink="http://www.w3.org/1999/xlink"><defs /><g><rect fill="white" height="180000" width="180000" x="0" y="0" /></g><g stroke="black" stroke-width="100.0"><circle cx="90000.0" cy="90000.0" fill="none" r="0.0" /><circle cx="90000.0" cy="90000.0" fill="none" r="360.0" /><circle cx="90000.0" cy="90000.0" fill="none" r="720.0" /><circle cx="90000.0" cy="90000.0" fill="none" r="1080.0" /><circle cx="90000.0" cy="90000.0" fill="none" r="1440.0" /><circle cx="90000.0" cy="90000.0" fill="none" r="1800.0" /><circle cx="90000.0" cy="90000.0" fill="none" r="2160.0" /><circle cx="90000.0" cy="90000.0" fill="none" r="2520.0" /><circle cx="90000.0" cy="90000.0" fill="none" r="2880.0" /><circle cx="90000.0" cy="90000.0" fill="none" r="3240.0" /><circle cx="90000.0" cy="90000.0" fill="none" r="3600.0" /><circle cx="90000.0" cy="90000.0" fill="none" r="3960.0" /><circle cx="90000.0" cy="90000.0" fill="none" r="4320.0" /><circle cx="90000.0" cy="90000.0" fill="none" r="4680.0" /><circle cx="90000.0" cy="90000.0" fill="none" r="5040.0" /><circle cx="90000.0" cy="90000.0" fill="none" r="5400.0" /><circle cx="90000.0" cy="90000.0" fill="none" r="5760.0" /><circle cx="90000.0" cy="90000.0" fill="none" r="6120.0" /><circle cx="90000.0" cy="90000.0" fill="none" r="6480.0" /><circle cx="90000.0" cy="90000.0" fill="none" r="6840.000000000001" /><circle cx="90000.0" cy="90000.0" fill="none" r="7200.0" /><circle cx="90000.0" cy="90000.0" fill="none" r="7560.0" /><circle cx="90000.0" cy="90000.0" fill="none" r="7920.0" /><circle cx="90000.0" cy="90000.0" fill="none" r="8280.0" /><circle cx="90000.0" cy="90000.0" fill="none" r="8640.0" /><circle cx="90000.0" cy="90000.0" fill="none" r="9000.0" /><circle cx="90000.0" cy="90000.0" fill="none" r="9360.0" /><circle cx="90000.0" cy="90000.0" fill="none" r="9720.0" /><circle cx="90000.0" cy="90000.0" fill="none" r="10080.0" /><circle cx="90000.0" cy="90000.0" fill="none" r="10440.0" /><circle cx="90000.0" cy="90000.0" fill="none" r="10800.0" /><circle cx="90000.0" cy="90000.0" fill="none" r="11160.000000000002" /><circle cx="90000.0" cy="90000.0" fill="none" r="11520.0" /><circle cx="90000.0" cy="90000.0" fill="none" r="11880.0" /><circle cx="90000.0" cy="90000.0" fill="none" r="12240.0" /><circle cx="90000.0" cy="90000.0" fill="none" r="12600.0" /><circle cx="90000.0" cy="90000.0" fill="none" r="12960.0" /><circle cx="90000.0" cy="90000.0" fill="none" r="13320.0" /><circle cx="90000.0" cy="90000.0" fill="none" r="13680.000000000002" /><circle cx="90000.0" cy="90000.0" fill="none" r="14040.0" /><circle cx="90000.0" cy="90000.0" fill="none" r="14400.0" /><circle cx="90000.0" cy="90000.0" fill="none" r="14760.0" /><circle cx="90000.0" cy="90000.0" fill="none" r="15120.0" /><circle cx="90000.0" cy="90000.0" fill="none" r="15480.0" /><circle cx="90000.0" cy="90000.0" fill="none" r="15840.0" /><circle cx="90000.0" cy="90000.0" fill="none" r="16200.000000000002" /><circle cx="90000.0" cy="90000.0" fill="none" r="16560.0" /><circle cx="90000.0" cy="90000.0" fill="none" r="16920.0" /><circle cx="90000.0" cy="90000.0" fill="none" r="17280.0" /><circle cx="90000.0" cy="90000.0" fill="none" r="17640.0" /><circle cx="90000.0" cy="90000.0" fill="none" r="18000.0" /><circle cx="90000.0" cy="90000.0" fill="none" r="18360.0" /><circle cx="90000.0" cy="90000.0" fill="none" r="18720.0" /><circle cx="90000.0" cy="90000.0" fill="none" r="19080.0" /><circle cx="90000.0" cy="90000.0" fill="none" r="19440.0" /><circle cx="90000.0" cy="90000.0" fill="none" r="19800.0" /><circle cx="90000.0" cy="90000.0" fill="none" r="20160.0" /><circle cx="90000.0" cy="90000.0" fill="none" r="20520.0" /><circle cx="90000.0" cy="90000.0" fill="none" r="20880.0" /><circle cx="90000.0" cy="90000.0" fill="none" r="21240.0" /><circle cx="90000.0" cy="90000.0" fill="none" r="21600.0" /><circle cx="90000.0" cy="90000.0" fill="none" r="21960.0" /><circle cx="90000.0" cy="90000.0" fill="none" r="22320.000000000004" /><circle cx="90000.0" cy="90000.0" fill="none" r="22679.999999999996" /><circle cx="90000.0" cy="90000.0" fill="none" r="23040.0" /><circle cx="90000.0" cy="90000.0" fill="none" r="23400.0" /><circle cx="90000.0" cy="90000.0" fill="none" r="23760.0" /><circle cx="90000.0" cy="90000.0" fill="none" r="24120.0" /><circle cx="90000.0" cy="90000.0" fill="none" r="24480.0" /><circle cx="90000.0" cy="90000.0" fill="none" r="24840.0" /><circle cx="90000.0" cy="90000.0" fill="none" r="25200.0" /><circle cx="90000.0" cy="90000.0" fill="none" r="25560.0" /><circle cx="90000.0" cy="90000.0" fill="none" r="25920.0" /><circle cx="90000.0" cy="90000.0" fill="none" r="26280.0" /><circle cx="90000.0" cy="90000.0" fill="none" r="26640.0" /><circle cx="90000.0" cy="90000.0" fill="none" r="27000.0" /><circle cx="90000.0" cy="90000.0" fill="none" r="27360.000000000004" /><circle cx="90000.0" cy="90000.0" fill="none" r="27719.999999999996" /><circle cx="90000.0" cy="90000.0" fill="none" r="28080.0" /><circle cx="90000.0" cy="90000.0" fill="none" r="28440.0" /><circle cx="90000.0" cy="90000.0" fill="none" r="28800.0" /><circle cx="90000.0" cy="90000.0" fill="none" r="29160.0" /><circle cx="90000.0" cy="90000.0" fill="none" r="29520.0" /><circle cx="90000.0" cy="90000.0" fill="none" r="29880.0" /><circle cx="90000.0" cy="90000.0" fill="none" r="30240.0" /><circle cx="90000.0" cy="90000.0" fill="none" r="30600.0" /><circle cx="90000.0" cy="90000.0" fill="none" r="30960.0" /><circle cx="90000.0" cy="90000.0" fill="none" r="31320.0" /><circle cx="90000.0" cy="90000.0" fill="none" r="31680.0" /><circle cx="90000.0" cy="90000.0" fill="none" r="32040.0" /><circle cx="90000.0" cy="90000.0" fill="none" r="32400.000000000004" /><circle cx="90000.0" cy="90000.0" fill="none" r="32759.999999999996" /><circle cx="90000.0" cy="90000.0" fill="none" r="33120.0" /><circle cx="90000.0" cy="90000.0" fill="none" r="33480.0" /><circle cx="90000.0" cy="90000.0" fill="none" r="33840.0" /><circle cx="90000.0" cy="90000.0" fill="none" r="34200.0" /><circle cx="90000.0" cy="90000.0" fill="none" r="34560.0" /><circle cx="90000.0" cy="90000.0" fill="none" r="34920.0" /><circle cx="90000.0" cy="90000.0" fill="none" r="35280.0" /><circle cx="90000.0" cy="90000.0" fill="none" r="35640.0" /><circle cx="90000.0" cy="90000.0" fill="none" r="36000.0" /><circle cx="90000.0" cy="90000.0" fill="none" r="36360.0" /><circle cx="90000.0" cy="90000.0" fill="none" r="36720.0" /><circle cx="90000.0" cy="90000.0" fill="none" r="37080.0" /><circle cx="90000.0" cy="90000.0" fill="none" r="37440.0" /><circle cx="90000.0" cy="90000.0" fill="none" r="37800.0" /><circle cx="90000.0" cy="90000.0" fill="none" r="38160.0" /><circle cx="90000.0" cy="90000.0" fill="none" r="38520.0" /><circle cx="90000.0" cy="90000.0" fill="none" r="38880.0" /><circle cx="90000.0" cy="90000.0" fill="none" r="39240.0" /><circle cx="90000.0" cy="90000.0" fill="none" r="39600.0" /><circle cx="90000.0" cy="90000.0" fill="none" r="39960.0" /><circle cx="90000.0" cy="90000.0" fill="none" r="40320.0" /><circle cx="90000.0" cy="90000.0" fill="none" r="40679.99999999999" /><circle cx="90000.0" cy="90000.0" fill="none" r="41040.0" /><circle cx="90000.0" cy="90000.0" fill="none" r="41400.0" /><circle cx="90000.0" cy="90000.0" fill="none" r="41760.0" /><circle cx="90000.0" cy="90000.0" fill="none" r="42120.0" /><circle cx="90000.0" cy="90000.0" fill="none" r="42480.0" /><circle cx="90000.0" cy="90000.0" fill="none" r="42840.0" /><circle cx="90000.0" cy="90000.0" fill="none" r="43200.0" /><circle cx="90000.0" cy="90000.0" fill="none" r="43560.0" /><circle cx="90000.0" cy="90000.0" fill="none" r="43920.0" /><circle cx="90000.0" cy="90000.0" fill="none" r="44280.0" /><circle cx="90000.0" cy="90000.0" fill="none" r="44640.00000000001" /><circle cx="90000.0" cy="90000.0" fill="none" r="45000.0" /><circle cx="90000.0" cy="90000.0" fill="none" r="45359.99999999999" /><circle cx="90000.0" cy="90000.0" fill="none" r="45720.0" /><circle cx="90000.0" cy="90000.0" fill="none" r="46080.0" /><circle cx="90000.0" cy="90000.0" fill="none" r="46440.0" /><circle cx="90000.0" cy="90000.0" fill="none" r="46800.0" /><circle cx="90000.0" cy="90000.0" fill="none" r="47160.0" /><circle cx="90000.0" cy="90000.0" fill="none" r="47520.0" /><circle cx="90000.0" cy="90000.0" fill="none" r="47880.0" /><circle cx="90000.0" cy="90000.0" fill="none" r="48240.0" /><circle cx="90000.0" cy="90000.0" fill="none" r="48600.0" /><circle cx="90000.0" cy="90000.0" fill="none" r="48960.0" /><circle cx="90000.0" cy="90000.0" fill="none" r="49320.00000000001" /><circle cx="90000.0" cy="90000.0" fill="none" r="49680.0" /><circle cx="90000.0" cy="90000.0" fill="none" r="50039.99999999999" /><circle cx="90000.0" cy="90000.0" fill="none" r="50400.0" /><circle cx="90000.0" cy="90000.0" fill="none" r="50759.99999999999" /><circle cx="90000.0" cy="90000.0" fill="none" r="51120.0" /><circle cx="90000.0" cy="90000.0" fill="none" r="51480.0" /><circle cx="90000.0" cy="90000.0" fill="none" r="51840.0" /><circle cx="90000.0" cy="90000.0" fill="none" r="52200.0" /><circle cx="90000.0" cy="90000.0" fill="none" r="52560.0" /><circle cx="90000.0" cy="90000.0" fill="none" r="52920.0" /><circle cx="90000.0" cy="90000.0" fill="none" r="53280.0" /><circle cx="90000.0" cy="90000.0" fill="none" r="53640.0" /><circle cx="90000.0" cy="90000.0" fill="none" r="54000.0" /><circle cx="90000.0" cy="90000.0" fill="none" r="54360.0" /><circle cx="90000.0" cy="90000.0" fill="none" r="54720.00000000001" /><circle cx="90000.0" cy="90000.0" fill="none" r="55080.0" /><circle cx="90000.0" cy="90000.0" fill="none" r="55439.99999999999" /><circle cx="90000.0" cy="90000.0" fill="none" r="55800.0" /><circle cx="90000.0" cy="90000.0" fill="none" r="56160.0" /><circle cx="90000.0" cy="90000.0" fill="none" r="56520.0" /><circle cx="90000.0" cy="90000.0" fill="none" r="56880.0" /><circle cx="90000.0" cy="90000.0" fill="none" r="57240.0" /><circle cx="90000.0" cy="90000.0" fill="none" r="57600.0" /><circle cx="90000.0" cy="90000.0" fill="none" r="57960.0" /><circle cx="90000.0" cy="90000.0" fill="none" r="58320.0" /><circle cx="90000.0" cy="90000.0" fill="none" r="58680.0" /><circle cx="90000.0" cy="90000.0" fill="none" r="59040.0" /><circle cx="90000.0" cy="90000.0" fill="none" r="59400.00000000001" /><circle cx="90000.0" cy="90000.0" fill="none" r="59760.0" /><circle cx="90000.0" cy="90000.0" fill="none" r="60119.99999999999" /><circle cx="90000.0" cy="90000.0" fill="none" r="60480.0" /><circle cx="90000.0" cy="90000.0" fill="none" r="60839.99999999999" /><circle cx="90000.0" cy="90000.0" fill="none" r="61200.0" /><circle cx="90000.0" cy="90000.0" fill="none" r="61560.0" /><circle cx="90000.0" cy="90000.0" fill="none" r="61920.0" /><circle cx="90000.0" cy="90000.0" fill="none" r="62280.0" /><circle cx="90000.0" cy="90000.0" fill="none" r="62640.0" /><circle cx="90000.0" cy="90000.0" fill="none" r="63000.0" /><circle cx="90000.0" cy="90000.0" fill="none" r="63360.0" /><circle cx="90000.0" cy="90000.0" fill="none" r="63720.0" /><circle cx="90000.0" cy="90000.0" fill="none" r="64080.0" /><circle cx="90000.0" cy="90000.0" fill="none" r="64440.0" /><circle cx="90000.0" cy="90000.0" fill="none" r="64800.00000000001" /><circle cx="90000.0" cy="90000.0" fill="none" r="65160.0" /><circle cx="90000.0" cy="90000.0" fill="none" r="65519.99999999999" /><circle cx="90000.0" cy="90000.0" fill="none" r="65880.0" /><circle cx="90000.0" cy="90000.0" fill="none" r="66240.0" /><circle cx="90000.0" cy="90000.0" fill="none" r="66600.0" /><circle cx="90000.0" cy="90000.0" fill="none" r="66960.0" /><circle cx="90000.0" cy="90000.0" fill="none" r="67320.0" /><circle cx="90000.0" cy="90000.0" fill="none" r="67680.0" /><circle cx="90000.0" cy="90000.0" fill="none" r="68040.0" /><circle cx="90000.0" cy="90000.0" fill="none" r="68400.0" /><circle cx="90000.0" cy="90000.0" fill="none" r="68760.0" /><circle cx="90000.0" cy="90000.0" fill="none" r="69120.0" /><circle cx="90000.0" cy="90000.0" fill="none" r="69480.0" /><circle cx="90000.0" cy="90000.0" fill="none" r="69840.0" /><circle cx="90000.0" cy="90000.0" fill="none" r="70200.0" /><circle cx="90000.0" cy="90000.0" fill="none" r="70560.0" /><circle cx="90000.0" cy="90000.0" fill="none" r="70920.0" /><circle cx="90000.0" cy="90000.0" fill="none" r="71280.0" /><circle cx="90000.0" cy="90000.0" fill="none" r="71640.0" /><circle cx="90000.0" cy="90000.0" fill="none" r="72000.0" /><circle cx="90000.0" cy="90000.0" fill="none" r="72360.0" /><circle cx="90000.0" cy="90000.0" fill="none" r="72720.0" /><circle cx="90000.0" cy="90000.0" fill="none" r="73080.0" /><circle cx="90000.0" cy="90000.0" fill="none" r="73440.0" /><circle cx="90000.0" cy="90000.0" fill="none" r="73800.0" /><circle cx="90000.0" cy="90000.0" fill="none" r="74160.0" /><circle cx="90000.0" cy="90000.0" fill="none" r="74520.0" /><circle cx="90000.0" cy="90000.0" fill="none" r="74880.0" /><circle cx="90000.0" cy="90000.0" fill="none" r="75240.0" /><circle cx="90000.0" cy="90000.0" fill="none" r="75600.0" /><circle cx="90000.0" cy="90000.0" fill="none" r="75960.0" /><circle cx="90000.0" cy="90000.0" fill="none" r="76320.0" /><circle cx="90000.0" cy="90000.0" fill="none" r="76680.0" /><circle cx="90000.0" cy="90000.0" fill="none" r="77040.0" /><circle cx="90000.0" cy="90000.0" fill="none" r="77400.0" /><circle cx="90000.0" cy="90000.0" fill="none" r="77760.0" /><circle cx="90000.0" cy="90000.0" fill="none" r="78120.0" /><circle cx="90000.0" cy="90000.0" fill="none" r="78480.0" /><circle cx="90000.0" cy="90000.0" fill="none" r="78840.0" /><circle cx="90000.0" cy="90000.0" fill="none" r="79200.0" /><circle cx="90000.0" cy="90000.0" fill="none" r="79560.0" /><circle cx="90000.0" cy="90000.0" fill="none" r="79920.0" /><circle cx="90000.0" cy="90000.0" fill="none" r="80280.0" /><circle cx="90000.0" cy="90000.0" fill="none" r="80640.0" /><circle cx="90000.0" cy="90000.0" fill="none" r="81000.0" /><circle cx="90000.0" cy="90000.0" fill="none" r="81359.99999999999" /><circle cx="90000.0" cy="90000.0" fill="none" r="81720.0" /><circle cx="90000.0" cy="90000.0" fill="none" r="82080.0" /><circle cx="90000.0" cy="90000.0" fill="none" r="82440.0" /><circle cx="90000.0" cy="90000.0" fill="none" r="82800.0" /><circle cx="90000.0" cy="90000.0" fill="none" r="83160.0" /><circle cx="90000.0" cy="90000.0" fill="none" r="83520.0" /><circle cx="90000.0" cy="90000.0" fill="none" r="83880.0" /><circle cx="90000.0" cy="90000.0" fill="none" r="84240.0" /><circle cx="90000.0" cy="90000.0" fill="none" r="84600.00000000001" /><circle cx="90000.0" cy="90000.0" fill="none" r="84960.0" /><circle cx="90000.0" cy="90000.0" fill="none" r="85320.0" /><circle cx="90000.0" cy="90000.0" fill="none" r="85680.0" /><circle cx="90000.0" cy="90000.0" fill="none" r="86039.99999999999" /><circle cx="90000.0" cy="90000.0" fill="none" r="86400.0" /><circle cx="90000.0" cy="90000.0" fill="none" r="86760.0" /><circle cx="90000.0" cy="90000.0" fill="none" r="87120.0" /><circle cx="90000.0" cy="90000.0" fill="none" r="87480.0" /><circle cx="90000.0" cy="90000.0" fill="none" r="87840.0" /><circle cx="90000.0" cy="90000.0" fill="none" r="88200.0" /><circle cx="90000.0" cy="90000.0" fill="none" r="88560.0" /><circle cx="90000.0" cy="90000.0" fill="none" r="88920.0" /><circle cx="90000.0" cy="90000.0" fill="none" r="89280.00000000001" /><circle cx="90000.0" cy="90000.0" fill="none" r="89640.0" /></g></svg>