<?xml version="1.0" encoding="utf-8" ?>
<svg baseProfile="full" height="18cm" version="1.1" viewBox="0,0,180000,180000" width="18cm" xmlns="http://www.w3.org/2000/svg" xmlns:ev="http://www.w3.org/2001/xml-events" xmlns:xlink="http://www.w3.org/1999/xlink"><defs /><g><rect fill="white" height="180000" width="180000" x="0" y="0" /></g><g stroke="black" stroke-width="100.0"><circle cx="90000.0" cy="90000.0" fill="none" r="0.0" /><circle cx="90000.0" cy="90000.0" fill="none" r="2.25" /><circle cx="90000.0" cy="90000.0" fill="none" r="9.0" /><circle cx="90000.0" cy="90000.0" fill="none" r="20.25" /><circle cx="90000.0" cy="90000.0" fill="none" r="36.0" /><circle cx="90000.0" cy="90000.0" fill="none" r="56.25" /><circle cx="90000.0" cy="90000.0" fill="none" r="81.0" /><circle cx="90000.0" cy="90000.0" fill="none" r="110.24999999999999" /><circle cx="90000.0" cy="90000.0" fill="none" r="144.0" /><circle cx="90000.0" cy="90000.0" fill="none" r="182.25000000000003" /><circle cx="90000.0" cy="90000.0" fill="none" r="225.0" /><circle cx="90000.0" cy="90000.0" fill="none" r="272.25" /><circle cx="90000.0" cy="90000.0" fill="none" r="324.0" /><circle cx="90000.0" cy="90000.0" fill="none" r="380.25000000000006" /><circle cx="90000.0" cy="90000.0" fill="none" r="440.99999999999994" /><circle cx="90000.0" cy="90000.0" fill="none" r="506.25000000000006" /><circle cx="90000.0" cy="90000.0" fill="none" r="576.0" /><circle cx="90000.0" cy="90000.0" fill="none" r="650.25" /><circle cx="90000.0" cy="90000.0" fill="none" r="729.0000000000001" /><circle cx="90000.0" cy="90000.0" fill="none" r="812.2499999999999" /><circle cx="90000.0" cy="90000.0" fill="none" r="900.0" /><circle cx="90000.0" cy="90000.0" fill="none" r="992.2500000000001" /><circle cx="90000.0" cy="90000.0" fill="none" r="1089.0" /><circle cx="90000.0" cy="90000.0" fill="none" r="1190.2499999999998" /><circle cx="90000.0" cy="90000.0" fill="none" r="1296.0" /><circle cx="90000.0" cy="90000.0" fill="none" r="1406.25" /><circle cx="90000.0" cy="90000.0" fill="none" r="1521.0000000000002" /><circle cx="90000.0" cy="90000.0" fill="none" r="1640.2500000000002" /><circle cx="90000.0" cy="90000.0" fill="none" r="1763.9999999999998" /><circle cx="90000.0" cy="90000.0" fill="none" r="1892.25" /><circle cx="90000.0" cy="90000.0" fill="none" r="2025.0000000000002" /><circle cx="90000.0" cy="90000.0" fill="none" r="2162.2500000000005" /><circle cx="90000.0" cy="90000.0" fill="none" r="2304.0" /><circle cx="90000.0" cy="90000.0" fill="none" r="2450.25" /><circle cx="90000.0" cy="90000.0" fill="none" r="2601.0" /><circle cx="90000.0" cy="90000.0" fill="none" r="2756.25" /><circle cx="90000.0" cy="90000.0" fill="none" r="2916.0000000000005" /><circle cx="90000.0" cy="90000.0" fill="none" r="3080.2500000000005" /><circle cx="90000.0" cy="90000.0" fill="none" r="3248.9999999999995" /><circle cx="90000.0" cy="90000.0" fill="none" r="3422.2499999999995" /><circle cx="90000.0" cy="90000.0" fill="none" r="3600.0" /><circle cx="90000.0" cy="90000.0" fill="none" r="3782.25" /><circle cx="90000.0" cy="90000.0" fill="none" r="3969.0000000000005" /><circle cx="90000.0" cy="90000.0" fill="none" r="4160.25" /><circle cx="90000.0" cy="90000.0" fill="none" r="4356.0" /><circle cx="90000.0" cy="90000.0" fill="none" r="4556.250000000001" /><circle cx="90000.0" cy="90000.0" fill="none" r="4760.999999999999" /><circle cx="90000.0" cy="90000.0" fill="none" r="4970.249999999999" /><circle cx="90000.0" cy="90000.0" fill="none" r="5184.0" /><circle cx="90000.0" cy="90000.0" fill="none" r="5402.25" /><circle cx="90000.0" cy="90000.0" fill="none" r="5625.0" /><circle cx="90000.0" cy="90000.0" fill="none" r="5852.25" /><circle cx="90000.0" cy="90000.0" fill="none" r="6084.000000000001" /><circle cx="90000.0" cy="90000.0" fill="none" r="6320.250000000001" /><circle cx="90000.0" cy="90000.0" fill="none" r="6561.000000000001" /><circle cx="90000.0" cy="90000.0" fill="none" r="6806.249999999999" /><circle cx="90000.0" cy="90000.0" fill="none" r="7055.999999999999" /><circle cx="90000.0" cy="90000.0" fill="none" r="7310.249999999999" /><circle cx="90000.0" cy="90000.0" fill="none" r="7569.0" /><circle cx="90000.0" cy="90000.0" fill="none" r="7832.250000000001" /><circle cx="90000.0" cy="90000.0" fill="none" r="8100.000000000001" /><circle cx="90000.0" cy="90000.0" fill="none" r="8372.250000000002" /><circle cx="90000.0" cy="90000.0" fill="none" r="8649.000000000002" /><circle cx="90000.0" cy="90000.0" fill="none" r="8930.25" /><circle cx="90000.0" cy="90000.0" fill="none" r="9216.0" /><circle cx="90000.0" cy="90000.0" fill="none" r="9506.25" /><circle cx="90000.0" cy="90000.0" fill="none" r="9801.0" /><circle cx="90000.0" cy="90000.0" fill="none" r="10100.249999999998" /><circle cx="90000.0" cy="90000.0" fill="none" r="10404.0" /><circle cx="90000.0" cy="90000.0" fill="none" r="10712.249999999998" /><circle cx="90000.0" cy="90000.0" fill="none" r="11025.0" /><circle cx="90000.0" cy="90000.0" fill="none" r="11342.249999999998" /><circle cx="90000.0" cy="90000.0" fill="none" r="11664.000000000002" /><circle cx="90000.0" cy="90000.0" fill="none" r="11990.25" /><circle cx="90000.0" cy="90000.0" fill="none" r="12321.000000000002" /><circle cx="90000.0" cy="90000.0" fill="none" r="12656.25" /><circle cx="90000.0" cy="90000.0" fill="none" r="12995.999999999998" /><circle cx="90000.0" cy="90000.0" fill="none" r="13340.25" /><circle cx="90000.0" cy="90000.0" fill="none" r="13688.999999999998" /><circle cx="90000.0" cy="90000.0" fill="none" r="14042.25" /><circle cx="90000.0" cy="90000.0" fill="none" r="14400.0" /><circle cx="90000.0" cy="90000.0" fill="none" r="14762.250000000002" /><circle cx="90000.0" cy="90000.0" fill="none" r="15129.0" /><circle cx="90000.0" cy="90000.0" fill="none" r="15500.250000000002" /><circle cx="90000.0" cy="90000.0" fill="none" r="15876.000000000002" /><circle cx="90000.0" cy="90000.0" fill="none" r="16256.249999999998" /><circle cx="90000.0" cy="90000.0" fill="none" r="16641.0" /><circle cx="90000.0" cy="90000.0" fill="none" r="17030.249999999996" /><circle cx="90000.0" cy="90000.0" fill="none" r="17424.0" /><circle cx="90000.0" cy="90000.0" fill="none" r="17822.25" /><circle cx="90000.0" cy="90000.0" fill="none" r="18225.000000000004" /><circle cx="90000.0" cy="90000.0" fill="none" r="18632.25" /><circle cx="90000.0" cy="90000.0" fill="none" r="19043.999999999996" /><circle cx="90000.0" cy="90000.0" fill="none" r="19460.25" /><circle cx="90000.0" cy="90000.0" fill="none" r="19880.999999999996" /><circle cx="90000.0" cy="90000.0" fill="none" r="20306.25" /><circle cx="90000.0" cy="90000.0" fill="none" r="20736.0" /><circle cx="90000.0" cy="90000.0" fill="none" r="21170.250000000004" /><circle cx="90000.0" cy="90000.0" fill="none" r="21609.0" /><circle cx="90000.0" cy="90000.0" fill="none" r="22052.250000000004" /><circle cx="90000.0" cy="90000.0" fill="none" r="22500.0" /><circle cx="90000.0" cy="90000.0" fill="none" r="22952.25" /><circle cx="90000.0" cy="90000.0" fill="none" r="23409.0" /><circle cx="90000.0" cy="90000.0" fill="none" r="23870.25" /><circle cx="90000.0" cy="90000.0" fill="none" r="24336.000000000004" /><circle cx="90000.0" cy="90000.0" fill="none" r="24806.25" /><circle cx="90000.0" cy="90000.0" fill="none" r="25281.000000000004" /><circle cx="90000.0" cy="90000.0" fill="none" r="25760.25" /><circle cx="90000.0" cy="90000.0" fill="none" r="26244.000000000004" /><circle cx="90000.0" cy="90000.0" fill="none" r="26732.25" /><circle cx="90000.0" cy="90000.0" fill="none" r="27224.999999999996" /><circle cx="90000.0" cy="90000.0" fill="none" r="27722.25" /><circle cx="90000.0" cy="90000.0" fill="none" r="28223.999999999996" /><circle cx="90000.0" cy="90000.0" fill="none" r="28730.25" /><circle cx="90000.0" cy="90000.0" fill="none" r="29240.999999999996" /><circle cx="90000.0" cy="90000.0" fill="none" r="29756.250000000004" /><circle cx="90000.0" cy="90000.0" fill="none" r="30276.0" /><circle cx="90000.0" cy="90000.0" fill="none" r="30800.249999999996" /><circle cx="90000.0" cy="90000.0" fill="none" r="31329.000000000004" /><circle cx="90000.0" cy="90000.0" fill="none" r="31862.25" /><circle cx="90000.0" cy="90000.0" fill="none" r="32400.000000000004" /><circle cx="90000.0" cy="90000.0" fill="none" r="32942.25" /><circle cx="90000.0" cy="90000.0" fill="none" r="33489.00000000001" /><circle cx="90000.0" cy="90000.0" fill="none" r="34040.25" /><circle cx="90000.0" cy="90000.0" fill="none" r="34596.00000000001" /><circle cx="90000.0" cy="90000.0" fill="none" r="35156.25" /><circle cx="90000.0" cy="90000.0" fill="none" r="35721.0" /><circle cx="90000.0" cy="90000.0" fill="none" r="36290.25" /><circle cx="90000.0" cy="90000.0" fill="none" r="36864.0" /><circle cx="90000.0" cy="90000.0" fill="none" r="37442.25" /><circle cx="90000.0" cy="90000.0" fill="none" r="38025.0" /><circle cx="90000.0" cy="90000.0" fill="none" r="38612.25" /><circle cx="90000.0" cy="90000.0" fill="none" r="39204.0" /><circle cx="90000.0" cy="90000.0" fill="none" r="39800.25000000001" /><circle cx="90000.0" cy="90000.0" fill="none" r="40400.99999999999" /><circle cx="90000.0" cy="90000.0" fill="none" r="41006.25" /><circle cx="90000.0" cy="90000.0" fill="none" r="41616.0" /><circle cx="90000.0" cy="90000.0" fill="none" r="42230.25000000001" /><circle cx="90000.0" cy="90000.0" fill="none" r="42848.99999999999" /><circle cx="90000.0" cy="90000.0" fill="none" r="43472.25" /><circle cx="90000.0" cy="90000.0" fill="none" r="44100.0" /><circle cx="90000.0" cy="90000.0" fill="none" r="44732.250000000015" /><circle cx="90000.0" cy="90000.0" fill="none" r="45368.99999999999" /><circle cx="90000.0" cy="90000.0" fill="none" r="46010.25" /><circle cx="90000.0" cy="90000.0" fill="none" r="46656.00000000001" /><circle cx="90000.0" cy="90000.0" fill="none" r="47306.24999999999" /><circle cx="90000.0" cy="90000.0" fill="none" r="47961.0" /><circle cx="90000.0" cy="90000.0" fill="none" r="48620.25" /><circle cx="90000.0" cy="90000.0" fill="none" r="49284.00000000001" /><circle cx="90000.0" cy="90000.0" fill="none" r="49952.24999999999" /><circle cx="90000.0" cy="90000.0" fill="none" r="50625.0" /><circle cx="90000.0" cy="90000.0" fill="none" r="51302.25" /><circle cx="90000.0" cy="90000.0" fill="none" r="51983.99999999999" /><circle cx="90000.0" cy="90000.0" fill="none" r="52670.24999999999" /><circle cx="90000.0" cy="90000.0" fill="none" r="53361.0" /><circle cx="90000.0" cy="90000.0" fill="none" r="54056.25000000001" /><circle cx="90000.0" cy="90000.0" fill="none" r="54755.99999999999" /><circle cx="90000.0" cy="90000.0" fill="none" r="55460.25" /><circle cx="90000.0" cy="90000.0" fill="none" r="56169.0" /><circle cx="90000.0" cy="90000.0" fill="none" r="56882.24999999999" /><circle cx="90000.0" cy="90000.0" fill="none" r="57600.0" /><circle cx="90000.0" cy="90000.0" fill="none" r="58322.25" /><circle cx="90000.0" cy="90000.0" fill="none" r="59049.00000000001" /><circle cx="90000.0" cy="90000.0" fill="none" r="59780.249999999985" /><circle cx="90000.0" cy="90000.0" fill="none" r="60516.0" /><circle cx="90000.0" cy="90000.0" fill="none" r="61256.25" /><circle cx="90000.0" cy="90000.0" fill="none" r="62001.00000000001" /><circle cx="90000.0" cy="90000.0" fill="none" r="62750.24999999999" /><circle cx="90000.0" cy="90000.0" fill="none" r="63504.00000000001" /><circle cx="90000.0" cy="90000.0" fill="none" r="64262.25000000001" /><circle cx="90000.0" cy="90000.0" fill="none" r="65024.99999999999" /><circle cx="90000.0" cy="90000.0" fill="none" r="65792.25" /><circle cx="90000.0" cy="90000.0" fill="none" r="66564.0" /><circle cx="90000.0" cy="90000.0" fill="none" r="67340.25000000001" /><circle cx="90000.0" cy="90000.0" fill="none" r="68120.99999999999" /><circle cx="90000.0" cy="90000.0" fill="none" r="68906.25" /><circle cx="90000.0" cy="90000.0" fill="none" r="69696.0" /><circle cx="90000.0" cy="90000.0" fill="none" r="70490.24999999999" /><circle cx="90000.0" cy="90000.0" fill="none" r="71289.0" /><circle cx="90000.0" cy="90000.0" fill="none" r="72092.25" /><circle cx="90000.0" cy="90000.0" fill="none" r="72900.00000000001" /><circle cx="90000.0" cy="90000.0" fill="none" r="73712.24999999999" /><circle cx="90000.0" cy="90000.0" fill="none" r="74529.0" /><circle cx="90000.0" cy="90000.0" fill="none" r="75350.25000000001" /><circle cx="90000.0" cy="90000.0" fill="none" r="76175.99999999999" /><circle cx="90000.0" cy="90000.0" fill="none" r="77006.25" /><circle cx="90000.0" cy="90000.0" fill="none" r="77841.0" /><circle cx="90000.0" cy="90000.0" fill="none" r="78680.25000000001" /><circle cx="90000.0" cy="90000.0" fill="none" r="79523.99999999999" /><circle cx="90000.0" cy="90000.0" fill="none" r="80372.25" /><circle cx="90000.0" cy="90000.0" fill="none" r="81225.0" /><circle cx="90000.0" cy="90000.0" fill="none" r="82082.25" /><circle cx="90000.0" cy="90000.0" fill="none" r="82944.0" /><circle cx="90000.0" cy="90000.0" fill="none" r="83810.25" /><circle cx="90000.0" cy="90000.0" fill="none" r="84681.00000000001" /><circle cx="90000.0" cy="90000.0" fill="none" r="85556.24999999999" /><circle cx="90000.0" cy="90000.0" fill="none" r="86436.0" /><circle cx="90000.0" cy="90000.0" fill="none" r="87320.25" /><circle cx="90000.0" cy="90000.0" fill="none" r="88209.00000000001" /><circle cx="90000.0" cy="90000.0" fill="none" r="89102.24999999999" /><circle cx="90000.0" cy="90000.0" fill="none" r="90000.0" /><circle cx="90000.0" cy="90000.0" fill="none" r="90902.25" /><circle cx="90000.0" cy="90000.0" fill="none" r="91809.0" /><circle cx="90000.0" cy="90000.0" fill="none" r="92720.25" /><circle cx="90000.0" cy="90000.0" fill="none" r="93636.0" /><circle cx="90000.0" cy="90000.0" fill="none" r="94556.25000000001" /><circle cx="90000.0" cy="90000.0" fill="none" r="95481.0" /><circle cx="90000.0" cy="90000.0" fill="none" r="96410.24999999999" /><circle cx="90000.0" cy="90000.0" fill="none" r="97344.00000000001" /><circle cx="90000.0" cy="90000.0" fill="none" r="98282.24999999999" /><circle cx="90000.0" cy="90000.0" fill="none" r="99225.0" /><circle cx="90000.0" cy="90000.0" fill="none" r="100172.25" /><circle cx="90000.0" cy="90000.0" fill="none" r="101124.00000000001" /><circle cx="90000.0" cy="90000.0" fill="none" r="102080.24999999999" /><circle cx="90000.0" cy="90000.0" fill="none" r="103041.0" /><circle cx="90000.0" cy="90000.0" fill="none" r="104006.25" /><circle cx="90000.0" cy="90000.0" fill="none" r="104976.00000000001" /><circle cx="90000.0" cy="90000.0" fill="none" r="105950.25" /><circle cx="90000.0" cy="90000.0" fill="none" r="106929.0" /><circle cx="90000.0" cy="90000.0" fill="none" r="107912.25000000001" /><circle cx="90000.0" cy="90000.0" fill="none" r="108899.99999999999" /><circle cx="90000.0" cy="90000.0" fill="none" r="109892.25" /><circle cx="90000.0" cy="90000.0" fill="none" r="110889.0" /><circle cx="90000.0" cy="90000.0" fill="none" r="111890.25000000001" /><circle cx="90000.0" cy="90000.0" fill="none" r="112895.99999999999" /><circle cx="90000.0" cy="90000.0" fill="none" r="113906.25" /><circle cx="90000.0" cy="90000.0" fill="none" r="114921.0" /><circle cx="90000.0" cy="90000.0" fill="none" r="115940.24999999999" /><circle cx="90000.0" cy="90000.0" fill="none" r="116963.99999999999" /><circle cx="90000.0" cy="90000.0" fill="none" r="117992.25" /><circle cx="90000.0" cy="90000.0" fill="none" r="119025.00000000001" /><circle cx="90000.0" cy="90000.0" fill="none" r="120062.24999999999" /><circle cx="90000.0" cy="90000.0" fill="none" r="121104.0" /><circle cx="90000.0" cy="90000.0" fill="none" r="122150.25" /><circle cx="90000.0" cy="90000.0" fill="none" r="123200.99999999999" /><circle cx="90000.0" cy="90000.0" fill="none" r="124256.25" /><circle cx="90000.0" cy="90000.0" fill="none" r="125316.00000000001" /><circle cx="90000.0" cy="90000.0" fill="none" r="126380.25000000001" /><circle cx="90000.0" cy="90000.0" fill="none" r="127449.0" /><circle cx="90000.0" cy="90000.0" fill="none" r="128522.24999999999" /><circle cx="90000.0" cy="90000.0" fill="none" r="129600.00000000001" /><circle cx="90000.0" cy="90000.0" fill="none" r="130682.25000000001" /><circle cx="90000.0" cy="90000.0" fill="none" r="131769.0" /><circle cx="90000.0" cy="90000.0" fill="none" r="132860.25" /><circle cx="90000.0" cy="90000.0" fill="none" r="133956.00000000003" /><circle cx="90000.0" cy="90000.0" fill="none" r="135056.24999999997" /><circle cx="90000.0" cy="90000.0" fill="none" r="136161.0" /><circle cx="90000.0" cy="90000.0" fill="none" r="137270.25" /><circle cx="90000.0" cy="90000.0" fill="none" r="138384.00000000003" /><circle cx="90000.0" cy="90000.0" fill="none" r="139502.25" /><circle cx="90000.0" cy="90000.0" fill="none" r="140625.0" /><circle cx="90000.0" cy="90000.0" fill="none" r="141752.25" /><circle cx="90000.0" cy="90000.0" fill="none" r="142884.0" /><circle cx="90000.0" cy="90000.0" fill="none" r="144020.25" /><circle cx="90000.0" cy="90000.0" fill="none" r="145161.0" /><circle cx="90000.0" cy="90000.0" fill="none" r="146306.25000000003" /><circle cx="90000.0" cy="90000.0" fill="none" r="147456.0" /><circle cx="90000.0" cy="90000.0" fill="none" r="148610.25" /><circle cx="90000.0" cy="90000.0" fill="none" r="149769.0" /><circle cx="90000.0" cy="90000.0" fill="none" r="150932.25" /><circle cx="90000.0" cy="90000.0" fill="none" r="152100.0" /><circle cx="90000.0" cy="90000.0" fill="none" r="153272.25" /><circle cx="90000.0" cy="90000.0" fill="none" r="154449.0" /><circle cx="90000.0" cy="90000.0" fill="none" r="155630.24999999997" /><circle cx="90000.0" cy="90000.0" fill="none" r="156816.0" /><circle cx="90000.0" cy="90000.0" fill="none" r="158006.25" /><circle cx="90000.0" cy="90000.0" fill="none" r="159201.00000000003" /><circle cx="90000.0" cy="90000.0" fill="none" r="160400.25" /><circle cx="90000.0" cy="90000.0" fill="none" r="161603.99999999997" /><circle cx="90000.0" cy="90000.0" fill="none" r="162812.25000000003" /><circle cx="90000.0" cy="90000.0" fill="none" r="164025.0" /><circle cx="90000.0" cy="90000.0" fill="none" r="165242.25000000006" /><circle cx="90000.0" cy="90000.0" fill="none" r="166464.0" /><circle cx="90000.0" cy="90000.0" fill="none" r="167690.25" /><circle cx="90000.0" cy="90000.0" fill="none" r="168921.00000000003" /><circle cx="90000.0" cy="90000.0" fill="none" r="170156.25" /><circle cx="90000.0" cy="90000.0" fill="none" r="171395.99999999997" /><circle cx="90000.0" cy="90000.0" fill="none" r="172640.25000000003" /><circle cx="90000.0" cy="90000.0" fill="none" r="173889.0" /><circle cx="90000.0" cy="90000.0" fill="none" r="175142.24999999997" /><circle cx="90000.0" cy="90000.0" fill="none" r="176400.0" /><circle cx="90000.0" cy="90000.0" fill="none" r="177662.25" /><circle cx="90000.0" cy="90000.0" fill="none" r="178929.00000000006" /><circle cx="90000.0" cy="90000.0" fill="none" r="180200.25" /><circle cx="90000.0" cy="90000.0" fill="none" r="181475.99999999997" /><circle cx="90000.0" cy="90000.0" fill="none" r="182756.25000000003" /><circle cx="90000.0" cy="90000.0" fill="none" r="184041.0" /><circle cx="90000.0" cy="90000.0" fill="none" r="185330.24999999997" /><circle cx="90000.0" cy="90000.0" fill="none" r="186624.00000000003" /><circle cx="90000.0" cy="90000.0" fill="none" r="187922.24999999997" /><circle cx="90000.0" cy="90000.0" fill="none" r="189224.99999999997" /><circle cx="90000.0" cy="90000.0" fill="none" r="190532.25" /><circle cx="90000.0" cy="90000.0" fill="none" r="191844.0" /><circle cx="90000.0" cy="90000.0" fill="none" r="193160.24999999997" /><circle cx="90000.0" cy="90000.0" fill="none" r="194481.0" /><circle cx="90000.0" cy="90000.0" fill="none" r="195806.24999999997" /><circle cx="90000.0" cy="90000.0" fill="none" r="197136.00000000003" /><circle cx="90000.0" cy="90000.0" fill="none" r="198470.25000000003" /><circle cx="90000.0" cy="90000.0" fill="none" r="199808.99999999997" /><circle cx="90000.0" cy="90000.0" fill="none" r="201152.25000000003" /><circle cx="90000.0" cy="90000.0" fill="none" r="202500.0" /><circle cx="90000.0" cy="90000.0" fill="none" r="203852.24999999997" /><circle cx="90000.0" cy="90000.0" fill="none" r="205209.0" /><circle cx="90000.0" cy="90000.0" fill="none" r="206570.25" /><circle cx="90000.0" cy="90000.0" fill="none" r="207935.99999999997" /><circle cx="90000.0" cy="90000.0" fill="none" r="209306.25000000003" /><circle cx="90000.0" cy="90000.0" fill="none" r="210680.99999999997" /><circle cx="90000.0" cy="90000.0" fill="none" r="212060.25000000003" /><circle cx="90000.0" cy="90000.0" fill="none" r="213444.0" /><circle cx="90000.0" cy="90000.0" fill="none" r="214832.24999999997" /><circle cx="90000.0" cy="90000.0" fill="none" r="216225.00000000003" /><circle cx="90000.0" cy="90000.0" fill="none" r="217622.25" /><circle cx="90000.0" cy="90000.0" fill="none" r="219023.99999999997" /><circle cx="90000.0" cy="90000.0" fill="none" r="220430.25000000003" /><circle cx="90000.0" cy="90000.0" fill="none" r="221841.0" /><circle cx="90000.0" cy="90000.0" fill="none" r="223256.24999999994" /><circle cx="90000.0" cy="90000.0" fill="none" r="224676.0" /><circle cx="90000.0" cy="90000.0" fill="none" r="226100.25" /><circle cx="90000.0" cy="90000.0" fill="none" r="227528.99999999997" /><circle cx="90000.0" cy="90000.0" fill="none" r="228962.25" /><circle cx="90000.0" cy="90000.0" fill="none" r="230400.0" /><circle cx="90000.0" cy="90000.0" fill="none" r="231842.25000000006" /><circle cx="90000.0" cy="90000.0" fill="none" r="233289.0" /><circle cx="90000.0" cy="90000.0" fill="none" r="234740.24999999997" /><circle cx="90000.0" cy="90000.0" fill="none" r="236196.00000000003" /><circle cx="90000.0" cy="90000.0" fill="none" r="237656.25" /><circle cx="90000.0" cy="90000.0" fill="none" r="239120.99999999994" /><circle cx="90000.0" cy="90000.0" fill="none" r="240590.25000000003" /><circle cx="90000.0" cy="90000.0" fill="none" r="242064.0" /><circle cx="90000.0" cy="90000.0" fill="none" r="243542.24999999997" /><circle cx="90000.0" cy="90000.0" fill="none" r="245025.0" /><circle cx="90000.0" cy="90000.0" fill="none" r="246512.25" /><circle cx="90000.0" cy="90000.0" fill="none" r="248004.00000000003" /><circle cx="90000.0" cy="90000.0" fill="none" r="249500.25" /><circle cx="90000.0" cy="90000.0" fill="none" r="251000.99999999997" /><circle cx="90000.0" cy="90000.0" fill="none" r="252506.25000000003" /><circle cx="90000.0" cy="90000.0" fill="none" r="254016.00000000003" /><circle cx="90000.0" cy="90000.0" fill="none" r="255530.24999999997" /><circle cx="90000.0" cy="90000.0" fill="none" r="257049.00000000003" /><circle cx="90000.0" cy="90000.0" fill="none" r="258572.25" /><circle cx="90000.0" cy="90000.0" fill="none" r="260099.99999999997" /><circle cx="90000.0" cy="90000.0" fill="none" r="261632.25" /><circle cx="90000.0" cy="90000.0" fill="none" r="263169.0" /><circle cx="90000.0" cy="90000.0" fill="none" r="264710.25" /><circle cx="90000.0" cy="90000.0" fill="none" r="266256.0" /><circle cx="90000.0" cy="90000.0" fill="none" r="267806.24999999994" /><circle cx="90000.0" cy="90000.0" fill="none" r="269361.00000000006" /><circle cx="90000.0" cy="90000.0" fill="none" r="270920.25" /><circle cx="90000.0" cy="90000.0" fill="none" r="272483.99999999994" /><circle cx="90000.0" cy="90000.0" fill="none" r="274052.25000000006" /><circle cx="90000.0" cy="90000.0" fill="none" r="275625.0" /><circle cx="90000.0" cy="90000.0" fill="none" r="277202.24999999994" /><circle cx="90000.0" cy="90000.0" fill="none" r="278784.0" /><circle cx="90000.0" cy="90000.0" fill="none" r="280370.25" /><circle cx="90000.0" cy="90000.0" fill="none" r="281960.99999999994" /><circle cx="90000.0" cy="90000.0" fill="none" r="283556.25000000006" /><circle cx="90000.0" cy="90000.0" fill="none" r="285156.0" /><circle cx="90000.0" cy="90000.0" fill="none" r="286760.25000000006" /><circle cx="90000.0" cy="90000.0" fill="none" r="288369.0" /><circle cx="90000.0" cy="90000.0" fill="none" r="289982.25" /><circle cx="90000.0" cy="90000.0" fill="none" r="291600.00000000006" /><circle cx="90000.0" cy="90000.0" fill="none" r="293222.25" /><circle cx="90000.0" cy="90000.0" fill="none" r="294848.99999999994" /><circle cx="90000.0" cy="90000.0" fill="none" r="296480.25000000006" /><circle cx="90000.0" cy="90000.0" fill="none" r="298116.0" /><circle cx="90000.0" cy="90000.0" fill="none" r="299756.25" /><circle cx="90000.0" cy="90000.0" fill="none" r="301401.00000000006" /><circle cx="90000.0" cy="90000.0" fill="none" r="303050.25" /><circle cx="90000.0" cy="90000.0" fill="none" r="304703.99999999994" /><circle cx="90000.0" cy="90000.0" fill="none" r="306362.25000000006" /><circle cx="90000.0" cy="90000.0" fill="none" r="308025.0" /><circle cx="90000.0" cy="90000.0" fill="none" r="309692.25000000006" /><circle cx="90000.0" cy="90000.0" fill="none" r="311364.0" /><circle cx="90000.0" cy="90000.0" fill="none" r="313040.24999999994" /><circle cx="90000.0" cy="90000.0" fill="none" r="314721.00000000006" /><circle cx="90000.0" cy="90000.0" fill="none" r="316406.25" /><circle cx="90000.0" cy="90000.0" fill="none" r="318095.99999999994" /><circle cx="90000.0" cy="90000.0" fill="none" r="319790.25000000006" /><circle cx="90000.0" cy="90000.0" fill="none" r="321489.0" /><circle cx="90000.0" cy="90000.0" fill="none" r="323192.24999999994" /><circle cx="90000.0" cy="90000.0" fill="none" r="324900.0" /><circle cx="90000.0" cy="90000.0" fill="none" r="326612.25" /><circle cx="90000.0" cy="90000.0" fill="none" r="328329.0" /><circle cx="90000.0" cy="90000.0" fill="none" r="330050.25000000006" /><circle cx="90000.0" cy="90000.0" fill="none" r="331776.0" /><circle cx="90000.0" cy="90000.0" fill="none" r="333506.25" /><circle cx="90000.0" cy="90000.0" fill="none" r="335241.0" /><circle cx="90000.0" cy="90000.0" fill="none" r="336980.24999999994" /><circle cx="90000.0" cy="90000.0" fill="none" r="338724.00000000006" /><circle cx="90000.0" cy="90000.0" fill="none" r="340472.25" /><circle cx="90000.0" cy="90000.0" fill="none" r="342224.99999999994" /><circle cx="90000.0" cy="90000.0" fill="none" r="343982.25000000006" /><circle cx="90000.0" cy="90000.0" fill="none" r="345744.0" /><circle cx="90000.0" cy="90000.0" fill="none" r="347510.25" /><circle cx="90000.0" cy="90000.0" fill="none" r="349281.0" /><circle cx="90000.0" cy="90000.0" fill="none" r="351056.24999999994" /><circle cx="90000.0" cy="90000.0" fill="none" r="352836.00000000006" /><circle cx="90000.0" cy="90000.0" fill="none" r="354620.25000000006" /><circle cx="90000.0" cy="90000.0" fill="none" r="356408.99999999994" /><circle cx="90000.0" cy="90000.0" fill="none" r="358202.25" /><circle cx="90000.0" cy="90000.0" fill="none" r="360000.0" /><circle cx="90000.0" cy="90000.0" fill="none" r="361802.24999999994" /><circle cx="90000.0" cy="90000.0" fill="none" r="363609.0" /><circle cx="90000.0" cy="90000.0" fill="none" r="365420.25" /><circle cx="90000.0" cy="90000.0" fill="none" r="367236.0" /><circle cx="90000.0" cy="90000.0" fill="none" r="369056.25" /><circle cx="90000.0" cy="90000.0" fill="none" r="370881.0" /><circle cx="90000.0" cy="90000.0" fill="none" r="372710.2500000001" /><circle cx="90000.0" cy="90000.0" fill="none" r="374544.0" /><circle cx="90000.0" cy="90000.0" fill="none" r="376382.25" /><circle cx="90000.0" cy="90000.0" fill="none" r="378225.00000000006" /><circle cx="90000.0" cy="90000.0" fill="none" r="380072.25" /><circle cx="90000.0" cy="90000.0" fill="none" r="381924.0" /><circle cx="90000.0" cy="90000.0" fill="none" r="383780.25" /><circle cx="90000.0" cy="90000.0" fill="none" r="385640.99999999994" /><circle cx="90000.0" cy="90000.0" fill="none" r="387506.24999999994" /><circle cx="90000.0" cy="90000.0" fill="none" r="389376.00000000006" /><circle cx="90000.0" cy="90000.0" fill="none" r="391250.25" /><circle cx="90000.0" cy="90000.0" fill="none" r="393128.99999999994" /><circle cx="90000.0" cy="90000.0" fill="none" r="395012.25000000006" /><circle cx="90000.0" cy="90000.0" fill="none" r="396900.0" /><circle cx="90000.0" cy="90000.0" fill="none" r="398792.25000000006" /><circle cx="90000.0" cy="90000.0" fill="none" r="400689.0" /><circle cx="90000.0" cy="90000.0" fill="none" r="402590.24999999994" /><circle cx="90000.0" cy="90000.0" fill="none" r="404496.00000000006" /><circle cx="90000.0" cy="90000.0" fill="none" r="406406.25" /><circle cx="90000.0" cy="90000.0" fill="none" r="408320.99999999994" /><circle cx="90000.0" cy="90000.0" fill="none" r="410240.25" /><circle cx="90000.0" cy="90000.0" fill="none" r="412164.0" /><circle cx="90000.0" cy="90000.0" fill="none" r="414092.24999999994" /><circle cx="90000.0" cy="90000.0" fill="none" r="416025.0" /><circle cx="90000.0" cy="90000.0" fill="none" r="417962.25" /><circle cx="90000.0" cy="90000.0" fill="none" r="419904.00000000006" /><circle cx="90000.0" cy="90000.0" fill="none" r="421850.25000000006" /><circle cx="90000.0" cy="90000.0" fill="none" r="423801.0" /><circle cx="90000.0" cy="90000.0" fill="none" r="425756.25" /><circle cx="90000.0" cy="90000.0" fill="none" r="427716.0" /><circle cx="90000.0" cy="90000.0" fill="none" r="429680.25" /><circle cx="90000.0" cy="90000.0" fill="none" r="431649.00000000006" /><circle cx="90000.0" cy="90000.0" fill="none" r="433622.25" /><circle cx="90000.0" cy="90000.0" fill="none" r="435599.99999999994" /><circle cx="90000.0" cy="90000.0" fill="none" r="437582.25000000006" /><circle cx="90000.0" cy="90000.0" fill="none" r="439569.0" /><circle cx="90000.0" cy="90000.0" fill="none" r="441560.24999999994" /><circle cx="90000.0" cy="90000.0" fill="none" r="443556.0" /><circle cx="90000.0" cy="90000.0" fill="none" r="445556.25" /><circle cx="90000.0" cy="90000.0" fill="none" r="447561.00000000006" /><circle cx="90000.0" cy="90000.0" fill="none" r="449570.25" /><circle cx="90000.0" cy="90000.0" fill="none" r="451583.99999999994" /><circle cx="90000.0" cy="90000.0" fill="none" r="453602.25000000006" /><circle cx="90000.0" cy="90000.0" fill="none" r="455625.0" /><circle cx="90000.0" cy="90000.0" fill="none" r="457652.24999999994" /><circle cx="90000.0" cy="90000.0" fill="none" r="459684.0" /><circle cx="90000.0" cy="90000.0" fill="none" r="461720.25" /><circle cx="90000.0" cy="90000.0" fill="none" r="463760.99999999994" /><circle cx="90000.0" cy="90000.0" fill="none" r="465806.25000000006" /><circle cx="90000.0" cy="90000.0" fill="none" r="467855.99999999994" /><circle cx="90000.0" cy="90000.0" fill="none" r="469910.25000000006" /><circle cx="90000.0" cy="90000.0" fill="none" r="471969.0" /><circle cx="90000.0" cy="90000.0" fill="none" r="474032.25" /><circle cx="90000.0" cy="90000.0" fill="none" r="476100.00000000006" /><circle cx="90000.0" cy="90000.0" fill="none" r="478172.25" /><circle cx="90000.0" cy="90000.0" fill="none" r="480248.99999999994" /><circle cx="90000.0" cy="90000.0" fill="none" r="482330.25000000006" /><circle cx="90000.0" cy="90000.0" fill="none" r="484416.0" /><circle cx="90000.0" cy="90000.0" fill="none" r="486506.25" /><circle cx="90000.0" cy="90000.0" fill="none" r="488601.0" /><circle cx="90000.0" cy="90000.0" fill="none" r="490700.25" /><circle cx="90000.0" cy="90000.0" fill="none" r="492803.99999999994" /><circle cx="90000.0" cy="90000.0" fill="none" r="494912.25" /><circle cx="90000.0" cy="90000.0" fill="none" r="497025.0" /><circle cx="90000.0" cy="90000.0" fill="none" r="499142.2500000001" /><circle cx="90000.0" cy="90000.0" fill="none" r="501264.00000000006" /><circle cx="90000.0" cy="90000.0" fill="none" r="503390.25" /><circle cx="90000.0" cy="90000.0" fill="none" r="505521.00000000006" /><circle cx="90000.0" cy="90000.0" fill="none" r="507656.25" /><circle cx="90000.0" cy="90000.0" fill="none" r="509796.0" /><circle cx="90000.0" cy="90000.0" fill="none" r="511940.25000000006" /><circle cx="90000.0" cy="90000.0" fill="none" r="514088.99999999994" /><circle cx="90000.0" cy="90000.0" fill="none" r="516242.24999999994" /><circle cx="90000.0" cy="90000.0" fill="none" r="518400.00000000006" /><circle cx="90000.0" cy="90000.0" fill="none" r="520562.25" /><circle cx="90000.0" cy="90000.0" fill="none" r="522729.00000000006" /><circle cx="90000.0" cy="90000.0" fill="none" r="524900.25" /><circle cx="90000.0" cy="90000.0" fill="none" r="527076.0" /><circle cx="90000.0" cy="90000.0" fill="none" r="529256.25" /><circle cx="90000.0" cy="90000.0" fill="none" r="531441.0" /><circle cx="90000.0" cy="90000.0" fill="none" r="533630.2499999999" /><circle cx="90000.0" cy="90000.0" fill="none" r="535824.0000000001" /><circle cx="90000.0" cy="90000.0" fill="none" r="538022.25" /><circle cx="90000.0" cy="90000.0" fill="none" r="540224.9999999999" /><circle cx="90000.0" cy="90000.0" fill="none" r="542432.25" /><circle cx="90000.0" cy="90000.0" fill="none" r="544644.0" /><circle cx="90000.0" cy="90000.0" fill="none" r="546860.2499999999" /><circle cx="90000.0" cy="90000.0" fill="none" r="549081.0" /><circle cx="90000.0" cy="90000.0" fill="none" r="551306.25" /><circle cx="90000.0" cy="90000.0" fill="none" r="553536.0000000001" /><circle cx="90000.0" cy="90000.0" fill="none" r="555770.25" /><circle cx="90000.0" cy="90000.0" fill="none" r="558009.0" /><circle cx="90000.0" cy="90000.0" fill="none" r="560252.2500000001" /><circle cx="90000.0" cy="90000.0" fill="none" r="562500.0" /><circle cx="90000.0" cy="90000.0" fill="none" r="564752.25" /><circle cx="90000.0" cy="90000.0" fill="none" r="567009.0" /><circle cx="90000.0" cy="90000.0" fill="none" r="569270.25" /><circle cx="90000.0" cy="90000.0" fill="none" r="571536.0" /><circle cx="90000.0" cy="90000.0" fill="none" r="573806.25" /><circle cx="90000.0" cy="90000.0" fill="none" r="576081.0" /><circle cx="90000.0" cy="90000.0" fill="none" r="578360.2500000001" /><circle cx="90000.0" cy="90000.0" fill="none" r="580644.0" /><circle cx="90000.0" cy="90000.0" fill="none" r="582932.25" /><circle cx="90000.0" cy="90000.0" fill="none" r="585225.0000000001" /><circle cx="90000.0" cy="90000.0" fill="none" r="587522.25" /><circle cx="90000.0" cy="90000.0" fill="none" r="589824.0" /><circle cx="90000.0" cy="90000.0" fill="none" r="592130.25" /><circle cx="90000.0" cy="90000.0" fill="none" r="594441.0" /><circle cx="90000.0" cy="90000.0" fill="none" r="596756.25" /><circle cx="90000.0" cy="90000.0" fill="none" r="599076.0" /><circle cx="90000.0" cy="90000.0" fill="none" r="601400.25" /><circle cx="90000.0" cy="90000.0" fill="none" r="603729.0" /><circle cx="90000.0" cy="90000.0" fill="none" r="606062.25" /><circle cx="90000.0" cy="90000.0" fill="none" r="608400.0" /><circle cx="90000.0" cy="90000.0" fill="none" r="610742.25" /><circle cx="90000.0" cy="90000.0" fill="none" r="613089.0" /><circle cx="90000.0" cy="90000.0" fill="none" r="615440.25" /><circle cx="90000.0" cy="90000.0" fill="none" r="617796.0" /><circle cx="90000.0" cy="90000.0" fill="none" r="620156.25" /><circle cx="90000.0" cy="90000.0" fill="none" r="622520.9999999999" /><circle cx="90000.0" cy="90000.0" fill="none" r="624890.25" /><circle cx="90000.0" cy="90000.0" fill="none" r="627264.0" /><circle cx="90000.0" cy="90000.0" fill="none" r="629642.2499999999" /><circle cx="90000.0" cy="90000.0" fill="none" r="632025.0" /><circle cx="90000.0" cy="90000.0" fill="none" r="634412.25" /><circle cx="90000.0" cy="90000.0" fill="none" r="636804.0000000001" /><circle cx="90000.0" cy="90000.0" fill="none" r="639200.25" /><circle cx="90000.0" cy="90000.0" fill="none" r="641601.0" /><circle cx="90000.0" cy="90000.0" fill="none" r="644006.25" /><circle cx="90000.0" cy="90000.0" fill="none" r="646415.9999999999" /><circle cx="90000.0" cy="90000.0" fill="none" r="648830.2499999999" /><circle cx="90000.0" cy="90000.0" fill="none" r="651249.0000000001" /><circle cx="90000.0" cy="90000.0" fill="none" r="653672.2500000002" /><circle cx="90000.0" cy="90000.0" fill="none" r="656100.0" /><circle cx="90000.0" cy="90000.0" fill="none" r="658532.2500000001" /><circle cx="90000.0" cy="90000.0" fill="none" r="660969.0000000002" /><circle cx="90000.0" cy="90000.0" fill="none" r="663410.2499999999" /><circle cx="90000.0" cy="90000.0" fill="none" r="665856.0" /><circle cx="90000.0" cy="90000.0" fill="none" r="668306.2500000001" /><circle cx="90000.0" cy="90000.0" fill="none" r="670761.0" /><circle cx="90000.0" cy="90000.0" fill="none" r="673220.25" /><circle cx="90000.0" cy="90000.0" fill="none" r="675684.0000000001" /><circle cx="90000.0" cy="90000.0" fill="none" r="678152.2499999999" /><circle cx="90000.0" cy="90000.0" fill="none" r="680625.0" /><circle cx="90000.0" cy="90000.0" fill="none" r="683102.25" /><circle cx="90000.0" cy="90000.0" fill="none" r="685583.9999999999" /><circle cx="90000.0" cy="90000.0" fill="none" r="688070.25" /><circle cx="90000.0" cy="90000.0" fill="none" r="690561.0000000001" /><circle cx="90000.0" cy="90000.0" fill="none" r="693056.2499999999" /><circle cx="90000.0" cy="90000.0" fill="none" r="695556.0" /><circle cx="90000.0" cy="90000.0" fill="none" r="698060.25" /><circle cx="90000.0" cy="90000.0" fill="none" r="700568.9999999999" /><circle cx="90000.0" cy="90000.0" fill="none" r="703082.2499999999" /><circle cx="90000.0" cy="90000.0" fill="none" r="705600.0" /><circle cx="90000.0" cy="90000.0" fill="none" r="708122.2499999999" /><circle cx="90000.0" cy="90000.0" fill="none" r="710649.0" /><circle cx="90000.0" cy="90000.0" fill="none" r="713180.25" /><circle cx="90000.0" cy="90000.0" fill="none" r="715716.0000000002" /><circle cx="90000.0" cy="90000.0" fill="none" r="718256.2499999999" /><circle cx="90000.0" cy="90000.0" fill="none" r="720801.0" /><circle cx="90000.0" cy="90000.0" fill="none" r="723350.2500000001" /><circle cx="90000.0" cy="90000.0" fill="none" r="725903.9999999999" /><circle cx="90000.0" cy="90000.0" fill="none" r="728462.25" /><circle cx="90000.0" cy="90000.0" fill="none" r="731025.0000000001" /><circle cx="90000.0" cy="90000.0" fill="none" r="733592.25" /><circle cx="90000.0" cy="90000.0" fill="none" r="736164.0" /><circle cx="90000.0" cy="90000.0" fill="none" r="738740.2500000001" /><circle cx="90000.0" cy="90000.0" fill="none" r="741320.9999999999" /><circle cx="90000.0" cy="90000.0" fill="none" r="743906.25" /><circle cx="90000.0" cy="90000.0" fill="none" r="746496.0000000001" /><circle cx="90000.0" cy="90000.0" fill="none" r="749090.2499999999" /><circle cx="90000.0" cy="90000.0" fill="none" r="751688.9999999999" /><circle cx="90000.0" cy="90000.0" fill="none" r="754292.25" /><circle cx="90000.0" cy="90000.0" fill="none" r="756899.9999999999" /><circle cx="90000.0" cy="90000.0" fill="none" r="759512.2499999999" /><circle cx="90000.0" cy="90000.0" fill="none" r="762129.0" /><circle cx="90000.0" cy="90000.0" fill="none" r="764750.2499999999" /><circle cx="90000.0" cy="90000.0" fill="none" r="767376.0" /><circle cx="90000.0" cy="90000.0" fill="none" r="770006.25" /><circle cx="90000.0" cy="90000.0" fill="none" r="772640.9999999999" /><circle cx="90000.0" cy="90000.0" fill="none" r="775280.25" /><circle cx="90000.0" cy="90000.0" fill="none" r="777924.0" /><circle cx="90000.0" cy="90000.0" fill="none" r="780572.2500000001" /><circle cx="90000.0" cy="90000.0" fill="none" r="783224.9999999999" /><circle cx="90000.0" cy="90000.0" fill="none" r="785882.2500000001" /><circle cx="90000.0" cy="90000.0" fill="none" r="788544.0000000001" /><circle cx="90000.0" cy="90000.0" fill="none" r="791210.2499999999" /><circle cx="90000.0" cy="90000.0" fill="none" r="793881.0000000001" /><circle cx="90000.0" cy="90000.0" fill="none" r="796556.2500000001" /><circle cx="90000.0" cy="90000.0" fill="none" r="799235.9999999999" /><circle cx="90000.0" cy="90000.0" fill="none" r="801920.25" /><circle cx="90000.0" cy="90000.0" fill="none" r="804609.0000000001" /><circle cx="90000.0" cy="90000.0" fill="none" r="807302.2499999999" /></g></svg>