<?xml version="1.0" encoding="UTF-8"?>
<svg width="1201.9" height="1334.4" version="1.1" xmlns="http://www.w3.org/2000/svg" xmlns:xlink="http://www.w3.org/1999/xlink">
 <g fill="none" stroke="#01fdc7" stroke-linecap="round" stroke-linejoin="round" stroke-width="30">
    <path d="m404.45 1160c-6.4095-8.7225-29.79-14.417-49.269-21.492-19.479-7.0746-35.046-15.526-42.733-11.49-7.687 4.0356-7.4899 20.558-3.8047 32.325s10.857 18.777 24.954 23.463c14.097 4.6865 35.111 7.0484 50.904 2.3558 15.792-4.6925 26.358-16.44 19.949-25.163z"/>
    <path transform="translate(-646.19 1402.3)" d="m1146-1009c-39.969-8.8372-81.429-14.061-121.96-13.446-96.111 1.4579-187.01 35.738-246.62 68.353-59.609 32.616-97.342 72.986-125.65 103.93"/>
    <path d="m589.16 1207.2c-64.12-47.465-128.24-94.93-198.74-127.96-70.505-33.032-147.39-51.629-224.28-70.226"/>
    <path d="m404.45 1160c-6.4094-8.7226-22.734-16.608-39.895-25.876s-35.156-19.918-46.789-15.706-16.903 23.285-13.084 36.984c3.8189 13.7 16.726 22.027 34.768 26.537 18.042 4.5106 41.219 5.2045 54.561 0.7729 13.342-4.4316 16.848-13.99 10.439-22.712z"/>
    <path d="m624.2 546.55c53.778-26.104 107.56-52.208 162.12-73.799 54.565-21.59 109.91-38.666 165.07-46.517 55.154-7.8512 110.11-6.4773 153.29-28.558 43.181-22.081 74.583-67.614 79-102.16s-18.154-58.098-55.742-68.894c-37.588-10.795-90.188-8.8324-148.91 12.707-58.719 21.54-122.64 62.074-175.63 104.47-52.994 42.396-94.604 86.36-122.57 120.41-27.969 34.054-42.297 58.195-56.624 82.336"/>
    <path d="m664.83 1128.9c-31.916 37.72-63.831 75.437-112.8 98.535-48.972 23.098-114.99 31.575-174.41 25.866-59.413-5.7091-112.21-25.604-150.78-48.898-38.568-23.294-62.905-49.987-77.651-67.995-14.745-18.008-19.897-27.331-25.05-36.654"/>
    <path d="m207.9 1195.7c-16.586 21.002-33.171 42.004-49.756 63.004"/>
    <path d="m312.42 1241.1c-20.955 26.705-41.908 53.409-62.861 80.111"/>
    <path d="m725.63 686.15c-6.6047 10.777-8.84 23.723-7.1149 35.942 1.7252 12.219 13.966 14.99 23.203 22.859 9.2372 7.8684 13.722 19.344 24.104 17.438 10.382-1.9061 20.105-8.4736 26.71-19.251 13.209-21.554 8.9413-51.784-9.5331-67.521-18.474-15.737-44.159-11.021-57.368 10.533z"/>
    <path d="m388.11 534.72c-2.722 13.191-10.039 24.932-19.669 33.25-9.6298 8.3182-15.549-0.86105-27.522-1.359-11.973-0.49797-27.732 7.7796-33.794-1.1912-6.0622-8.9709-8.4508-21.115-5.7288-34.306 5.4439-26.382 29.269-46.962 53.214-45.966 23.945 0.99591 38.944 23.19 33.5 49.573z" />
    <path d="m581.22 535.83c-2.3473-54.674-4.6947-109.35 4.263-158.48 8.9577-49.127 29.22-92.705 59.198-135.31 29.978-42.608 69.67-84.243 83.107-123.44 13.436-39.193 0.61545-75.939-30.075-88.794s-79.244-1.8143-112.8 24.157c-33.56 25.971-52.123 66.868-68.067 110.63-15.944 43.766-29.267 90.397-29.484 140.68-0.21732 50.279 12.671 104.2 30.396 143.13s40.699 63.283 63.466 87.425"/>
    <path d="m766.11 1330.6c-22.572-18.843-45.143-37.685-59.766-57.263-14.622-19.578-21.296-39.892-27.969-60.207m-47.695-41.218c35.035 29.048 70.069 58.097 119.92 70.757 49.854 12.66 114.53 8.931 155.89-0.6862s59.422-25.123 77.48-40.629m-141.32-132.49c17.665 25.908 35.33 51.817 58.883 73.898 23.553 22.081 52.994 40.334 82.435 58.588"/>
    <path d="m683.61 461.24c-10.685-5.7253-21.998-11.394-34.017-16.981-21.111-9.8117-44.402-19.367-69.134-27.987"/>
    <path d="m991.63 594.83c-27.48 17.862-54.783 35.609-83.819 28.794-29.036-6.8151-59.069-38.018-97.835-72.574-20.844-18.58-44.157-38.071-72.808-57.491"/>
    <path d="m991.63 594.83c0.88326 37.489 1.7665 74.978-7.3119 102.01-9.0784 27.037-28.117 43.622-47.154 60.206"/>
    <path d="m902.12 1061.8c23.944-17.86 47.89-35.721 64.469-61.842 16.579-26.121 25.791-60.499 27.263-95.928 1.4722-35.428-4.7956-71.903-15.645-96.662-10.85-24.759-26.281-37.801-41.712-50.843"/>
    <path d="m417.41 767.64c-29.847-11.276-64.331-11.645-99.795 1.0912-35.526 12.759-72.032 38.666-96.861 64.182s-37.979 50.639-45.928 78.314-10.697 57.901-9.7 82.1c0.99667 24.2 5.6769 42.141 16.619 53.181 10.942 11.04 28.116 15.064 45.29 19.087"/>
    <path d="m664.94 1147.6c43.162-11.103 86.324-22.206 119.36-38.791 33.032-16.585 55.931-38.652 73.21-60.927 17.279-22.276 28.937-44.758 40.596-67.243"/>
    <path d="m664.94 1147.6c5.2737-35.39 10.548-70.78 12.363-110.59 1.815-39.809 0.17212-84.005-17.118-129.28-9.576-25.075-23.938-50.443-40.849-73.056"/>
    <path d="m2.1071 1065.9c33.66 10.991 67.321 21.982 90.58 27.478 23.259 5.4959 36.114 5.4959 53.239 3.337 17.125-2.159 38.519-6.4769 52.749-12.021 14.23-5.5444 21.296-12.316 28.363-19.088"/>
    <path d="m898.1 980.69c3.7474 14.157 7.4947 28.313 8.1648 41.827 0.67011 13.514-1.7364 26.384-4.1428 39.254"/>
    <path d="m111.92 1099.5c-0.39255 28.657-0.78508 57.313 7.8513 86.558 8.6364 29.245 26.301 59.078 41.119 79.441s26.791 31.256 38.764 42.15"/>
    <path d="m242.67 1329.7-7.169-3.6777c-7.169-3.6777-21.505-11.032-35.84-18.386"/>
    <path d="m571.67 551c2.0025 46.996 4.0049 93.991 0.19709 131.13-3.8078 37.139-13.425 64.421-26.968 100.04-13.543 35.624-31.011 79.589-53.878 121.69-22.866 42.101-51.129 82.337-79.392 122.57m244.95-297.94c-29.638-19.824-59.275-39.648-100.98-49.756-41.709-10.108-95.487-10.501-149.27-10.893"/>
    <path d="m656.58 728.5c-8.44 39.649-16.88 79.296-49.364 124.73-32.484 45.438-89.01 96.665-125.62 126.5-36.605 29.834-53.288 38.273-69.971 46.712 4.7105-69.873 9.4211-139.75 8.5379-199.51-0.88321-59.766-7.3601-109.42-13.837-159.08 30.618-19.234 61.236-38.469 89.119-58.205 27.882-19.736 51.726-38.924 76.222-58.638 22.219 33.06 44.438 66.119 58.589 95.701s20.236 55.686 26.32 81.79"/>
    <path d="m232.75 959.38c11.605-23.018 23.211-46.036 36.373-58.668 13.163-12.632 27.88-14.876 40.604-12.762 12.724 2.1141 23.452 8.5855 29.369 19.82 5.917 11.234 7.0234 27.23 6.8736 42.014-0.14985 14.784-1.5559 28.354-2.9618 41.924"/>
    <path d="m493.59 1048.6c20.122-16.113 40.243-32.226 57.465-38.246s31.541-1.9439 42.236 5.2668c10.694 7.2108 17.763 17.555 18.476 30.232s-4.9281 27.686-11.208 41.07c-6.2802 13.384-13.199 25.143-20.117 36.901"/>
 </g>
</svg>
