<?xml version="1.0" encoding="UTF-8"?>
<svg width="1201.9" height="1334.4" version="1.1" xmlns="http://www.w3.org/2000/svg" xmlns:xlink="http://www.w3.org/1999/xlink">
 <path d="m589.16 1207.2c-64.12-47.465-128.24-94.93-198.74-127.96-70.505-33.032-147.39-51.629-224.28-70.226" fill="none" stroke="#01fdc7" stroke-linecap="round" stroke-linejoin="round" stroke-width="30"/>
 <path d="m203.81 910.19a63.859 96.608 19.958 0 0 48.009 93.386 63.859 96.608 19.958 0 0 84.117-93.386 63.859 96.608 19.958 0 0-48.009-93.386 63.859 96.608 19.958 0 0-84.117 93.386z" fill="none" stroke="#01fdc7" stroke-linecap="round" stroke-linejoin="round" stroke-width="30"/>
 <g fill="none">
  <g stroke="#01fdc7" stroke-linecap="round" stroke-linejoin="round" stroke-width="30">
   <path d="m624.2 546.55c53.778-26.104 107.56-52.208 162.12-73.799 54.565-21.59 109.91-38.666 165.07-46.517 55.154-7.8512 110.11-6.4773 153.29-28.558 43.181-22.081 74.583-67.614 79-102.16s-18.154-58.098-55.742-68.894c-37.588-10.795-90.188-8.8324-148.91 12.707-58.719 21.54-122.64 62.074-175.63 104.47-52.994 42.396-94.604 86.36-122.57 120.41-27.969 34.054-42.297 58.195-56.624 82.336"/>
   <path d="m505.76 1042a59.09 94.042 18.521 0 0 43.289 91.125 59.09 94.042 18.521 0 0 78.673-91.125 59.09 94.042 18.521 0 0-43.289-91.125 59.09 94.042 18.521 0 0-78.673 91.125z"/>
   <path d="m664.83 1128.9c-31.916 37.72-63.831 75.437-112.8 98.535-48.972 23.098-114.99 31.575-174.41 25.866-59.413-5.7091-112.21-25.604-150.78-48.898-38.568-23.294-62.905-49.987-77.651-67.995-14.745-18.008-19.897-27.331-25.05-36.654"/>
   <path d="m207.9 1195.7c-16.586 21.002-33.171 42.004-49.756 63.004"/>
   <path d="m312.42 1241.1c-20.955 26.705-41.908 53.409-62.861 80.111"/>
  </g>
 </g>
 <path d="m404.45 1160c-6.4095-8.7225-29.79-14.417-49.269-21.492-19.479-7.0746-35.046-15.526-42.733-11.49-7.687 4.0356-7.4899 20.558-3.8047 32.325s10.857 18.777 24.954 23.463c14.097 4.6865 35.111 7.0484 50.904 2.3558 15.792-4.6925 26.358-16.44 19.949-25.163z" fill="#01fdc7"/>
 <g fill="none" stroke="#01fdc7" stroke-linecap="round" stroke-linejoin="round">
  <ellipse transform="scale(-1,1)" cx="-748.67" cy="723.07" rx="36.507" ry="55.938" stroke-width="30"/>
  <ellipse transform="matrix(-.86734 -.49772 -.48604 .87394 0 0)" cx="-547.4" cy="285.48" rx="43.66" ry="51.433" stroke-width="30.001"/>
  <path d="m581.22 535.83c-2.3473-54.674-4.6947-109.35 4.263-158.48 8.9577-49.127 29.22-92.705 59.198-135.31 29.978-42.608 69.67-84.243 83.107-123.44 13.436-39.193 0.61545-75.939-30.075-88.794s-79.244-1.8143-112.8 24.157c-33.56 25.971-52.123 66.868-68.067 110.63-15.944 43.766-29.267 90.397-29.484 140.68-0.21732 50.279 12.671 104.2 30.396 143.13s40.699 63.283 63.466 87.425" stroke-width="30"/>
 </g>
 <g fill="none" stroke="#01fdc7" stroke-linecap="round" stroke-linejoin="round" stroke-width="30">
  <path d="m766.11 1330.6c-22.572-18.843-45.143-37.685-59.766-57.263-14.622-19.578-21.296-39.892-27.969-60.207m-47.695-41.218c35.035 29.048 70.069 58.097 119.92 70.757 49.854 12.66 114.53 8.931 155.89-0.6862s59.422-25.123 77.48-40.629m-141.32-132.49c17.665 25.908 35.33 51.817 58.883 73.898 23.553 22.081 52.994 40.334 82.435 58.588"/>
  <path d="m499.82 393.26c-39.969-8.8372-81.429-14.061-121.96-13.446-96.111 1.4579-187.01 35.738-246.62 68.353-59.609 32.616-97.342 72.986-125.65 103.93"/>
  <path d="m683.61 461.24c-10.685-5.7253-21.998-11.394-34.017-16.981-21.111-9.8117-44.402-19.367-69.134-27.987"/>
  <path d="m991.63 594.83c-27.48 17.862-54.783 35.609-83.819 28.794-29.036-6.8151-59.069-38.018-97.835-72.574-20.844-18.58-44.157-38.071-72.808-57.491"/>
  <path d="m991.63 594.83c0.88326 37.489 1.7665 74.978-7.3119 102.01-9.0784 27.037-28.117 43.622-47.154 60.206"/>
  <path d="m902.12 1061.8c23.944-17.86 47.89-35.721 64.469-61.842 16.579-26.121 25.791-60.499 27.263-95.928 1.4722-35.428-4.7956-71.903-15.645-96.662-10.85-24.759-26.281-37.801-41.712-50.843"/>
  <path d="m417.41 767.64c-29.847-11.276-64.331-11.645-99.795 1.0912-35.526 12.759-72.032 38.666-96.861 64.182s-37.979 50.639-45.928 78.314-10.697 57.901-9.7 82.1c0.99667 24.2 5.6769 42.141 16.619 53.181 10.942 11.04 28.116 15.064 45.29 19.087"/>
  <path d="m664.94 1147.6c43.162-11.103 86.324-22.206 119.36-38.791 33.032-16.585 55.931-38.652 73.21-60.927 17.279-22.276 28.937-44.758 40.596-67.243"/>
  <path d="m664.94 1147.6c5.2737-35.39 10.548-70.78 12.363-110.59 1.815-39.809 0.17212-84.005-17.118-129.28-9.576-25.075-23.938-50.443-40.849-73.056"/>
  <path d="m2.1071 1065.9c33.66 10.991 67.321 21.982 90.58 27.478 23.259 5.4959 36.114 5.4959 53.239 3.337 17.125-2.159 38.519-6.4769 52.749-12.021 14.23-5.5444 21.296-12.316 28.363-19.088"/>
  <path d="m898.1 980.69c3.7474 14.157 7.4947 28.313 8.1648 41.827 0.67011 13.514-1.7364 26.384-4.1428 39.254"/>
  <path d="m111.92 1099.5c-0.39255 28.657-0.78508 57.313 7.8513 86.558 8.6364 29.245 26.301 59.078 41.119 79.441s26.791 31.256 38.764 42.15"/>
  <path d="m242.67 1329.7-7.169-3.6777c-7.169-3.6777-21.505-11.032-35.84-18.386"/>
  <path d="m571.67 551c2.0025 46.996 4.0049 93.991 0.19709 131.13-3.8078 37.139-13.425 64.421-26.968 100.04-13.543 35.624-31.011 79.589-53.878 121.69-22.866 42.101-51.129 82.337-79.392 122.57m244.95-297.94c-29.638-19.824-59.275-39.648-100.98-49.756-41.709-10.108-95.487-10.501-149.27-10.893"/>
  <path d="m656.58 728.5c-8.44 39.649-16.88 79.296-49.364 124.73-32.484 45.438-89.01 96.665-125.62 126.5-36.605 29.834-53.288 38.273-69.971 46.712 4.7105-69.873 9.4211-139.75 8.5379-199.51-0.88321-59.766-7.3601-109.42-13.837-159.08 30.618-19.234 61.236-38.469 89.119-58.205 27.882-19.736 51.726-38.924 76.222-58.638 22.219 33.06 44.438 66.119 58.589 95.701s20.236 55.686 26.32 81.79"/>
 </g>
</svg>
