<?xml version="1.0" encoding="UTF-8"?>
<!-- Created with Inkscape (http://www.inkscape.org/) -->
<svg width="105.15mm" height="23.546mm" version="1.1" viewBox="0 0 105.15 23.546" xmlns="http://www.w3.org/2000/svg">
 <g transform="translate(-15.966 -65.049)">
  <g transform="rotate(239.85 59.073 86.186)" fill="none" stroke="#ffa800">
   <path d="m58.856 119.2c4.1316-2.2592 7.4033-5.9885 9.5049-10.834 1.4014-3.2312 2.1434-4.6682 4.2647-8.26 1.6078-2.7223 2.686-4.8551 3.4253-6.7756 0.22286-0.57894 0.1841-0.57307-1.3584 0.20558-0.87329 0.44083-2.7336 1.2163-4.134 1.7232-1.4004 0.50694-3.2317 1.2293-4.0696 1.6053l-1.5233 0.68362-2.1114 4.0099c-3.1545 5.9908-6.2769 12.91-8.104 17.957l-0.91682 2.5328 1.428-0.83156c0.7854-0.45735 2.403-1.3647 3.5946-2.0163z"/>
   <path d="m54.648 128.29c3.7785-2.2074 5.2718-3.3021 6.4261-4.7107 0.99144-1.2099 2.0971-3.4649 2.3869-4.8682l0.1809-0.87574-1.8219 1.4049c-1.035 0.79807-3.2698 2.0769-5.174 2.9607l-3.3521 1.5558-0.39659 1.2224c-0.61185 1.8858-1.4531 5.0588-1.3413 5.0588 0.0551 0 1.4465-0.78651 3.092-1.7478z"/>
   <path d="m46.994 142.35c0.30501-8.1757 3.602-19.241 9.5812-32.156 4.2631-9.2082 10.857-20.717 18.266-31.882 4.1785-6.2964 5.685-8.3703 5.685-7.826 0 0.17603 0.13873 0.23084 0.31247 0.12346 0.41878-0.25882-0.38371 1.1063-4.6058 7.8348-1.9632 3.1287-4.9134 8.0103-6.5559 10.848-1.6425 2.8377-3.2082 5.4834-3.4793 5.8794l-0.49291 0.72006 0.86224-0.50434c0.47423-0.2774 2.2401-1.0352 3.9242-1.684 4.9917-1.9232 6.85-3.024 8.3152-4.926 0.43656-0.56671 1.3007-1.448 1.9203-1.9584 2.8034-2.3093 4.9435-5.7706 5.7691-9.3305 0.49794-2.1471 0.3959-2.562-0.3667-1.491-0.32126 0.45117-1.3264 1.4087-2.2336 2.1278-1.8731 1.4847-6.7723 4.5514-7.2719 4.552-0.83593 9e-4 -0.09548-0.85557 2.8294-3.2727 5.7891-4.7841 12.019-12.033 14.656-17.053 0.85605-1.6295 0.93915-1.92 0.52917-1.85-0.66286 0.11326-0.77169-0.83785-0.21832-1.908 0.23784-0.45994 0.37402-0.89466 0.30263-0.96606-0.0714-0.0714-0.69063 0.11826-1.3761 0.42146-1.4824 0.65572-1.9727 0.6924-1.9727 0.14756 0-0.30085-0.52247-0.12002-2.0505 0.70969-5.3903 2.9269-11.223 6.8615-16.935 11.423-2.3972 1.9146-3.1052 2.6409-3.6313 3.7252-0.8239 1.6978-1.8307 5.5533-2.3899 9.1521-0.23744 1.528-0.52947 3.2544-0.64895 3.8365-0.20158 0.982-0.22155 1.0011-0.27688 0.26458l-0.05964-0.79375-0.22332 0.79375c-0.33265 1.1824-0.03227-2.9698 0.42334-5.8518 0.20974-1.3267 0.46158-2.6364 0.55966-2.9104 0.32869-0.91838-1.4585 0.98611-2.0003 2.1316-0.5591 1.182-1.2345 4.8937-1.5075 8.2842-0.12889 1.6009-0.27363 2.1828-0.54289 2.1828-0.20193 0-0.4434-0.19874-0.53661-0.44164-0.17367-0.45257 0.29826-7.0994 0.58857-8.2896 0.31279-1.2824-5.7942 5.5716-8.4462 9.4793-3.2648 4.8107-4.2366 7.446-4.2126 11.423 0.01893 3.135 0.71292 5.9377 2.3448 9.4698 0.94886 2.0537 1.1045 2.7011 0.64934 2.7011-0.25218 0-0.77928-0.52833-1.7158-1.7198-0.37921-0.48244-0.38015-0.43869-0.01065 0.49533 0.22291 0.56347 0.4053 1.129 0.4053 1.2568 0 0.41151-0.75803 0.24702-1.0634-0.23075-0.25212-0.39447-0.27356-0.3651-0.14481 0.19844 0.42829 1.8746 0.73174 4.2435 0.59067 4.6111-0.34555 0.9005-0.89571 0.42059-1.0545-0.91982-0.08701-0.73468-0.74773-3.1457-1.4683-5.3578-0.72053-2.2121-1.3752-4.2602-1.4548-4.5512-0.07961-0.29104-0.08249 0.14953-0.0064 0.97905 0.12348 1.3462 0.68098 3.6635 2.135 8.8741 0.35762 1.2816 0.38988 1.7219 0.14414 1.9677-0.24574 0.24574-0.38648 0.11308-0.62883-0.59274-0.40597-1.1823-3.1741-6.6463-3.3022-6.5182-0.05409 0.0541 0.78537 1.993 1.8655 4.3088 1.6891 3.6214 2.8003 6.6986 2.8003 7.7544 0 0.1609-0.21562 0.29254-0.47915 0.29254-0.35205 0-0.56725-0.34376-0.8113-1.296-0.18268-0.71279-1.1706-3.0047-2.1955-5.0932-1.0248-2.0885-2.1422-4.5116-2.4831-5.3848-0.76046-1.948-0.80623-1.4792-0.13067 1.3384 0.59136 2.4665 1.0649 3.7218 3.0151 7.9924 0.77971 1.7075 1.5664 3.5588 1.7482 4.114 0.38084 1.1631 0.1591 2.9395-0.34287 2.7469-0.22509-0.0864-0.29417 0.13205-0.22611 0.71501 0.0539 0.46165-0.32496 2.7401-0.8419 5.0632-1.1168 5.0186-1.7496 8.8038-1.7456 10.442l0.0029 1.1906 1.7751-2.0984 0.13853-3.7133z"/>
  </g>
 </g>
</svg>
