<?xml version="1.0" encoding="UTF-8"?>
<!-- Created with Inkscape (http://www.inkscape.org/) -->
<svg width="40.327mm" height="28.966mm" version="1.1" viewBox="0 0 40.327 28.966" xmlns="http://www.w3.org/2000/svg">
 <g transform="translate(-43.529 -30.171)">
  <g transform="translate(-6.7833 -109.37)">
   <g>
    <path d="m71.644 160.53c-0.65513 0-1.2846 0.0671-1.876 0.1881-0.62946-0.0897 2.4897-2.495-1.4235-2.418-3.9132 0.077-8.7041 3.8847-8.4112 6.8664 0.17725 1.8043 5.8608 2.5022 7.6972 2.9407 1.8364 0.43853 3.2518 0.22972 4.0251 0.18737 0.77336-0.0423 7.5452-1.0356 7.262-4.005-0.20017-2.0987-3.9081-3.7595-7.2736-3.7595z" fill="#6d9095" stroke="#000" stroke-linecap="round" stroke-linejoin="round" stroke-width=".265"/>
    <path d="m70.04 144.66c0.2916 2.8471-2.7166 5.415-5.6445 5.415-1.4639 0-2.5158-0.26399-3.0492-1.1674-0.53338-0.90336-0.01369-1.9951-0.66062-3.4186-0.59204-1.3028 0.25674-3.1929 1.0951-4.1553 0.83838-0.96243 2.0792-1.569 3.5431-1.569 2.9279 0 4.4245 2.0482 4.7161 4.8952z" fill="#70645d" stroke="#000" stroke-linecap="round" stroke-linejoin="round" stroke-width=".3"/>
    <ellipse transform="matrix(.98391 -.17867 .18068 .98354 0 0)" cx="35.443" cy="155.21" rx=".40558" ry=".66506" fill="#fff" stroke="#171717" stroke-width=".265"/>
   </g>
   <path d="m63.283 147.94c0.0011 0.27149-0.125 0.31599-0.29594 0.32632-0.17093 0.0103-0.2959-0.0242-0.29695-0.29566-0.0011-0.27149 0.32583-0.6698 0.32583-0.6698s0.26601 0.36765 0.26706 0.63914z" fill="#ffc107"/>
   <path d="m67.922 148.02c-10.208 5.2637-11.881 6.4051-17.477 14.323 0.29505 0.24088 0.75375 0.88042 1.0484 1.0708 1.1084-2.4286 3.0102-4.7082 3.0702-4.6655-1.155 1.6283-2.0662 3.333-2.7098 4.7379 0.42278 0.30627 0.78176 0.33607 1.2867 0.41617 1.2773-2.3771 3.9089-6.0346 3.9506-5.9929-1.1357 2.0002-2.5093 4.2496-3.2552 6.1898 1.2355 0.42432 1.5869 0.34767 2.8036 0.32698 1.1742-2.6416 3.1902-5.5362 3.2439-5.4599-1.1246 1.8019-1.9266 3.6439-2.3223 5.4881 1.7251-0.0543 2.9735-0.25371 4.6339-0.16661 0.70433-2.4372 1.2663-3.2299 1.2679-3.2292-0.26525 1.0276-0.64207 2.0551-0.7074 3.0827 1.0188 0.0712 1.4671 0.35287 2.4519 0.84425 0.30188-2.5513 1.3748-6.119 1.4245-6.0961-0.30993 2.0013-0.71928 4.1815-0.88891 5.9302 0.64419 0.34171 1.0419 0.92217 1.6689 1.5452 0.1721-2.64 0.72212-6.3111 0.72212-6.3111l-0.41563 6.6212c0.04432 0.0466 0.0891 0.0872 0.13333 0.13539 0.61508 0.67095 0.9391 0.82533 1.8303 1.035-0.23937-2.6513 0.0091-6.4129 0.0091-6.4129 0.05489 2.3139 0.20374 4.6084 0.63126 6.7675 1.3236 0.23985 2.6217-0.3731 4.7446-1.3168-0.39274-2.0994-1.1865-4.734-1.215-4.754 0.68396 1.6275 1.4199 3.2464 1.8491 4.9164 0.82372-0.37361 1.6518-1.1157 2.6199-1.6905-1.1431-2.3377-2.631-4.8549-2.631-4.8549 1.0964 1.4251 2.1614 3.0697 3.2135 4.8053 1.0912-0.65529 1.2758-1.2913 2.567-2.2175-1.1922-2.4632-4.1635-4.4003-4.2188-4.3584 2.1881 0.88956 3.6071 2.3783 4.7631 4.1123 1.1106-0.79974 2.3776-1.3637 3.6487-2.3758-3.2437-0.95986-5.4629-3.1492-5.3374-3.2495 1.8733 1.0726 3.404 2.4878 5.8451 2.9926 1.0394-0.83004 1.3206-1.4505 2.4742-2.429-3.3881 0.20975-6.881-1.3678-6.8414-1.4508 2.3078 0.76105 4.7453 1.2526 7.4613 1.1658 0.40658-0.34588 0.82006-0.70032 1.2413-1.065-15.492 0.54315-10.618-8.0492-22.584-8.4098z" fill="#64b79b" stroke="#000" stroke-linecap="round" stroke-linejoin="round" stroke-width=".265"/>
   <g fill="#ffffe5" stroke="#0e0e0e" stroke-linecap="round" stroke-linejoin="round" stroke-width=".3">
    <path d="m69.028 150.22c0.46142 0.75944 1.1797 1.0737 2.0664 1.0961-0.90248 0.1615-1.1354 0.67816-0.92926 1.4277-0.45625-0.82275-1.1828-1.1139-2.0664-1.0961 0.8036-0.21048 1.1979-0.64095 0.92926-1.4277z"/>
    <path d="m70.593 154.03c0.3195 0.89066 0.98033 1.2716 1.8649 1.3185-0.93503 0.16582-1.2658 0.75886-1.2003 1.632-0.3024-0.96388-0.97582-1.3183-1.8649-1.3185 0.84514-0.22488 1.3214-0.71427 1.2003-1.632z"/>
    <path d="m71.523 158.49c0.23188 0.86861 0.85659 1.2687 1.7388 1.3616-0.95392 0.10756-1.3444 0.65632-1.3655 1.4944-0.20746-0.93765-0.84742-1.3131-1.7388-1.3617 0.86967-0.1689 1.3958-0.61067 1.3655-1.4944z"/>
    <path d="m72.03 162.95c0.14619 0.91051 0.73157 1.3529 1.6049 1.4883-0.96481 0.0692-1.4096 0.62065-1.5134 1.4883-0.11494-0.981-0.71802-1.3984-1.6049-1.4883 0.88659-0.13652 1.4565-0.57107 1.5134-1.4883z"/>
   </g>
   <g fill="#fff" stroke="#000" stroke-linecap="round" stroke-linejoin="round">
    <path d="m66.33 150.76c-0.12172 0.16336-0.31969 0.34769-0.55912 0.53503-0.23943 0.18734-0.06931-1.844-0.28173-2.4287-0.02867 0.55957-0.15591 2.6326-0.42211 2.7601-0.2662 0.12746-1.4565 0.90685-1.6317 0.95045 0.66122-1.8453 1.0921-6.9608-0.23123-9.0589 0.02691 0.0334 0.58189 1.7145 0.29102 1.7247-0.31953 0.0112-1.3025 0.0334-1.3999-8.2e-4 -0.2088-0.3196-0.21514-1.2442-0.25575-1.6977-0.33665 0.54218-0.22422 1.6767-0.1765 1.8683-0.2047 0.0196-0.22252 0.073-0.27399 0.0724-0.46916-6e-3 -0.50545-2.1456-0.38131-2.4936-0.55388 0.40556-0.3052 2.04-0.16136 2.4169-0.1033 0.22283-0.22286 4.4e-4 -0.69003 0.61884-0.943-5.1769 2.5412-6.5498 5.6983-6.3028 4.0297 0.31537 3.4916 3.2752 4.4659 4.9259 1.13 1.9145-0.36964 3.3989-1.8451 4.1613-1.7851 0.92243-1.6662-0.41968-2.304-1.3505-0.10204-0.0502 0.64547 2.646 0.15858 3.2995z" stroke-width=".3"/>
    <path d="m76.587 148.73c0.54515 0.0822 0.50736 1.0208 0.24053 1.5024-0.26683 0.4816-1.0764 0.97058-1.4093 0.56387-0.33288-0.4067-0.8165-1.1755-0.54967-1.6571s1.1627-0.49291 1.7184-0.40916z" stroke-width=".265"/>
    <path d="m69.643 146.67c0.06689 0.17261 0.14519 0.34922 0.20782 0.52464-0.01324 4e-3 -0.02643 9e-3 -0.03965 0.0139-0.02355 7e-3 -0.0067 0.0253-0.03027 0.0323-0.26308-0.019-0.41839-6.9e-4 -0.5807 0.0992m1.3026-0.38785c5.25e-4 3e-3 9.43e-4 6e-3 0.0014 9e-3l-0.0049 0.59851c-0.01375 2e-3 -0.02746 3e-3 -0.04079 5e-3 -0.02416 1e-3 -0.04781 4e-3 -0.07151 3e-3 -0.0237-1e-5 -0.04707-6.9e-4 -0.07018-3e-3 -0.02312-2e-3 -0.02078 0.0123-0.04365 8e-3 -0.02267-3e-3 -0.04502-7e-3 -0.06682-0.0123-0.01311-3e-3 -0.02609-7e-3 -0.03881-0.0112-0.0083-2e-3 -0.01669-5e-3 -0.02491-7e-3 -0.02066-7e-3 -0.04078-0.0152-0.06016-0.0243-0.01935-9e-3 -0.03801-0.0191-0.05585-0.0299-0.0062-3e-3 0.03715 0.0212 0.03059 0.0177m1.1606-0.065c7.6e-5 3e-3 -1.47e-4 6e-3 -9.7e-5 9e-3l0.0094 0.62423c-0.01359 3e-3 -0.0272 5e-3 -0.0408 6e-3 -0.02389 3e-3 -0.04792 4e-3 -0.07169 6e-3 -0.02366 9.8e-4 -0.06725-0.0126-0.09029-0.0146-0.02303-2e-3 -0.04575-5e-3 -0.06805-0.01-0.02225-4e-3 -0.04407-9e-3 -0.06534-0.0155-0.01289-4e-3 -0.02532-8e-3 -0.03772-0.0132-0.0081-2e-3 -0.01627-6e-3 -0.02419-8e-3 -0.02003-8e-3 -0.03942-0.0173-0.058-0.0273-0.01861-0.01-0.03644-0.021-0.05342-0.0329-0.0059-4e-3 -0.01195-8e-3 -0.01778-0.013m1.2584-0.0202c3.75e-4 3e-3 6.76e-4 7e-3 7.44e-4 9e-3l0.08769 0.60871c-0.01335 4e-3 -0.02705 6e-3 -0.04053 0.01-0.02401 5e-3 -0.04792 9e-3 -0.07188 0.0118-0.02386 3e-3 -0.0478 4e-3 -0.07154 6e-3 -0.02369 9e-4 -0.04724 5.4e-4 -0.07047-1e-3 -0.02324-1e-3 -0.04621-3e-3 -0.06876-7e-3 -0.01365-2e-3 -0.06223-0.0245-0.07515-0.0282-0.0085-1e-3 -0.0169-4e-3 -0.02528-6e-3 -0.02105-6e-3 -0.04154-0.0141-0.06129-0.0225-0.01975-8e-3 -0.0389-0.018-0.05721-0.0284-0.0067-4e-3 -0.01288-7e-3 -0.01928-0.0113m1.2896-0.13363c7.31e-4 2e-3 0.0014 6e-3 0.0021 9e-3l0.17659 0.58436c-0.01324 4e-3 -0.02643 9e-3 -0.03964 0.0139-0.02354 7e-3 -0.04721 0.0139-0.07101 0.0194-0.02384 6e-3 -0.04784 0.01-0.07166 0.0132-0.02374 4e-3 -0.04777 6e-3 -0.07152 7e-3 -0.02387 9.6e-4 -0.09023-0.0139-0.11319-0.0159-0.01415-2e-3 -0.02763-4e-3 -0.04128-6e-3 -0.0088-6.5e-4 -0.01775-2e-3 -0.02649-4e-3 -0.02221-5e-3 -0.04399-9e-3 -0.06521-0.0157-0.02118-6e-3 -0.04183-0.0134-0.06179-0.0215-0.0072-3e-3 -0.0141-6e-3 -0.02106-9e-3m1.2857-0.25941c0.0013 3e-3 0.0022 5e-3 0.0034 8e-3l0.22116 0.5538c-0.01297 5e-3 -0.02595 0.0107-0.03904 0.0157-0.02312 9e-3 -0.04647 0.0167-0.07028 0.0229-0.02379 6e-3 -0.04738 0.0124-0.07128 0.0169-0.02385 5e-3 -0.04773 8e-3 -0.07161 0.0108-0.0237 3e-3 -0.0476 4e-3 -0.07125 5e-3 -0.01427 1.4e-4 -0.02848-2.5e-4 -0.04264-7.9e-4 -0.0094-4.5e-4 -0.01838-4.5e-4 -0.02736-2.7e-4 -0.02308-1e-3 -0.04588-4e-3 -0.06829-8e-3 -0.02238-4e-3 -0.04434-9e-3 -0.06577-0.0142-0.0076-2e-3 -0.01513-4e-3 -0.02264-6e-3m-3.6107-2.5836c0.02317 1e-3 0.04064-8e-5 0.06394 3.5e-4 0.02337 3.5e-4 0.04691-1.4e-4 0.07072-1e-3 0.02369-1e-3 0.04753-4e-3 0.07138-7e-3 0.02376-4e-3 0.04471-7e-3 0.06859-0.0107 0.02401-4e-3 0.04774-9e-3 0.07141-0.0158 0.02373-6e-3 0.04987-0.0118 0.07328-0.0194 0.02389-6e-3 0.04715-0.0145 0.07018-0.0237l0.73838-0.19705c-0.0017-0.0112-0.0036-0.0225-0.0062-0.0335-0.0044-0.0194-0.01019-0.0386-0.01698-0.0572-0.0067-0.0186-0.01469-0.0367-0.02373-0.0543-0.60933-0.34028-0.81343-0.61886-0.97685-1.323m0.57906 2.0229c2e-6 1e-5 3e-6 3e-5 3e-6 4e-5 0.01616 9e-3 0.02555 0.0143 0.04185 0.0227 0.01895 9e-3 0.03863 0.0183 0.05892 0.0259 0.02029 8e-3 0.0413 0.0144 0.06278 0.0202 0.02149 5e-3 0.04352 0.0105 0.06599 0.0142 0.02246 4e-3 0.04479 5e-3 0.06768 8e-3 0.02286 2e-3 0.04621 4e-3 0.06971 4e-3 0.02347 3.3e-4 0.04731-1.5e-4 0.07117-2e-3 0.02392-1e-3 0.04789-4e-3 0.07193-8e-3l0.72173-0.10588c2e-4 -0.0117-1.26e-4 -0.0232-8.18e-4 -0.0347-0.0014-0.0202-0.0039-0.0403-0.0076-0.06-0.0037-0.0196-0.0087-0.039-0.01466-0.0579-6e-3 -0.0189-0.01331-0.0373-0.02172-0.0551-0.0083-0.0178-0.0179-0.0352-0.0284-0.052-0.0067-0.01-0.0138-0.0198-0.02119-0.0293-0.0045-7e-3 -0.0089-0.0126-0.01363-0.0188-0.01268-0.0154-0.03149-0.0334-0.0463-0.0472-0.01483-0.0137-0.03056-0.0267-0.04721-0.039-0.01662-0.0123-0.03406-0.0234-0.05241-0.034-0.01833-0.0104-0.0373-0.0198-0.05709-0.0285-0.01973-9e-3 -0.06654-0.0341-0.08803-0.0397-0.0215-5e-3 -0.04358-0.0105-0.066-0.0142-0.02247-4e-3 -0.04536-7e-3 -0.06857-8e-3 -0.02314-1e-3 -0.0467-2e-3 -0.07032-2e-3 -0.02388 3e-5 -0.04761 2e-3 -0.07161 5e-3 -0.02378 3e-3 -0.08597-0.0162-0.10975-0.01l-0.01047 4e-3m0.27911 1.033c0 2e-5 0 4e-5 -2e-6 5e-5 0.01438 0.0105 0.02942 0.0205 0.045 0.0297 0.01815 0.0106 0.03706 0.0202 0.05674 0.029 0.01961 9e-3 0.03997 0.0165 0.06086 0.0233 0.02089 7e-3 0.04243 0.0126 0.06437 0.0173 0.02196 5e-3 0.04446 9e-3 0.06728 0.0112 0.02286 3e-3 0.04609 4e-3 0.06972 4e-3 0.02367-6e-5 0.04751-1e-3 0.07143-4e-3 0.02413-1e-3 0.04796-5e-3 0.07198-0.01l0.70486-0.14991c-9.85e-4 -0.0115-0.0025-0.0229-0.0043-0.034-0.0034-0.0198-0.0078-0.0393-0.01355-0.0584-0.0057-0.0192-0.01253-0.0376-0.02056-0.0557-8e-3 -0.018-0.01704-0.0356-0.02743-0.0528-0.01021-0.017 0.0068-0.0169-0.0046-0.0334-0.0071-0.01-0.01471-0.0192-0.02261-0.0284-0.0049-7e-3 -0.0095-0.0123-0.01455-0.0183-0.01343-0.0149-0.02783-0.0291-0.04322-0.0424-0.01536-0.0134-0.03161-0.0258-0.04873-0.0375-0.01715-0.0116-0.03508-0.0226-0.05379-0.0324-0.01871-0.01-0.0382-0.0189-0.05829-0.0268-0.0201-8e-3 -0.01823-1e-3 -0.03903-8e-3 -0.0209-7e-3 -0.04244-0.0126-0.06441-0.0173-0.02201-5e-3 -0.04449-8e-3 -0.06736-0.0113-0.02284-3e-3 -0.04605-4e-3 -0.06952-5e-3 -0.02346-3.5e-4 -0.04722 1.4e-4 -0.07113 1e-3 -0.02401 1e-3 -0.04791 4e-3 -0.07195 7e-3l-0.01096 1e-3m0.2339 0.99078c-1e-6 1e-5 1e-6 3e-5 4e-6 4e-5 0.0156 9e-3 0.0317 0.0179 0.04838 0.0259 0.01934 9e-3 0.03942 0.017 0.06019 0.0243 0.02066 7e-3 0.042 0.0132 0.06381 0.0184 0.02177 5e-3 0.04782 9e-3 0.0709 0.0111 0.0231 2e-3 0.04642 2e-3 0.07005 3e-3 0.02373 8e-5 0.04745-1e-3 0.07131-4e-3 0.02413-1e-3 0.04786-6e-3 0.07185-0.01 0.02384-5e-3 0.04794-0.01 0.07161-0.0162l0.69188-0.21988c-0.0027-0.0111-0.0056-0.0219-0.0091-0.0327-0.0061-0.0189-0.01341-0.0374-0.02182-0.0554-0.0084-0.0179-0.01787-0.0354-0.02847-0.0522-0.01062-0.0168-0.02236-0.033-0.03497-0.0484-0.01268-0.0154-0.02637-0.0302-0.041-0.0441-0.0091-8e-3 0.02174 2e-3 0.01261-6e-3 -0.0055-6e-3 -0.01115-0.0111-0.0169-0.0165-0.01535-0.0134-0.03168-0.0258-0.0488-0.0375-0.01715-0.0116-0.03513-0.0224-0.05387-0.0323-0.01871-0.01-0.03817-0.0187-0.0583-0.0267-0.02014-8e-3 -0.04093-0.015-0.06226-0.0211-0.02131-6e-3 -0.04315-0.011-0.06542-0.0149-0.02228-4e-3 -0.04506-7e-3 -0.06816-9e-3 -0.02306-2e-3 -0.01244 0.0152-0.03595 0.0139-0.02331-1e-3 -0.04696-7e-4 -0.07075-2.1e-4 -0.02387 9.5e-4 -0.04775 3e-3 -0.07176 6e-3 -0.02402 3e-3 -0.048 8e-3 -0.07195 0.0127l-0.01065 3e-3m0.3543 0.93515c4e-6 2e-5 3e-6 2e-5 1e-5 5e-5 0.01702 7e-3 0.03458 0.0141 0.0526 0.0202 0.02085 7e-3 0.04235 0.0126 0.06424 0.0174 0.02194 5e-3 0.04436 9e-3 0.06714 0.0112 0.02279 3e-3 0.04931 5e-3 0.07294 4e-3 0.0236-8.5e-4 0.04744-3e-3 0.07126-6e-3 0.02378-3e-3 0.04779-7e-3 0.07171-0.0114 0.02393-5e-3 0.04778-0.0104 0.07133-0.0175 0.02345-7e-3 0.04712-0.0145 0.07015-0.0236l0.66465-0.28223c-0.0043-0.0105-0.0089-0.0207-0.01389-0.0308-0.0089-0.0177-0.01893-0.0349-0.03018-0.0514-0.01113-0.0165-0.02324-0.0324-0.03646-0.0476-0.01312-0.0151 0.01463-0.0175 6.74e-4 -0.0321-0.01394-0.0146-0.02882-0.0283-0.04465-0.0414-0.0099-8e-3 -0.01998-0.0151-0.03045-0.0222-0.0065-5e-3 -0.01289-0.01-0.01959-0.0142-0.01755-0.0112-0.03584-0.0216-0.05493-0.0311-0.01903-9e-3 -0.03887-0.0181-0.05922-0.0255-0.02042-8e-3 -0.0414-0.0141-0.06296-0.0196-0.02153-5e-3 -0.04361-0.0101-0.06607-0.0136-0.02245-4e-3 -0.04533-6e-3 -0.06847-7e-3 -0.02321-1e-3 -0.04667-2e-3 -0.07028-1e-3 -0.02361 8.5e-4 -0.0055 0.0162-0.02925 0.018-0.02376 1e-3 -0.04766 4e-3 -0.07164 7e-3 -0.02383 4e-3 -0.04788 8e-3 -0.07176 0.0137-0.0239 6e-3 -0.04747 0.0125-0.07117 0.0196l-0.01054 4e-3m0.48625 0.8777c7e-6 2e-5 1e-5 2e-5 1.5e-5 4e-5 0.01832 5e-3 0.03711 0.01 0.05619 0.0138 0.02212 5e-3 0.0447 8e-3 0.06762 0.01 0.02291 2e-3 0.04616 3e-3 0.06961 4e-3 0.02346 1.6e-4 0.04716-7.5e-4 0.07093-3e-3 0.02394-1e-3 0.04765-5e-3 0.07157-9e-3s0.04775-9e-3 0.07149-0.0152c0.0237-6e-3 0.04731-0.0131 0.07055-0.0214 0.02332-8e-3 0.04631-0.0173 0.06911-0.027l0.68054-0.29746c-0.0042-0.0104-0.0089-0.0207-0.01389-0.0308-0.0089-0.0178-0.01898-0.035-0.03022-0.0515-0.01113-0.0165-0.02324-0.0324-0.03646-0.0476-0.01312-0.0151-0.02736-0.0296-0.04252-0.0433-0.01515-0.0136-0.03114-0.0264-0.04803-0.0385-0.0105-7e-3 -0.02125-0.0138-0.0323-0.0203-7e-3 -5e-3 -0.01372-9e-3 -0.02077-0.013-0.01847-0.0101-0.03769-0.0194-0.05765-0.0278-0.01991-8e-3 -0.04048-0.0157-0.06157-0.0219-0.0211-6e-3 -0.04279-0.0116-0.0649-0.0159-0.02211-5e-3 -0.0447-8e-3 -0.06762-0.01-0.02289-2e-3 -0.04613-3e-3 -0.06957-4e-3 -0.02348-1.6e-4 -0.04717 7.5e-4 -0.07094 3e-3 -0.02396 1e-3 -0.04768 5e-3 -0.07162 9e-3 -0.02391 4e-3 -0.04772 9e-3 -0.07142 0.0152-0.0237 6e-3 -0.04732 0.0131-0.07058 0.0214-0.02333 8e-3 -0.04632 0.0173-0.06912 0.027l-0.0103 4e-3m-3.9225-0.56107c-0.01418-7e-3 -0.02788-0.0155-0.04114-0.0241-0.01747-0.0113-0.03408-0.0234-0.04989-0.0365-0.01575-0.0129-0.03051-0.0267-0.04446-0.0414-0.01382-0.0146-0.02674-0.0299-0.03865-0.0459-0.01189-0.016 0.02453-8e-3 0.01315-0.0243-0.01135-0.0163-0.02177-0.0333-0.031-0.0508-0.0091-0.0176 0.01818-0.0221 0.0098-0.0401-0.0084-0.018-0.01569-0.0365-0.02177-0.0555-0.11059-0.15807-0.12832-0.48009-0.12896-0.51305 0.02316 1e-3 0.04063-2.4e-4 0.06403 3.5e-4h3.6e-5c0.02331 3.6e-4 0.04688-1.3e-4 0.07059-1e-3 0.02373-1e-3 0.04754-4e-3 0.0714-7e-3 0.02376-4e-3 0.04475-7e-3 0.06865-0.0108 0.024-4e-3 0.04772-9e-3 0.0714-0.0157 7e-6 -1e-5 1.2e-5 -2e-5 1.7e-5 -4e-5 0.02373-6e-3 0.04994-0.0119 0.07335-0.0195 0.01979-6e-3 0.03985-0.0126 0.05941-0.0202 0.01795 6e-3 0.0355 0.0129 0.05247 0.0203 0.01953 9e-3 0.04254 0.0218 0.05966 0.0336 0.01712 0.0117 0.03337 0.0242 0.04877 0.0376 0.01536 0.0134 0.03277 0.0304 0.04466 0.0465 0.01189 0.016 0.02264 0.0326 0.0324 0.0499 0.0096 0.0172 0.01829 0.0351 0.02586 0.0534 0.0074 0.0184 0.01379 0.0372 0.01901 0.0564 0.0052 0.0192 0.0092 0.039 0.01197 0.0589m0.20267 0.9943c-0.01251-9e-3 -0.02469-0.0189-0.03617-0.0291-0.0152-0.0135-0.02946-0.0277-0.04278-0.0428-0.01319-0.015-0.02548-0.0306-0.03677-0.0471-0.01116-0.0163-0.0213-0.0334-0.03036-0.051-9e-3 -0.0176-0.01689-0.0357-0.02373-0.0543-0.0067-0.0186-0.0082-0.0345-0.01274-0.0538-0.0046-0.0194-0.0081-0.0392-0.01026-0.0593-0.0022-0.0201-0.0033-0.0404-0.0031-0.0609l0.0036-0.59803 8.18e-4 -2e-4c0.0157 8e-3 0.0247 0.0138 0.04049 0.022 0.01892 0.01 0.03863 0.0183 0.05892 0.0259 1.3e-5 1e-5 2.4e-5 3e-5 3.5e-5 4e-5 0.02029 8e-3 0.04126 0.0145 0.06274 0.0202 0.0215 5e-3 0.04354 0.0104 0.06597 0.0141 0.02245 4e-3 0.04481 5e-3 0.06773 8e-3 0.02286 2e-3 0.04617 4e-3 0.06971 4e-3 1e-5 0 1.6e-5 -2e-5 2.3e-5 -4e-5 0.02356 3.5e-4 0.04731-1.4e-4 0.07116-2e-3 0.0202-2e-3 0.04059-4e-3 0.06094-7e-3 0.0147 0.0101 0.02881 0.0211 0.04216 0.0325 0.01536 0.0134 0.02979 0.0273 0.04322 0.0424 0.01342 0.0149 0.0262 0.031 0.03749 0.0474 0.01116 0.0163 0.0213 0.0333 0.03036 0.051 9e-3 0.0176 0.01689 0.0357 0.02371 0.0543 0.0067 0.0186 0.01228 0.0376 0.01672 0.0572 0.0043 0.0194 0.0076 0.0393 0.0096 0.0594 2e-3 0.0202 0.0028 0.0405 0.0024 0.0611m0.27281 1.0262c-0.01365-8e-3 -0.0268-0.0169-0.0394-0.026-0.01672-0.0121-0.0325-0.025-0.04741-0.0388-0.01484-0.0137-0.02882-0.0283-0.04172-0.0435-0.01297-0.0152-0.05181-0.0488-0.06174-0.066-0.0098-0.0172-0.01846-0.0349-0.02626-0.0533-0.0076-0.0183-0.01407-0.037-0.01937-0.0562-0.0052-0.0191-0.0094-0.0388-0.01233-0.0587-0.0029-0.0199-0.0048-0.0401-0.0052-0.0606l-9e-3 -0.62413 8.2e-4 -1.3e-4c0.01404 0.0101 0.0286 0.0199 0.04375 0.029 0.01815 0.0105 0.03705 0.0202 0.05673 0.029 7e-6 1e-5 1.8e-5 1e-5 2.9e-5 2e-5 0.01959 9e-3 0.03993 0.0165 0.06082 0.0233 0.0209 7e-3 0.04244 0.0126 0.06443 0.0173 0.02198 5e-3 0.04446 9e-3 0.06729 0.0112 0.02284 3e-3 0.04603 4e-3 0.06967 4e-3 7e-6 0 1.6e-5 -1e-5 2.7e-5 -2e-5 0.02366-5e-5 0.04751-1e-3 0.07143-4e-3 0.02016-2e-3 0.04063-5e-3 0.06101-8e-3 0.01513 0.01 0.02963 0.0202 0.04347 0.0312 0.0159 0.0129 0.0308 0.0265 0.04486 0.041 0.01404 0.0144 0.02701 0.0296 0.03901 0.0455 0.01194 0.0159 0.02286 0.0325 0.03277 0.0496 0.0098 0.0172 0.01853 0.0332 0.02709 0.051 0.0087 0.0178 0.01616 0.0361 0.02258 0.0549 0.0064 0.0188 0.01155 0.0381 0.01559 0.0577 0.0041 0.0196 0.0069 0.0396 0.0086 0.0597m0.41718 0.9763c-0.01495-6e-3 -0.02942-0.0136-0.04349-0.0212-0.01861-0.0101-0.03639-0.021-0.05335-0.0329-0.01693-0.0118-0.0331-0.0245-0.04826-0.038-0.01521-0.0135-0.02948-0.0279-0.04279-0.0429-0.01322-0.0151-0.06333-0.049-0.07323-0.0662-0.0098-0.0172-0.0187-0.0349-0.02641-0.0532-0.0077-0.0182-0.01423-0.0371-0.01959-0.0563-0.0052-0.0192-0.0096-0.0387-0.01261-0.0587l-0.087-0.60869 8.19e-4 -1.8e-4c0.01514 9e-3 0.03084 0.0175 0.04703 0.0251 0.01934 9e-3 0.03943 0.017 0.06016 0.0242 1.2e-5 0 2e-5 1e-5 3e-5 1e-5 0.02065 7e-3 0.04196 0.0132 0.06374 0.0184 0.02181 5e-3 0.04778 9e-3 0.07087 0.0112 0.0231 2e-3 0.04644 2e-3 0.07005 3e-3 0.02365-4e-5 0.0474-1e-3 0.07129-4e-3 6e-6 -1e-5 1e-5 -3e-5 2.1e-5 -3e-5 0.02413-1e-3 0.04786-6e-3 0.07185-0.01 0.0202-4e-3 0.04059-8e-3 0.0607-0.0136 0.01651 8e-3 0.03242 0.017 0.04774 0.0266 0.01765 0.0111 0.03445 0.0232 0.05038 0.0362 0.0159 0.0129 0.03092 0.0266 0.045 0.041 0.01404 0.0144 0.02546 0.0264 0.03871 0.0415 0.01319 0.015 0.02555 0.0308 0.03678 0.0472 0.01121 0.0164 0.02138 0.0334 0.03043 0.0511 9e-3 0.0178 0.01693 0.0358 0.0238 0.0546 0.0067 0.0186 0.01244 0.0378 0.01694 0.0573m0.55996 0.9126c-0.01603-5e-3 -0.03181-0.01-0.04717-0.0159-0.02026-8e-3 -0.03993-0.0165-0.05887-0.0262-0.01892-0.01-0.08066-0.0348-0.09699-0.0474-0.01637-0.0125-0.0318-0.0258-0.04631-0.04-0.01453-0.0141-0.02806-0.0291-0.04062-0.0447-0.01248-0.0156-0.02398-0.0319-0.03449-0.0488s-0.01972-0.0345-0.02803-0.0526c-0.0082-0.018-0.01538-0.0366-0.02138-0.0557l-0.17582-0.58446 8.18e-4 -2.6e-4c0.01654 7e-3 0.03362 0.0137 0.05109 0.0196 0.02085 7e-3 0.04231 0.0126 0.06423 0.0174 1.2e-5 0 2.2e-5 0 3.5e-5 1e-5 0.02191 5e-3 0.04433 9e-3 0.06707 0.0113 0.02277 3e-3 0.0493 6e-3 0.0729 4e-3 0.02359-8.4e-4 0.04744-3e-3 0.07134-5e-3 0.02377-3e-3 0.04781-7e-3 0.07172-0.0113 7e-6 -2e-5 1.2e-5 -2e-5 1.8e-5 -4e-5 0.02393-5e-3 0.04777-0.0104 0.07131-0.0176 0.01978-6e-3 0.03988-0.0125 0.05961-0.0196 0.01787 6e-3 0.03533 0.013 0.05221 0.0205 0.01945 9e-3 0.03822 0.0187 0.05626 0.0296 0.018 0.0107 0.03518 0.0224 0.05152 0.0349 0.01629 0.0125 0.03172 0.0258 0.04628 0.04 0.01453 0.0141 0.02802 0.029 0.04062 0.0446 0.01248 0.0156 0.02507 0.0305 0.03685 0.0467 0.01177 0.0161 0.02242 0.0329 0.03206 0.0505 0.0095 0.0174 0.01815 0.0353 0.02557 0.0539m0.58126 0.85285c-0.0161-5e-3 -0.03181-0.01-0.04717-0.0159-0.02025-8e-3 -0.03994-0.0164-0.05882-0.0261-0.01892-0.01-0.03709-0.0203-0.05445-0.0317-0.01738-0.0115-0.03388-0.0238-0.04956-0.0369-0.01565-0.0131-0.03035-0.0271-0.0442-0.0419-0.01384-0.0147-0.02648-0.0302-0.03826-0.0463-0.01177-0.0161-0.02248-0.033-0.03206-0.0505-0.0096-0.0175-0.01811-0.0353-0.02558-0.0539l-0.22105-0.55366 7.41e-4 -3e-4c0.01785 5e-3 0.03607 0.01 0.05462 0.0135 0.02211 5e-3 0.04469 8e-3 0.06758 0.01 1.2e-5 0 2.3e-5 1e-5 3.7e-5 2e-5 0.02289 2e-3 0.04612 3e-3 0.06957 4e-3 0.02346 1.7e-4 0.04717-7.5e-4 0.0709-3e-3 0.02393-1e-3 0.04765-5e-3 0.07157-9e-3s0.04774-9e-3 0.07147-0.0151c2e-6 -1e-5 9e-6 -2e-5 1.6e-5 -3e-5 0.0237-6e-3 0.04731-0.0131 0.07055-0.0214 0.01987-6e-3 0.03927-0.0146 0.05858-0.0228 0.01846 5e-3 0.03659 0.011 0.05414 0.0175 0.02025 8e-3 0.03993 0.0164 0.05882 0.0261 0.01892 0.01 0.03715 0.0203 0.05449 0.0317 0.01738 0.0115 0.03386 0.0238 0.04953 0.0369 0.01565 0.0131 0.03035 0.0271 0.04423 0.0418 0.01384 0.0147 0.02648 0.0302 0.03829 0.0464 0.01177 0.0161 0.02242 0.0329 0.03206 0.0504 0.0095 0.0174 0.01811 0.0353 0.02557 0.0539m-5.0872-2.5269c0.06311 0.0886 0.12717 0.1902 0.18364 0.27745m1.2924-0.26514-7.25e-4 1e-4 -0.73803 0.19832 1.89e-4 6.9e-4c0.01746 5e-3 0.0345 0.0125 0.05103 0.0196 0.01959 9e-3 0.04253 0.0218 0.05963 0.0335l3.5e-5 2e-5c0.01708 0.0117 0.03337 0.0242 0.04878 0.0376 0.01536 0.0134 0.03282 0.0305 0.04466 0.0465 0.01189 0.016 0.02263 0.0326 0.0324 0.0499 0.0098 0.0172 0.01837 0.0351 0.02586 0.0534l-2.2e-5 4e-5c0.0074 0.0183 0.01383 0.0373 0.01901 0.0564 0.0041 0.0164 0.0077 0.0331 0.01018 0.0498m1.2343-0.0132-7.21e-4 3e-5 -0.72153 0.10596-2.1e-5 7.8e-4c0.01441 0.01 0.028 0.0205 0.04105 0.0315 0.01536 0.0133 0.02972 0.0274 0.04326 0.0423l2.5e-5 2e-5c0.01342 0.0149 0.02624 0.0308 0.03749 0.0473 0.01121 0.0164 0.02134 0.0333 0.03028 0.051 9e-3 0.0176 0.01689 0.0357 0.02371 0.0543 0.0067 0.0186 0.01229 0.0376 0.01667 0.0571l-2.8e-5 3e-5c0.0043 0.0194 0.0076 0.0392 0.0096 0.0594 0.0016 0.0171 0.0023 0.0343 0.0022 0.0518m1.2133-0.0392-7.33e-4 7e-5 -0.70462 0.1495-4e-6 7.6e-4c0.01464 9e-3 0.02886 0.0197 0.04232 0.0303 0.0159 0.0129 0.0308 0.0265 0.04482 0.041l2.8e-5 2e-5c0.01399 0.0143 0.02706 0.0297 0.03901 0.0455 0.01194 0.0159 0.02286 0.0325 0.03269 0.0496 0.0098 0.0172 0.01849 0.0331 0.02709 0.051 0.0087 0.0178 0.01618 0.0361 0.02259 0.0549l-2.7e-5 3e-5c0.0064 0.0188 0.01163 0.0381 0.01562 0.0577 0.0033 0.0166 0.0057 0.0335 0.0072 0.0507m1.222-0.15791-7.1e-4 1.4e-4 -0.69169 0.21935 7.9e-5 7.3e-4c0.01603 8e-3 0.03156 0.0166 0.04649 0.0258 0.01765 0.0112 0.0344 0.0231 0.05028 0.0359l3.3e-5 2e-5c0.01588 0.0127 0.03092 0.0265 0.04502 0.041 0.01404 0.0144 0.02551 0.0264 0.03866 0.0414 0.01319 0.015 0.02553 0.0308 0.03678 0.0472 0.01133 0.0164 0.02138 0.0334 0.03043 0.0511l-2.2e-5 3e-5c9e-3 0.0176 0.01694 0.0359 0.0238 0.0546 0.0056 0.0159 0.01049 0.0321 0.01434 0.0486m1.2095-0.27731-7.12e-4 2.2e-4 -0.66452 0.28172 1.81e-4 6.9e-4c0.0174 6e-3 0.03437 0.0127 0.05084 0.0201 0.01948 9e-3 0.03824 0.0188 0.05621 0.0295l3.8e-5 2e-5c0.01796 0.0106 0.03522 0.0225 0.05153 0.0349 0.01629 0.0125 0.03172 0.0258 0.04625 0.04 0.01453 0.0141 0.02802 0.029 0.04062 0.0446 0.01267 0.0157 0.02509 0.0305 0.03686 0.0467l-2e-5 3e-5c0.0117 0.0161 0.02252 0.033 0.03206 0.0505 8e-3 0.0148 0.01535 0.0301 0.02167 0.0456m1.2321-0.33761-7.07e-4 2.2e-4 -0.6803 0.29751 2.31e-4 6.8e-4c0.01807 5e-3 0.03557 0.0107 0.05273 0.0171 0.02028 8e-3 0.0399 0.0165 0.05884 0.0262h3.3e-5c0.01887 0.01 0.03708 0.0202 0.05451 0.0317 0.01738 0.0115 0.03386 0.0237 0.0495 0.037 0.01564 0.0131 0.03036 0.0271 0.04423 0.0418 0.01384 0.0146 0.02656 0.0302 0.03834 0.0463l-1.8e-5 3e-5c0.0117 0.0161 0.02248 0.033 0.03206 0.0505 8e-3 0.0149 0.01535 0.0301 0.02167 0.0456" stroke-width=".265"/>
   </g>
   <g stroke="#000" stroke-linecap="round" stroke-linejoin="round" stroke-width=".265">
    <path d="m75.029 148.34 0.55598 0.35261c-0.28245-0.076-0.97579 0.66054-0.70824 1.2037l-0.57416-0.21392c-0.3278-0.38758 0.25065-1.35 0.72626-1.3425z" fill="#47fffd"/>
    <path d="m67.584 147.5c-6.2e-4 3e-3 -0.0012 5e-3 -0.0021 9e-3l-0.2362 0.51739c-0.06994-0.48703-0.60988-1.0123-1.0111-1.2358m1.5738 1.4632c-0.0018 3e-3 -0.0035 5e-3 -0.0053 8e-3l-0.40623 0.4576c-0.0095-8e-3 -0.01887-0.0152-0.02844-0.022-0.01597-0.014-0.03165-0.0276-0.04624-0.0426-0.01452-0.0151-0.02836-0.0305-0.04123-0.0466-0.01282-0.0163-0.02109-3e-3 -0.03267-0.0209-0.01188-0.0167-0.02276-0.0341-0.03267-0.0519-0.0058-0.0108-0.0112-0.022-0.01624-0.0332-0.0038-7e-3 -0.0071-0.0142-0.01042-0.0213-0.0079-0.0186-0.01475-0.0376-0.0205-0.0569-0.0058-0.0193-0.01048-0.0387-0.01409-0.0584-0.0015-7e-3 0.0085 0.0398 0.0068 0.0331m0.7553 0.68622c-0.0023 3e-3 -0.0041 4e-3 -0.0064 7e-3l-0.41475 0.48649c-0.0099-7e-3 -0.01969-0.0138-0.02912-0.0212-0.01679-0.0127-0.03251-0.0268-0.04757-0.0413-0.01516-0.0143-0.0328-0.0523-0.04553-0.0685-0.01271-0.0163-0.02452-0.033-0.0353-0.0505-0.01086-0.0173-0.02077-0.0351-0.02962-0.0533-5e-3 -0.0115-0.0099-0.0225-0.01427-0.034-0.0035-7e-3 -0.0063-0.0145-0.0092-0.0218-0.0068-0.019-0.01251-0.0383-0.01717-0.0578-0.0046-0.0195-0.0082-0.0392-0.01064-0.0591-0.0011-7e-3 -0.0016-0.0141-0.0022-0.0213m0.78498 0.78287c-2e-3 3e-3 -0.0038 5e-3 -0.0058 8e-3l-0.35631 0.52421c-0.01084-5e-3 -0.0211-0.012-0.0314-0.0182-0.01794-0.0115-0.03535-0.0236-0.05198-0.0366-0.01675-0.0126-0.03249-0.0267-0.04758-0.0411-0.01513-0.0143-0.02934-0.0295-0.04272-0.0452-0.01341-0.0157-0.02592-0.0321-0.03749-0.049-0.0068-0.0105-0.02163-0.0583-0.02704-0.0694-0.0039-7e-3 -0.0076-0.0139-0.01114-0.021-0.0085-0.0185-0.01596-0.0372-0.02241-0.0563-0.0064-0.019-0.01172-0.0385-0.01599-0.0581-0.0014-7e-3 -0.0028-0.0139-0.0042-0.0209m0.88065 0.71521c-0.0016 3e-3 -3e-3 5e-3 -0.0048 8e-3l-0.2854 0.56186c-0.0113-5e-3 -0.02257-9e-3 -0.0337-0.0144-0.01937-0.01-0.0383-0.0193-0.05664-0.0301-0.01827-0.0109-0.03573-0.0231-0.05278-0.0354-0.01714-0.0121-0.0331-0.026-0.04854-0.04-0.01528-0.0144-0.04593-0.0679-0.05864-0.0841-0.0072-0.0107-0.01467-0.0201-0.02144-0.0306-0.0049-6e-3 -0.0093-0.013-0.01375-0.0197-0.01081-0.0173-0.02062-0.0351-0.02943-0.0534-0.0088-0.0182-0.01662-0.0368-0.02338-0.0558-0.0025-7e-3 -0.0046-0.0135-0.0068-0.0204m0.96298 0.6159c-0.0014 3e-3 -0.0022 5e-3 -0.0036 9e-3l-0.2375 0.56661c-0.0116-4e-3 -0.02311-8e-3 -0.03455-0.0126-0.02008-8e-3 -0.03973-0.0167-0.05853-0.0269-0.01877-0.0103-0.03739-0.0206-0.0551-0.0322-0.01777-0.0115-0.03482-0.0239-0.05114-0.0372-0.01659-0.0126-0.03196-0.027-0.04672-0.0417-0.0088-9e-3 -0.01729-0.0183-0.0254-0.0279-0.0054-6e-3 -0.01092-0.012-0.01633-0.0179-0.01307-0.0159-0.02526-0.0324-0.03646-0.0495-0.01119-0.0171-0.02146-0.0347-0.03072-0.0527-0.0035-6e-3 -0.0065-0.0128-0.0095-0.0194m-0.50567-4.3218-1.3e-5 4e-5c0.01011 0.0145 0.02091 0.0286 0.03233 0.0423 0.01334 0.0157 0.02497 0.0257 0.03889 0.041 0.0139 0.0153 0.02871 0.0299 0.04419 0.0439 0.01558 0.0138 0.03187 0.027 0.04893 0.0393 0.01717 0.0121 0.03172 0.0235 0.04926 0.0353 0.01737 0.0122 0.03562 0.0231 0.05445 0.0331 0.01871 0.0103 0.03853 0.0225 0.05798 0.0316 0.01883 0.0103 0.0387 0.0187 0.05894 0.0263l0.58544 0.31672c0.0065-0.01 0.01285-0.0196 0.01875-0.0298-0.10462-0.50669 0.1441-0.61439 0.29337-0.77472m-0.9583 0.9492c-1e-5 1e-5 -2e-5 2e-5 -2.5e-5 3e-5 0.0041 0.0169 6e-3 0.0272 0.01035 0.0441 0.0052 0.0193 0.01139 0.0385 0.01868 0.0573 0.0073 0.0188 0.01559 0.0372 0.0249 0.0553 0.0093 0.0181 0.01968 0.0356 0.03094 0.0527s0.02394 0.0324 0.03627 0.0489c0.01239 0.0164 0.0256 0.0325 0.03971 0.0478 0.01416 0.0151 0.02907 0.0299 0.04483 0.0438 0.01573 0.0139 0.03225 0.0271 0.04949 0.0395l0.51381 0.37634c8e-3 -9e-3 0.01554-0.0179 0.02288-0.0273 0.0128-0.0164 0.0248-0.0335 0.03576-0.051 0.01091-0.0175 0.02093-0.0354 0.03-0.0539 9e-3 -0.0183 0.01696-0.0372 0.02382-0.0562 7e-3 -0.0191 0.01273-0.0385 0.01761-0.058 0.0026-0.012 0.0049-0.0241 0.0067-0.0361 0.0017-8e-3 3e-3 -0.0154 0.0043-0.0231 0.0026-0.0199 0.0032-0.0457 0.0034-0.0657 1.34e-4 -0.02-6.92e-4 -0.0399-0.0027-0.0599-0.0019-0.02-0.0051-0.0397-0.0093-0.0594-0.0042-0.0196-0.0095-0.039-0.01581-0.0582-0.0063-0.0192-0.01785-0.0685-0.02719-0.0864-0.0093-0.0181-0.01962-0.0357-0.03096-0.0527-0.01129-0.0171-0.02356-0.0336-0.03665-0.0497-0.01314-0.0159-0.0271-0.0314-0.04199-0.0459-0.01466-0.0151-0.03052-0.0287-0.04692-0.042-0.01667-0.0127-0.04184-0.0669-0.0606-0.0773l-0.0089-4e-3m-0.52478 0.97225c-1.2e-5 2e-5 -2.3e-5 2e-5 -3.1e-5 3e-5 0.0018 0.0172 0.0042 0.0344 0.0076 0.0515 4e-3 0.0197 0.0091 0.0391 0.01524 0.0583 0.0062 0.0191 0.01338 0.038 0.02165 0.0565 0.0083 0.0185 0.01754 0.0366 0.02785 0.0541 0.01027 0.0176 0.02152 0.0348 0.03368 0.0514 0.01219 0.0166 0.02544 0.0324 0.04005 0.0473 0.01454 0.015 0.03001 0.0291 0.04622 0.0425 0.01594 0.014 0.03313 0.0261 0.05073 0.0381l0.53314 0.33175c0.0071-9e-3 0.01388-0.0192 0.02036-0.0289 0.01126-0.0174 0.02166-0.0353 0.031-0.0535 0.0094-0.0183 0.01763-0.0369 0.02495-0.0559 0.0073-0.019 0.01355-0.0383 0.01869-0.058 0.0052-0.0195 0.0156-9e-3 0.0197-0.0286 0.0022-0.012 4e-3 -0.0242 0.0053-0.0362 0.0013-8e-3 0.0025-0.0155 0.0034-0.0233 0.0018-0.02 0.0025-0.04 0.0021-0.0601-4.15e-4 -0.0201-2e-3 -0.0399-0.0046-0.0598-0.0027-0.0198-0.0063-0.0396-0.01114-0.059-0.0048-0.0195-0.0107-0.0388-0.01766-0.0576-0.0069-0.0189-0.01033-0.0125-0.01868-0.0307-0.0083-0.0185-0.01755-0.0366-0.02784-0.0542-0.01027-0.0176-0.02155-0.0348-0.03371-0.0514-0.01218-0.0166-0.02528-0.0326-0.0392-0.048-0.01399-0.0154-0.02882-0.0301-0.0444-0.0442-0.01543-0.0144-0.03199-0.0274-0.04911-0.0399l-0.0077-6e-3m-0.52407 0.91108c-7e-6 1e-5 -1.7e-5 2e-5 -2.9e-5 4e-5 0.0033 0.017 0.0074 0.0338 0.01227 0.0506 0.0058 0.0192 0.01267 0.0382 0.02053 0.0569 0.0079 0.0186 0.01685 0.0368 0.02673 0.0546 0.01 0.0177 0.02312 0.0374 0.03596 0.0536 0.01286 0.0161 0.02665 0.0315 0.04119 0.0465 0.0145 0.015 0.03001 0.0291 0.04627 0.0423 0.01595 0.0139 0.03314 0.0261 0.05075 0.0379 0.01776 0.0115 0.03578 0.0231 0.05478 0.033l0.57232 0.26964c0.0059-0.0101 0.01133-0.0205 0.01648-0.0309 9e-3 -0.0184 0.01702-0.0374 0.02394-0.0564 7e-3 -0.0191 0.01281-0.0385 0.0177-0.0582 0.0048-0.0197 0.0085-0.0396 0.01117-0.0594 0.0026-0.0199 0.0042-0.04 0.0046-0.06-2.9e-5 -0.0121 0.01169 0.0157 0.01179 3e-3 4.22e-4 -8e-3 6.42e-4 -0.0157 7.96e-4 -0.0234-4.15e-4 -0.02-2e-3 -0.0399-0.0047-0.0598s-0.0064-0.0395-0.01123-0.0591c-0.0048-0.0195-0.01076-0.0387-0.01772-0.0576-7e-3 -0.0189-0.01497-0.0375-0.02399-0.0557-9e-3 -0.0182-0.01905-0.0358-0.03005-0.053-0.01102-0.0172-0.02297-0.0339-0.03581-0.0501-0.01287-0.0161-0.01779 3e-3 -0.03136-0.0121-0.01369-0.0155-0.02819-0.0304-0.04347-0.0448-0.01527-0.0144-0.03147-0.0278-0.04833-0.0405-0.01686-0.0128-0.03442-0.0248-0.05262-0.0359l-0.0085-4e-3m-0.41278 0.94465c-8e-6 2e-5 -1.4e-5 2e-5 -2.4e-5 4e-5 0.0055 0.0165 0.01166 0.0328 0.01864 0.0489 0.0082 0.0184 0.01744 0.0366 0.02771 0.0541 0.01021 0.0176 0.02142 0.0348 0.03357 0.0513 0.01212 0.0166 0.02677 0.0352 0.04172 0.0497 0.01504 0.0143 0.03069 0.0283 0.04724 0.0412 0.01667 0.0126 0.03375 0.0252 0.05164 0.0367 0.01785 0.0115 0.03628 0.0224 0.0555 0.0318 0.01938 9e-3 0.03867 0.0187 0.05891 0.0263l0.59762 0.20438c0.0044-0.0108 0.0084-0.0215 0.01221-0.0325 0.0064-0.0193 0.01193-0.0389 0.0161-0.0587 0.0042-0.0197 0.0076-0.0397 0.0097-0.0597s0.0207-4e-3 0.02203-0.0243c0.0013-0.02 0.0014-0.0401 5.11e-4 -0.0602-8.15e-4 -0.0122-2e-3 -0.0243-0.0037-0.0364-4.44e-4 -8e-3 -0.0014-0.0156-0.0024-0.0234-0.0031-0.0198-0.0074-0.0394-0.01271-0.0588-0.0054-0.0194-0.01168-0.0385-0.01917-0.0571-0.0074-0.0188-0.01593-0.0371-0.02538-0.0551-0.0095-0.018-0.01994-0.0354-0.03138-0.0524-0.01141-0.017-0.02371-0.0334-0.03701-0.0491-0.01327-0.0158-0.02736-0.0311-0.04236-0.0454-0.01505-0.0143-0.01432 9e-3 -0.0301-4e-3 -0.01562-0.0138-0.0319-0.0272-0.04893-0.0397-0.01724-0.0121-0.03482-0.0242-0.05323-0.0349-0.01834-0.0109-0.03749-0.0206-0.05681-0.0301l-9e-3 -4e-3m-0.29318 0.98414-1.7e-5 4e-5c0.0076 0.0157 0.01602 0.0312 0.02514 0.0463 0.01066 0.0174 0.0223 0.0342 0.03484 0.0504 0.01252 0.0163 0.02598 0.0319 0.04028 0.0469 0.01427 0.0151 0.02942 0.0293 0.04534 0.0428 0.01575 0.0139 0.03257 0.0264 0.04989 0.0385 0.01734 0.0121 0.03535 0.0234 0.05403 0.0337s0.03782 0.02 0.05768 0.0283c0.01972 9e-3 0.04008 0.016 0.06053 0.0231l0.61762 0.20275c0.0044-0.0108 0.0084-0.0215 0.01221-0.0325 0.0065-0.0194 0.01193-0.0389 0.01617-0.0588 0.0042-0.0197 0.0076-0.0397 0.0097-0.0597s0.0032-0.0402 0.0031-0.0602c-9.1e-5 -0.0201-0.0013-0.0401-0.0035-0.0601-0.0017-0.0121-0.0037-0.0241-0.0062-0.036-8.96e-4 -8e-3 -0.0025-0.0155-0.0039-0.0231-0.0045-0.0195-0.01003-0.0389-0.01662-0.0579-0.0066-0.019-0.01426-0.0377-0.02298-0.0559-0.0087-0.0182-0.01837-0.0361-0.02904-0.0534-0.01066-0.0174-0.02229-0.0342-0.03484-0.0504-0.01251-0.0163-0.02594-0.0319-0.04023-0.0469-0.01428-0.0151-0.02943-0.0293-0.04535-0.0429-0.01577-0.0139-0.0326-0.0264-0.04995-0.0385-0.01732-0.0121-0.03532-0.0234-0.054-0.0336-0.01869-0.0103-0.03784-0.02-0.05772-0.0283-0.01973-9e-3 -0.04009-0.016-0.06055-0.0231l-0.0093-3e-3m-1.7223-4.0519c0.0068 0.019 0.01296 0.0402 0.01624 0.0601 0.0032 0.0199 0.0054 0.0398 0.0064 0.06 1e-3 0.0201 9.58e-4 0.0404-1.47e-4 0.0605-0.0012 0.0202-0.0077 0.0366-0.01247 0.0564m-0.31443 0.89449c-0.0036-0.0148-0.0066-0.0297-9e-3 -0.0446-0.0031-0.0198-0.0051-0.0397-6e-3 -0.0597-8.95e-4 -0.02-6.92e-4 -0.0399 6.48e-4 -0.06 0.0013-0.02 0.0038-0.04 0.0072-0.0598 0.0035-0.0199 0.02053 9e-3 0.02447-0.0104 4e-3 -0.0197 0.0091-0.0394 0.01522-0.0588 0.0063-0.0194 0.02601-5e-3 0.033-0.0246 7e-3 -0.0192 0.01493-0.038 0.02405-0.0565l0.23416-0.51772 7.32e-4 1.4e-4c0.0098 0.0142 0.02032 0.0279 0.03143 0.0411 0.01333 0.0157 0.02508 0.0256 0.03894 0.041 5e-6 2e-5 1.4e-5 2e-5 2.1e-5 3e-5 0.01389 0.0153 0.02867 0.0299 0.04416 0.0438 0.01559 0.0138 0.03189 0.027 0.04896 0.0393 0.01717 0.0121 0.03182 0.0234 0.04933 0.0353 0.01736 0.0122 0.0356 0.0231 0.05438 0.0332 1.3e-5 0 2.3e-5 0 3.4e-5 -1e-5 0.01872 0.0103 0.0386 0.0226 0.05805 0.0316 0.01654 8e-3 0.03289 0.0157 0.05001 0.0222 7e-3 0.016 0.0131 0.0324 0.0185 0.0489 0.0061 0.0191 0.01137 0.0438 0.014 0.0636 0.0026 0.0199 0.0042 0.0398 0.0045 0.0599 4.15e-4 0.0201-3.8e-4 0.0441-0.0039 0.064-0.0035 0.0199-0.0081 0.0395-0.01373 0.0589-0.0057 0.0194-0.01245 0.0386-0.02014 0.0575-0.0078 0.0188-0.01662 0.0374-0.02638 0.0555-0.0098 0.0182-0.02066 0.0358-0.03235 0.0529m-0.54558 0.89397c-0.0014-0.0151-0.0024-0.0302-0.0025-0.0454-2.58e-4 -0.02 5.92e-4 -0.04 0.0026-0.06 0.0021-0.02 5e-3 -0.0398 0.0092-0.0595 0.0042-0.0196 0.0094-0.0392 0.01573-0.0585 0.0063-0.0193 0.01371-0.0382 0.02208-0.0569 0.0084-0.0186 0.01815-0.0317 0.02845-0.0495 0.01028-0.0179 0.02151-0.0353 0.03365-0.0521 0.01218-0.0169 0.02519-0.0332 0.03917-0.0489l0.4051-0.45807 6.32e-4 3.6e-4c4e-3 0.0164 0.0058 0.0263 0.01 0.0427 0.0051 0.0194 0.01137 0.0386 0.01867 0.0573l2e-6 5e-5c0.0073 0.0187 0.01555 0.0372 0.02485 0.0553s0.01969 0.0356 0.03099 0.0526c0.01126 0.0171 0.02401 0.0324 0.03633 0.0489 0.01238 0.0164 0.02558 0.0324 0.03964 0.0477 1.1e-5 0 2.4e-5 0 3.7e-5 -1e-5 0.0141 0.0153 0.02907 0.0299 0.04483 0.0438 0.01353 0.0115 0.02742 0.0229 0.04191 0.0335 0.0022 0.0171 0.0034 0.0345 4e-3 0.0517 4.15e-4 0.02-1.9e-4 0.04-0.0021 0.0601-0.0018 0.02-0.0048 0.0405-9e-3 0.0602s-0.0094 0.0392-0.01573 0.0585c-0.0063 0.0193-0.01372 0.0382-0.02205 0.0568-0.0084 0.0186-0.01783 0.0368-0.0283 0.0546-0.01045 0.0178-0.02183 0.0351-0.03411 0.0518-0.01238 0.0168-0.02553 0.033-0.03962 0.0486m-0.52404 0.96299c-0.0029-0.015-0.0051-0.0299-0.0067-0.045-0.0021-0.0199-0.0031-0.0399-0.0029-0.06 1.35e-4 -0.02 0.0014-0.0401 0.0037-0.06 0.0023-0.02 0.0011-0.0705 0.0066-0.09 0.0056-0.0195 0.01221-0.0386 0.01977-0.0576 0.0076-0.0188 0.01632-0.0374 0.02599-0.0555 0.0097-0.0181 0.02035-0.0358 0.03202-0.053 0.01159-0.0172 0.02413-0.0338 0.03761-0.0499l0.41497-0.48613 5.78e-4 4.3e-4c0.0018 0.0168 0.0041 0.0335 0.0073 0.0501 4e-3 0.0197 0.0091 0.0391 0.01525 0.0583 3e-6 1e-5 3e-6 3e-5 3e-6 4e-5 0.0061 0.0192 0.01334 0.038 0.0216 0.0565 0.0083 0.0184 0.01755 0.0366 0.02786 0.0542 0.01026 0.0177 0.02152 0.0348 0.03368 0.0514 0.01218 0.0166 0.02538 0.0324 0.03993 0.0474 1.3e-5 -1e-5 2.3e-5 -1e-5 3.4e-5 -1e-5 0.01453 0.015 0.03001 0.0291 0.04622 0.0425 0.01399 0.0109 0.02814 0.0221 0.04295 0.0323 0.0028 0.0171 0.0046 0.0343 0.0056 0.0516 0.0011 0.02 1e-3 0.04-1.77e-4 0.0601-0.0011 0.02-0.0034 0.0399-0.0067 0.0598-0.0034 0.0198-0.0079 0.0395-0.01334 0.0589-0.0056 0.0195-0.01093 0.0373-0.01775 0.0564-0.0067 0.0193-0.01443 0.038-0.02318 0.0566-0.0088 0.0185-0.01856 0.0366-0.02928 0.0543-0.01072 0.0176-0.0224 0.0349-0.03505 0.0515m-0.40195 1.0162c-0.0048-0.0145-0.0089-0.0291-0.0124-0.0439-0.0046-0.0195-0.0081-0.0392-0.01057-0.0591-0.0024-0.0198-0.0038-0.0398-4e-3 -0.0599-2.58e-4 -0.02 6.9e-4 -0.0402 0.0026-0.0601 0.0021-0.02-0.0058-0.0779-3.35e-4 -0.0974 0.0056-0.0195 0.01207-0.0388 0.01961-0.0576 0.0076-0.0189 0.01627-0.0376 0.02593-0.0558 0.0097-0.0182 0.02023-0.0359 0.03184-0.0532l0.35673-0.52377 6.23e-4 3.8e-4c0.0032 0.0165 0.0072 0.033 0.01191 0.0492 0.0058 0.0192 0.01269 0.0381 0.02055 0.0568 1e-6 2e-5 4e-6 3e-5 7e-6 3e-5 0.0079 0.0186 0.01681 0.0368 0.02671 0.0546s0.02307 0.0374 0.03592 0.0536c0.01286 0.0161 0.0266 0.0316 0.04119 0.0465 0.01452 0.015 0.03002 0.029 0.04618 0.0424 1.2e-5 0 2.7e-5 -2e-5 3.3e-5 -1e-5 0.01595 0.0139 0.03314 0.0261 0.05076 0.0379 0.0151 0.01 0.03039 0.0195 0.04637 0.0281 0.0046 0.0168 0.0084 0.0336 0.01135 0.0508 0.0033 0.0198 0.0055 0.0397 0.0065 0.0598 0.0011 0.02 0.0011 0.04-2e-5 0.0601-0.0011 0.02-0.0022 0.0365-0.0042 0.0564-0.0021 0.02-5e-3 0.0399-0.0093 0.0597-0.0042 0.0197-0.0094 0.0393-0.01575 0.0587-0.0064 0.0194-0.01374 0.0383-0.02216 0.0571-0.0084 0.0187-0.01782 0.0369-0.02824 0.0549m-0.2715 1.0578c-0.0067-0.0138-0.01275-0.0279-0.01821-0.0422-0.0072-0.0188-0.0134-0.0379-0.01844-0.0575-0.0051-0.0194-0.02599-0.078-0.02756-0.098-0.0016-0.02-0.0021-0.04-0.0015-0.0601 6.25e-4 -0.0201 0.0024-0.0402 0.0052-0.0601 0.0029-0.02 0.0068-0.0397 0.01173-0.0595 5e-3 -0.0197 0.01114-0.039 0.01823-0.0583 0.0071-0.0191 0.01521-0.0379 0.02441-0.0564l0.28595-0.56146 6.55e-4 3.1e-4c0.0053 0.0161 0.01134 0.0319 0.01812 0.0475 0.0082 0.0184 0.01747 0.0365 0.0277 0.0541 2e-6 1e-5 7e-6 2e-5 1e-5 3e-5 0.01021 0.0176 0.02139 0.0348 0.03351 0.0513 0.01216 0.0165 0.02668 0.0353 0.04168 0.0497 0.01503 0.0143 0.03069 0.0283 0.0472 0.0413 0.01667 0.0126 0.0337 0.0253 0.05159 0.0368l3.6e-5 -2e-5c0.01786 0.0115 0.03628 0.0224 0.05554 0.0317 0.01653 8e-3 0.03287 0.0157 0.04971 0.0228 0.0068 0.0161 0.01287 0.0324 0.01817 0.049 0.0059 0.0192 0.01082 0.0387 0.01457 0.0584 0.0038 0.0197 0.0065 0.0396 0.0081 0.0595 0.0015 0.02 2e-3 0.04 0.0014 0.0601-6.25e-4 0.0201-0.0024 0.0401-0.0052 0.0601-0.0029 0.02-0.0052 0.0395-0.0088 0.0593-0.0036 0.0199-0.0084 0.0396-0.01432 0.0591-0.0059 0.0194-0.0127 0.0387-0.02062 0.0576m-0.21818 1.0253c-0.0066-0.0138-0.01275-0.0279-0.01822-0.0421-0.0072-0.0188-0.01341-0.0379-0.01851-0.0574-0.0051-0.0194-0.0091-0.0391-0.01202-0.0589-0.0029-0.0199-0.0048-0.0398-0.0055-0.0599-7.29e-4 -0.0201-3.5e-4 -0.0401 0.0012-0.0603 0.0014-0.0201 0.0041-0.0401 0.0077-0.0599 0.0036-0.0199 0.0084-0.0397 0.01432-0.0591 0.0059-0.0195 0.0127-0.0387 0.02062-0.0576l0.23746-0.56644 6.91e-4 2.4e-4c0.0074 0.0154 0.01558 0.0303 0.02439 0.0451 0.01066 0.0174 0.0223 0.0341 0.0348 0.0504 7e-6 1e-5 1.3e-5 2e-5 1.6e-5 4e-5 0.01251 0.0163 0.02594 0.0319 0.04023 0.0469 0.01427 0.0151 0.02943 0.0293 0.04536 0.0428 0.01574 0.0139 0.03257 0.0264 0.04989 0.0385 0.01733 0.0121 0.03534 0.0234 0.054 0.0337 1.3e-5 -2e-5 2.1e-5 -1e-5 3.3e-5 -2e-5 0.01868 0.0103 0.03782 0.02 0.05768 0.0283 0.01662 8e-3 0.03389 0.0137 0.0513 0.0195 0.0079 0.0157 0.01501 0.0317 0.02143 0.0478 0.0072 0.0188 0.0134 0.038 0.01851 0.0574 0.0051 0.0194 0.0091 0.0391 0.01207 0.0589 0.0029 0.0199 0.0047 0.0398 0.0055 0.0599 7.39e-4 0.02 3.5e-4 0.0401-0.0011 0.0602-0.0014 0.0201-0.0041 0.0401-0.0077 0.0599-0.0036 0.0199-0.0084 0.0396-0.01432 0.0592-0.0059 0.0194-0.01269 0.0387-0.02062 0.0576m-1.5016-5.0714c0.0068 0.019 0.01297 0.0402 0.01624 0.0601 0.0033 0.0199 0.0054 0.0399 0.0065 0.06l-2.6e-5 3e-5c0.0011 0.02 9.57e-4 0.0404-1.48e-4 0.0605-0.0011 0.017-0.0068 0.0306-0.01071 0.0472m0.97095 0.61574-5.1e-4 -3.9e-4 -0.58608-0.31552-3.5e-4 6.4e-4c0.0067 0.0157 0.01278 0.0315 0.01805 0.0475 0.0061 0.0192 0.01136 0.0438 0.01402 0.0636l7e-6 4e-5c0.0026 0.0198 0.0042 0.0398 0.0045 0.0599 4.15e-4 0.02-3.89e-4 0.0442-0.0039 0.064-0.0035 0.0199-0.0081 0.0395-0.01373 0.0589-0.0056 0.0195-0.01237 0.0386-0.02014 0.0575l-3.5e-5 2e-5c-0.0078 0.0188-0.01662 0.0374-0.02638 0.0555-0.0085 0.0152-0.01755 0.0304-0.0273 0.0448m0.7656 0.77293-4.6e-4 -4.3e-4 -0.51375-0.37616-5.4e-4 5.9e-4c0.0022 0.0168 0.0034 0.0335 0.0039 0.0503 4.15e-4 0.0201-2.69e-4 0.04-2e-3 0.06l4e-6 3e-5c-0.0018 0.02-0.0047 0.0404-0.0089 0.0601s-0.0094 0.0393-0.01581 0.0585c-0.0063 0.0193-0.01372 0.0383-0.02205 0.0568-0.0084 0.0187-0.01783 0.0368-0.02823 0.0545l-3.5e-5 1e-5c-0.01045 0.0178-0.02183 0.0351-0.03411 0.0518-0.01055 0.0142-0.02173 0.0279-0.03356 0.0412m0.77028 0.73951-4.97e-4 -4.1e-4 -0.5327-0.33192-5.19e-4 6e-4c0.0026 0.0166 0.0044 0.0335 0.0055 0.0502 0.0011 0.02 1e-3 0.04-1.68e-4 0.06l8e-6 3e-5c-0.0011 0.02-0.0034 0.04-0.0067 0.0597-0.0034 0.0198-0.0079 0.0395-0.01342 0.0589-0.0056 0.0195-0.01093 0.0373-0.01775 0.0564-0.0067 0.0193-0.01435 0.038-0.02318 0.0566h-3.4e-5c-0.0088 0.0185-0.01853 0.0367-0.02932 0.0543-0.0092 0.0149-0.01909 0.0294-0.02969 0.0436m0.85556 0.65362-5.26e-4 -3.4e-4 -0.57184-0.26994-4.46e-4 6.2e-4c0.0045 0.0163 0.0081 0.0328 0.01109 0.0494 0.0033 0.0198 0.0055 0.0396 0.0066 0.0595l7e-6 4e-5c0.0011 0.0199 0.0011 0.0401-2.1e-5 0.0601-0.0011 0.02-0.0022 0.0365-0.0042 0.0564-0.0021 0.02-0.0051 0.0399-0.0093 0.0597-0.0041 0.0198-0.0094 0.0393-0.01575 0.0587l-3.6e-5 1e-5c-0.0063 0.0193-0.01377 0.0384-0.02216 0.0571-0.0073 0.0157-0.01519 0.0313-0.02396 0.0465m0.92834 0.5538-5.85e-4 -2.8e-4 -0.5972-0.2047-3.56e-4 6.6e-4c0.0066 0.0157 0.01252 0.0316 0.01767 0.0477 6e-3 0.0192 0.01078 0.0387 0.01458 0.0583l1.1e-5 4e-5c0.0038 0.0196 0.0065 0.0396 0.0081 0.0595 0.0015 0.02 2e-3 0.04 0.0014 0.0602-6.24e-4 0.0201-0.0024 0.0401-0.0052 0.0601-0.0028 0.0201-0.0052 0.0394-0.0088 0.0593l-3.1e-5 1e-5c-0.0037 0.0199-0.0084 0.0397-0.01432 0.0591-5e-3 0.0165-0.01087 0.0329-0.01745 0.0489m0.98283 0.52174-5.84e-4 -2.8e-4 -0.61751-0.20256-3.13e-4 6.8e-4c0.0077 0.0153 0.01461 0.0308 0.02084 0.0466 0.0073 0.0187 0.01337 0.0379 0.01846 0.0574l1.9e-5 2e-5c0.0051 0.0194 0.0091 0.0391 0.01208 0.0589 0.0029 0.0199 0.0047 0.0399 0.0054 0.0599 7.29e-4 0.0201 3.49e-4 0.0401-0.0011 0.0602-0.0014 0.0201-4e-3 0.0401-0.0077 0.06l-3e-5 1e-5c-0.0037 0.0199-0.0084 0.0397-0.01432 0.0591-5e-3 0.0165-0.01087 0.0329-0.01745 0.0489" fill="#fff"/>
    <path d="m70.734 153.73c0.28085 0.44254-0.41215 1.0074-0.92181 1.1199-0.50966 0.11249-1.3625-0.15937-1.2797-0.65442 0.0828-0.49508 0.33-1.3266 0.83966-1.439 0.50966-0.11249 1.0756 0.52248 1.3619 0.97357z" fill="#fff"/>
    <path d="m69.883 152.32 0.17999 0.59183c-0.06423-0.18499-1.009-0.0347-1.3472 0.4019l-0.2119-0.55349c0.03351-0.48363 1.0614-0.76105 1.3791-0.44041z" fill="#47fffd"/>
   </g>
  </g>
 </g>
</svg>
