<?xml version="1.0" encoding="UTF-8" standalone="no"?>
<!-- Created with Inkscape (http://www.inkscape.org/) -->

<svg
   xmlns:dc="http://purl.org/dc/elements/1.1/"
   xmlns:cc="http://creativecommons.org/ns#"
   xmlns:rdf="http://www.w3.org/1999/02/22-rdf-syntax-ns#"
   xmlns:svg="http://www.w3.org/2000/svg"
   xmlns="http://www.w3.org/2000/svg"
   xmlns:sodipodi="http://sodipodi.sourceforge.net/DTD/sodipodi-0.dtd"
   xmlns:inkscape="http://www.inkscape.org/namespaces/inkscape"
   sodipodi:docname="SkyKid-dist-coloured.svg"
   inkscape:version="0.92.1 r15371"
   id="svg8"
   version="1.1"
   viewBox="0 0 40.326599 28.966057"
   height="28.966057mm"
   width="40.326599mm">
  <sodipodi:namedview
     inkscape:snap-bbox-midpoints="true"
     inkscape:snap-bbox-edge-midpoints="true"
     inkscape:bbox-nodes="true"
     inkscape:bbox-paths="true"
     inkscape:snap-bbox="true"
     inkscape:object-paths="true"
     inkscape:snap-intersection-paths="true"
     inkscape:snap-smooth-nodes="true"
     showguides="false"
     inkscape:window-maximized="1"
     inkscape:window-y="-9"
     inkscape:window-x="-9"
     inkscape:window-height="1001"
     inkscape:window-width="1920"
     showgrid="false"
     inkscape:current-layer="layer1"
     inkscape:document-units="mm"
     inkscape:cy="-39.756153"
     inkscape:cx="209.39045"
     inkscape:zoom="1.4142136"
     inkscape:pageshadow="2"
     inkscape:pageopacity="0.0"
     borderopacity="1.0"
     bordercolor="#666666"
     pagecolor="#ffffff"
     id="base"
     inkscape:snap-global="false" />
  <defs
     id="defs2">
    <inkscape:perspective
       sodipodi:type="inkscape:persp3d"
       inkscape:vp_x="0 : 148.49999 : 1"
       inkscape:vp_y="0 : 999.99995 : 0"
       inkscape:vp_z="209.99999 : 148.49999 : 1"
       inkscape:persp3d-origin="105 : 98.999996 : 1"
       id="perspective909" />
  </defs>
  <metadata
     id="metadata5">
    <rdf:RDF>
      <cc:Work
         rdf:about="">
        <dc:format>image/svg+xml</dc:format>
        <dc:type
           rdf:resource="http://purl.org/dc/dcmitype/StillImage" />
        <dc:title></dc:title>
      </cc:Work>
    </rdf:RDF>
  </metadata>
  <g
     id="layer1"
     inkscape:groupmode="layer"
     inkscape:label="Layer 1"
     transform="translate(-50.312266,-139.54526)">
    <path
       id="path1275"
       d="m 71.644191,160.52767 c -0.655126,0 -1.284609,0.0671 -1.876021,0.1881 -0.629456,-0.0897 2.489675,-2.49504 -1.423515,-2.41803 -3.91319,0.077 -8.704054,3.88472 -8.411152,6.86636 0.177246,1.80433 5.860814,2.50215 7.697247,2.94067 1.836434,0.43853 3.251754,0.22972 4.025134,0.18737 0.773364,-0.0423 7.545174,-1.03562 7.261953,-4.005 -0.200172,-2.09866 -3.908098,-3.75946 -7.273646,-3.75946 z"
       style="opacity:1;fill:#6d9095;fill-opacity:1;stroke:#000000;stroke-width:0.26499999;stroke-linecap:round;stroke-linejoin:round;stroke-miterlimit:4;stroke-dasharray:none;stroke-dashoffset:0;stroke-opacity:1"
       inkscape:connector-curvature="0"
       sodipodi:nodetypes="cccszsssc"
       inkscape:export-filename="C:\Users\nailu\Documents\Drawings\sketches\dist\SkyKid.png"
       inkscape:export-xdpi="590.92358"
       inkscape:export-ydpi="590.92358" />
    <path
       sodipodi:nodetypes="csssssc"
       inkscape:connector-curvature="0"
       id="path841"
       d="m 70.040485,144.65908 c 0.291596,2.84709 -2.716616,5.41497 -5.644495,5.41497 -1.46394,0 -2.51584,-0.26399 -3.049217,-1.16736 -0.533376,-0.90336 -0.01369,-1.99506 -0.660618,-3.41861 -0.59204,-1.30277 0.256739,-3.19287 1.095119,-4.15529 0.83838,-0.96243 2.079195,-1.56896 3.543135,-1.56896 2.92788,0 4.424484,2.04817 4.716076,4.89525 z"
       style="opacity:1;fill:#70645d;fill-opacity:1;stroke:#000000;stroke-width:0.30000001;stroke-linecap:round;stroke-linejoin:round;stroke-miterlimit:4;stroke-dasharray:none;stroke-dashoffset:0;stroke-opacity:1"
       inkscape:export-filename="C:\Users\nailu\Documents\Drawings\sketches\dist\SkyKid.png"
       inkscape:export-xdpi="590.92358"
       inkscape:export-ydpi="590.92358" />
    <ellipse
       style="opacity:1;fill:#ffffff;fill-opacity:1;stroke:#171717;stroke-width:0.26500028;stroke-miterlimit:4;stroke-dasharray:none;stroke-dashoffset:0;stroke-opacity:1"
       id="path45"
       cx="35.443031"
       cy="155.20949"
       rx="0.40558451"
       ry="0.66506034"
       transform="matrix(0.9839087,-0.17867195,0.18068222,0.98354153,0,0)"
       inkscape:export-filename="C:\Users\nailu\Documents\Drawings\sketches\dist\SkyKid.png"
       inkscape:export-xdpi="590.92358"
       inkscape:export-ydpi="590.92358" />
    <path
       style="opacity:1;fill:#ffc107;fill-opacity:1;stroke:none;stroke-width:0.26499996;stroke-miterlimit:4;stroke-dasharray:none;stroke-dashoffset:0;stroke-opacity:1"
       d="m 63.283314,147.9408 c 0.0011,0.27149 -0.125,0.31599 -0.295936,0.32632 -0.170934,0.0103 -0.295901,-0.0242 -0.296953,-0.29566 -0.0011,-0.27149 0.325826,-0.6698 0.325826,-0.6698 0,0 0.26601,0.36765 0.267063,0.63914 z"
       id="ellipse963"
       inkscape:connector-curvature="0"
       sodipodi:nodetypes="ccccc"
       inkscape:export-filename="C:\Users\nailu\Documents\Drawings\sketches\dist\SkyKid.png"
       inkscape:export-xdpi="590.92358"
       inkscape:export-ydpi="590.92358" />
    <path
       style="fill:#64b79b;fill-opacity:1;stroke:#000000;stroke-width:0.26499999;stroke-linecap:round;stroke-linejoin:round;stroke-miterlimit:4;stroke-dasharray:none;stroke-opacity:1"
       d="m 67.922247,148.02071 c -10.208337,5.26374 -11.880559,6.4051 -17.477486,14.32265 0.295053,0.24088 0.75375,0.88042 1.048404,1.07084 1.10839,-2.42859 3.010171,-4.70819 3.070206,-4.66553 -1.155041,1.62831 -2.066235,3.33298 -2.709778,4.73791 0.422782,0.30627 0.781764,0.33607 1.286656,0.41617 1.277337,-2.37708 3.908946,-6.03461 3.950618,-5.99294 -1.1357,2.00019 -2.509253,4.24959 -3.255174,6.18981 1.235477,0.42432 1.586854,0.34767 2.803586,0.32698 1.174191,-2.64162 3.190189,-5.53621 3.243913,-5.45986 -1.124566,1.80194 -1.926585,3.64389 -2.322258,5.4881 1.725096,-0.0543 2.973469,-0.25371 4.633867,-0.16661 0.704334,-2.43716 1.266314,-3.22986 1.267862,-3.22924 -0.265253,1.02757 -0.642067,2.05514 -0.707398,3.0827 1.018768,0.0712 1.467083,0.35287 2.451902,0.84425 0.301884,-2.55132 1.374849,-6.11904 1.424498,-6.09612 -0.309928,2.00127 -0.719275,4.1815 -0.88891,5.93024 0.644192,0.34171 1.041876,0.92217 1.668873,1.54521 0.172098,-2.63998 0.722122,-6.31111 0.722122,-6.31111 l -0.415626,6.62123 c 0.04432,0.0466 0.0891,0.0872 0.133326,0.13539 0.615085,0.67095 0.939102,0.82533 1.830277,1.03505 -0.239371,-2.65126 0.0091,-6.41294 0.0091,-6.41294 0.05489,2.31389 0.203742,4.60845 0.631264,6.76747 1.323557,0.23985 2.62174,-0.3731 4.744635,-1.31679 -0.392745,-2.09945 -1.186482,-4.73405 -1.214988,-4.75401 0.683964,1.62754 1.419918,3.24641 1.849057,4.91642 0.823724,-0.37361 1.65177,-1.11567 2.61993,-1.69048 -1.143145,-2.33773 -2.631003,-4.85493 -2.631003,-4.85493 1.096396,1.42506 2.161426,3.0697 3.213457,4.8053 1.091237,-0.65529 1.27576,-1.2913 2.567033,-2.21747 -1.1922,-2.46321 -4.163463,-4.40032 -4.218761,-4.3584 2.188126,0.88956 3.60711,2.37826 4.763143,4.11229 1.110615,-0.79974 2.377581,-1.36367 3.648679,-2.37582 -3.243668,-0.95986 -5.46286,-3.14915 -5.337437,-3.24949 1.873297,1.0726 3.404044,2.48776 5.845122,2.99258 1.039431,-0.83004 1.320649,-1.45046 2.474193,-2.42901 -3.388091,0.20975 -6.881048,-1.36782 -6.841369,-1.45078 2.307789,0.76105 4.745347,1.25257 7.461338,1.16582 0.406582,-0.34588 0.820065,-0.70032 1.241268,-1.06505 -15.491512,0.54315 -10.617557,-8.04922 -22.58415,-8.40983 z"
       id="path995"
       inkscape:connector-curvature="0"
       sodipodi:nodetypes="ccccccccccccccccccccsccccccccccccccccccccc"
       inkscape:export-filename="C:\Users\nailu\Documents\Drawings\sketches\dist\SkyKid.png"
       inkscape:export-xdpi="590.92358"
       inkscape:export-ydpi="590.92358" />
    <g
       id="g1281"
       style="fill:#ffffe5;fill-opacity:1;stroke:#0e0e0e;stroke-opacity:1"
       inkscape:export-filename="C:\Users\nailu\Documents\Drawings\sketches\dist\SkyKid.png"
       inkscape:export-xdpi="590.92358"
       inkscape:export-ydpi="590.92358">
      <path
         style="opacity:1;fill:#ffffe5;fill-opacity:1;stroke:#0e0e0e;stroke-width:0.30000001;stroke-linecap:round;stroke-linejoin:round;stroke-miterlimit:4;stroke-dasharray:none;stroke-dashoffset:0;stroke-opacity:1"
         d="m 69.02778,150.22477 c 0.46142,0.75944 1.179724,1.0737 2.066427,1.09609 -0.902482,0.1615 -1.135363,0.67816 -0.929264,1.42768 -0.456253,-0.82275 -1.182776,-1.11393 -2.066427,-1.09608 0.803604,-0.21048 1.197907,-0.64095 0.929264,-1.42769 z"
         id="rect828"
         inkscape:connector-curvature="0"
         sodipodi:nodetypes="ccccc" />
      <path
         sodipodi:nodetypes="ccccc"
         inkscape:connector-curvature="0"
         id="path833"
         d="m 70.593487,154.03132 c 0.319505,0.89066 0.980332,1.27164 1.864921,1.31849 -0.935032,0.16582 -1.265758,0.75886 -1.200311,1.63201 -0.302403,-0.96388 -0.975818,-1.31833 -1.864922,-1.31849 0.845143,-0.22488 1.321441,-0.71427 1.200312,-1.63201 z"
         style="opacity:1;fill:#ffffe5;fill-opacity:1;stroke:#0e0e0e;stroke-width:0.30000001;stroke-linecap:round;stroke-linejoin:round;stroke-miterlimit:4;stroke-dasharray:none;stroke-dashoffset:0;stroke-opacity:1" />
      <path
         style="opacity:1;fill:#ffffe5;fill-opacity:1;stroke:#0e0e0e;stroke-width:0.30000001;stroke-linecap:round;stroke-linejoin:round;stroke-miterlimit:4;stroke-dasharray:none;stroke-dashoffset:0;stroke-opacity:1"
         d="m 71.523052,158.49263 c 0.231882,0.86861 0.856587,1.2687 1.738816,1.36165 -0.953923,0.10756 -1.344403,0.65632 -1.3655,1.49437 -0.207464,-0.93765 -0.847422,-1.31309 -1.738817,-1.36166 0.869668,-0.1689 1.395803,-0.61067 1.365501,-1.49436 z"
         id="path837"
         inkscape:connector-curvature="0"
         sodipodi:nodetypes="ccccc" />
      <path
         sodipodi:nodetypes="ccccc"
         inkscape:connector-curvature="0"
         id="path839"
         d="m 72.029939,162.95206 c 0.146186,0.91051 0.731566,1.35286 1.604869,1.48828 -0.964814,0.0692 -1.409586,0.62065 -1.513431,1.48828 -0.114945,-0.981 -0.718018,-1.39845 -1.60487,-1.48828 0.88659,-0.13652 1.456492,-0.57107 1.513432,-1.48828 z"
         style="opacity:1;fill:#ffffe5;fill-opacity:1;stroke:#0e0e0e;stroke-width:0.30000001;stroke-linecap:round;stroke-linejoin:round;stroke-miterlimit:4;stroke-dasharray:none;stroke-dashoffset:0;stroke-opacity:1" />
    </g>
    <path
       sodipodi:nodetypes="cscsccscccscccssscsc"
       inkscape:connector-curvature="0"
       id="path855"
       d="m 66.330005,150.75862 c -0.121723,0.16336 -0.319687,0.34769 -0.559118,0.53503 -0.239432,0.18734 -0.06931,-1.844 -0.281734,-2.42868 -0.02867,0.55957 -0.155913,2.63261 -0.422113,2.76006 -0.2662,0.12746 -1.456465,0.90685 -1.631725,0.95045 0.661219,-1.84528 1.092112,-6.96084 -0.231227,-9.05887 0.02691,0.0334 0.581892,1.7145 0.29102,1.72472 -0.31953,0.0112 -1.302457,0.0334 -1.399901,-8.2e-4 -0.208804,-0.3196 -0.215135,-1.24415 -0.255751,-1.69774 -0.336646,0.54218 -0.224217,1.67674 -0.1765,1.86828 -0.204705,0.0196 -0.222517,0.073 -0.27399,0.0724 -0.469161,-0.006 -0.505454,-2.14556 -0.381314,-2.49359 -0.553877,0.40556 -0.305201,2.03998 -0.16136,2.41689 -0.103303,0.22283 -0.222859,4.4e-4 -0.69003,0.61884 -0.942998,-5.17691 2.541242,-6.54985 5.698333,-6.30278 4.029697,0.31537 3.491591,3.27515 4.465887,4.92586 1.129999,1.91452 -0.369638,3.39886 -1.845097,4.1613 -1.785061,0.92243 -1.666194,-0.41968 -2.303958,-1.35054 -0.102045,-0.0502 0.645468,2.64601 0.158578,3.29946 z"
       style="opacity:1;fill:#ffffff;fill-opacity:1;stroke:#000000;stroke-width:0.30000001;stroke-linecap:round;stroke-linejoin:round;stroke-miterlimit:4;stroke-dasharray:none;stroke-dashoffset:0;stroke-opacity:1"
       inkscape:export-filename="C:\Users\nailu\Documents\Drawings\sketches\dist\SkyKid.png"
       inkscape:export-xdpi="590.92358"
       inkscape:export-ydpi="590.92358" />
    <path
       style="opacity:1;fill:#ffffff;fill-opacity:1;stroke:#000000;stroke-width:0.26499999;stroke-linecap:round;stroke-linejoin:round;stroke-miterlimit:4;stroke-dasharray:none;stroke-dashoffset:0;stroke-opacity:1"
       d="m 76.587305,148.73459 c 0.545147,0.0822 0.507358,1.02079 0.24053,1.50239 -0.266829,0.4816 -1.076376,0.97058 -1.409256,0.56387 -0.332879,-0.4067 -0.816501,-1.1755 -0.549673,-1.6571 0.266828,-0.4816 1.162725,-0.49291 1.718399,-0.40916 z"
       id="path2183"
       inkscape:connector-curvature="0"
       sodipodi:nodetypes="sszss"
       inkscape:export-filename="C:\Users\nailu\Documents\Drawings\sketches\dist\SkyKid.png"
       inkscape:export-xdpi="590.92358"
       inkscape:export-ydpi="590.92358" />
    <path
       sodipodi:nodetypes="cccccccccccccccccccccccccccccccccccccccccscccccccccccccccccccccccccccccccccccccccccccccccccccccccccccccccccccccccccccccccccccccccccccccccccccccccccscccccccccccccccccccccccccccccscccccsccccccccccccccccccccccccccccccccccccccscccccccccccccccccccccccccccccccccccccccccccccccccccccccccccccccccccccccccccccccccccccccccccccccccccccccccccccccccccccccccccscccccccccccccccccccsccccccccccccccccccccccccccccccccccccccscccccccccccccccccccccccccccccccccccccccccccccccccccccccccccccccccccccccccccccccccccccc"
       inkscape:connector-curvature="0"
       id="path2168"
       style="opacity:1;fill:#ffffff;fill-opacity:1;stroke:#000000;stroke-width:0.26500002;stroke-linecap:round;stroke-linejoin:round;stroke-miterlimit:4;stroke-dasharray:none;stroke-dashoffset:0;stroke-opacity:1"
       d="m 69.643443,146.66815 c 0.06689,0.17261 0.14519,0.34922 0.207815,0.52464 -0.01324,0.004 -0.02643,0.009 -0.03965,0.0139 -0.02355,0.007 -0.0067,0.0253 -0.03027,0.0323 -0.263078,-0.019 -0.418391,-6.9e-4 -0.580696,0.0992 m 1.302599,-0.38785 c 5.25e-4,0.003 9.43e-4,0.006 0.0014,0.009 l -0.0049,0.59851 c -0.01375,0.002 -0.02746,0.003 -0.04079,0.005 -0.02416,0.001 -0.04781,0.004 -0.07151,0.003 -0.0237,-1e-5 -0.04707,-6.9e-4 -0.07018,-0.003 -0.02312,-0.002 -0.02078,0.0123 -0.04365,0.008 -0.02267,-0.003 -0.04502,-0.007 -0.06682,-0.0123 -0.01311,-0.003 -0.02609,-0.007 -0.03881,-0.0112 -0.0083,-0.002 -0.01669,-0.005 -0.02491,-0.007 -0.02066,-0.007 -0.04078,-0.0152 -0.06016,-0.0243 -0.01935,-0.009 -0.03801,-0.0191 -0.05585,-0.0299 -0.0062,-0.003 0.03715,0.0212 0.03059,0.0177 m 1.160566,-0.065 c 7.6e-5,0.003 -1.47e-4,0.006 -9.7e-5,0.009 l 0.0094,0.62423 c -0.01359,0.003 -0.0272,0.005 -0.0408,0.006 -0.02389,0.003 -0.04792,0.004 -0.07169,0.006 -0.02366,9.8e-4 -0.06725,-0.0126 -0.09029,-0.0146 -0.02303,-0.002 -0.04575,-0.005 -0.06805,-0.01 -0.02225,-0.004 -0.04407,-0.009 -0.06534,-0.0155 -0.01289,-0.004 -0.02532,-0.008 -0.03772,-0.0132 -0.0081,-0.002 -0.01627,-0.006 -0.02419,-0.008 -0.02003,-0.008 -0.03942,-0.0173 -0.058,-0.0273 -0.01861,-0.01 -0.03644,-0.021 -0.05342,-0.0329 -0.0059,-0.004 -0.01195,-0.008 -0.01778,-0.013 m 1.258361,-0.0202 c 3.75e-4,0.003 6.76e-4,0.007 7.44e-4,0.009 l 0.08769,0.60871 c -0.01335,0.004 -0.02705,0.006 -0.04053,0.01 -0.02401,0.005 -0.04792,0.009 -0.07188,0.0118 -0.02386,0.003 -0.0478,0.004 -0.07154,0.006 -0.02369,9e-4 -0.04724,5.4e-4 -0.07047,-0.001 -0.02324,-0.001 -0.04621,-0.003 -0.06876,-0.007 -0.01365,-0.002 -0.06223,-0.0245 -0.07515,-0.0282 -0.0085,-0.001 -0.0169,-0.004 -0.02528,-0.006 -0.02105,-0.006 -0.04154,-0.0141 -0.06129,-0.0225 -0.01975,-0.008 -0.0389,-0.018 -0.05721,-0.0284 -0.0067,-0.004 -0.01288,-0.007 -0.01928,-0.0113 m 1.289577,-0.13363 c 7.31e-4,0.002 0.0014,0.006 0.0021,0.009 l 0.17659,0.58436 c -0.01324,0.004 -0.02643,0.009 -0.03964,0.0139 -0.02354,0.007 -0.04721,0.0139 -0.07101,0.0194 -0.02384,0.006 -0.04784,0.01 -0.07166,0.0132 -0.02374,0.004 -0.04777,0.006 -0.07152,0.007 -0.02387,9.6e-4 -0.09023,-0.0139 -0.113193,-0.0159 -0.01415,-0.002 -0.02763,-0.004 -0.04128,-0.006 -0.0088,-6.5e-4 -0.01775,-0.002 -0.02649,-0.004 -0.02221,-0.005 -0.04399,-0.009 -0.06521,-0.0157 -0.02118,-0.006 -0.04183,-0.0134 -0.06179,-0.0215 -0.0072,-0.003 -0.0141,-0.006 -0.02106,-0.009 m 1.285658,-0.25941 c 0.0013,0.003 0.0022,0.005 0.0034,0.008 l 0.221156,0.5538 c -0.01297,0.005 -0.02595,0.0107 -0.03904,0.0157 -0.02312,0.009 -0.04647,0.0167 -0.07028,0.0229 -0.02379,0.006 -0.04738,0.0124 -0.07128,0.0169 -0.02385,0.005 -0.04773,0.008 -0.07161,0.0108 -0.0237,0.003 -0.0476,0.004 -0.07125,0.005 -0.01427,1.4e-4 -0.02848,-2.5e-4 -0.04264,-7.9e-4 -0.0094,-4.5e-4 -0.01838,-4.5e-4 -0.02736,-2.7e-4 -0.02308,-10e-4 -0.04588,-0.004 -0.06829,-0.008 -0.02238,-0.004 -0.04434,-0.009 -0.06577,-0.0142 -0.0076,-0.002 -0.01513,-0.004 -0.02264,-0.006 m -3.61073,-2.58362 c 0.02317,0.001 0.04064,-8e-5 0.06394,3.5e-4 0.02337,3.5e-4 0.04691,-1.4e-4 0.07072,-10e-4 0.02369,-0.001 0.04753,-0.004 0.07138,-0.007 0.02376,-0.004 0.04471,-0.007 0.06859,-0.0107 0.02401,-0.004 0.04774,-0.009 0.07141,-0.0158 0.02373,-0.006 0.04987,-0.0118 0.07328,-0.0194 0.02389,-0.006 0.04715,-0.0145 0.07018,-0.0237 l 0.738377,-0.19705 v 0 c -0.0017,-0.0112 -0.0036,-0.0225 -0.0062,-0.0335 -0.0044,-0.0194 -0.01019,-0.0386 -0.01698,-0.0572 -0.0067,-0.0186 -0.01469,-0.0367 -0.02373,-0.0543 -0.609326,-0.34028 -0.813426,-0.61886 -0.976848,-1.32297 m 0.579057,2.02288 c 2e-6,1e-5 3e-6,3e-5 3e-6,4e-5 0.01616,0.009 0.02555,0.0143 0.04185,0.0227 0.01895,0.009 0.03863,0.0183 0.05892,0.0259 0.02029,0.008 0.0413,0.0144 0.06278,0.0202 0.02149,0.005 0.04352,0.0105 0.06599,0.0142 0.02246,0.004 0.04479,0.005 0.06768,0.008 0.02286,0.002 0.04621,0.004 0.06971,0.004 0.02347,3.3e-4 0.04731,-1.5e-4 0.07117,-0.002 0.02392,-10e-4 0.04789,-0.004 0.07193,-0.008 l 0.721726,-0.10588 v 0 c 2e-4,-0.0117 -1.26e-4,-0.0232 -8.18e-4,-0.0347 -0.0014,-0.0202 -0.0039,-0.0403 -0.0076,-0.06 -0.0037,-0.0196 -0.0087,-0.039 -0.01466,-0.0579 -0.006,-0.0189 -0.01331,-0.0373 -0.02172,-0.0551 -0.0083,-0.0178 -0.0179,-0.0352 -0.0284,-0.052 -0.0067,-0.01 -0.0138,-0.0198 -0.02119,-0.0293 -0.0045,-0.007 -0.0089,-0.0126 -0.01363,-0.0188 -0.01268,-0.0154 -0.03149,-0.0334 -0.0463,-0.0472 -0.01483,-0.0137 -0.03056,-0.0267 -0.04721,-0.039 -0.01662,-0.0123 -0.03406,-0.0234 -0.05241,-0.034 -0.01833,-0.0104 -0.0373,-0.0198 -0.05709,-0.0285 -0.01973,-0.009 -0.06654,-0.0341 -0.08803,-0.0397 -0.0215,-0.005 -0.04358,-0.0105 -0.066,-0.0142 -0.02247,-0.004 -0.04536,-0.007 -0.06857,-0.008 -0.02314,-0.001 -0.0467,-0.002 -0.07032,-0.002 -0.02388,3e-5 -0.04761,0.002 -0.07161,0.005 -0.02378,0.003 -0.08597,-0.0162 -0.109753,-0.01 l -0.01047,0.004 m 0.279112,1.03299 c 0,2e-5 0,4e-5 -2e-6,5e-5 0.01438,0.0105 0.02942,0.0205 0.045,0.0297 0.01815,0.0106 0.03706,0.0202 0.05674,0.029 0.01961,0.009 0.03997,0.0165 0.06086,0.0233 0.02089,0.007 0.04243,0.0126 0.06437,0.0173 0.02196,0.005 0.04446,0.009 0.06728,0.0112 0.02286,0.003 0.04609,0.004 0.06972,0.004 0.02367,-6e-5 0.04751,-10e-4 0.07143,-0.004 0.02413,-0.001 0.04796,-0.005 0.07198,-0.01 l 0.704859,-0.14991 v 0 c -9.85e-4,-0.0115 -0.0025,-0.0229 -0.0043,-0.034 -0.0034,-0.0198 -0.0078,-0.0393 -0.01355,-0.0584 -0.0057,-0.0192 -0.01253,-0.0376 -0.02056,-0.0557 -0.008,-0.018 -0.01704,-0.0356 -0.02743,-0.0528 -0.01021,-0.017 0.0068,-0.0169 -0.0046,-0.0334 -0.0071,-0.01 -0.01471,-0.0192 -0.02261,-0.0284 -0.0049,-0.007 -0.0095,-0.0123 -0.01455,-0.0183 -0.01343,-0.0149 -0.02783,-0.0291 -0.04322,-0.0424 -0.01536,-0.0134 -0.03161,-0.0258 -0.04873,-0.0375 -0.01715,-0.0116 -0.03508,-0.0226 -0.05379,-0.0324 -0.01871,-0.01 -0.0382,-0.0189 -0.05829,-0.0268 -0.0201,-0.008 -0.01823,-0.001 -0.03903,-0.008 -0.0209,-0.007 -0.04244,-0.0126 -0.06441,-0.0173 -0.02201,-0.005 -0.04449,-0.008 -0.06736,-0.0113 -0.02284,-0.003 -0.04605,-0.004 -0.06952,-0.005 -0.02346,-3.5e-4 -0.04722,1.4e-4 -0.07113,0.001 -0.02401,0.001 -0.04791,0.004 -0.07195,0.007 l -0.01096,0.001 m 0.233898,0.99078 c -10e-7,1e-5 10e-7,3e-5 4e-6,4e-5 0.0156,0.009 0.0317,0.0179 0.04838,0.0259 0.01934,0.009 0.03942,0.017 0.06019,0.0243 0.02066,0.007 0.042,0.0132 0.06381,0.0184 0.02177,0.005 0.04782,0.009 0.0709,0.0111 0.0231,0.002 0.04642,0.002 0.07005,0.003 0.02373,8e-5 0.04745,-0.001 0.07131,-0.004 0.02413,-10e-4 0.04786,-0.006 0.07185,-0.01 0.02384,-0.005 0.04794,-0.01 0.07161,-0.0162 l 0.691881,-0.21988 v 0 c -0.0027,-0.0111 -0.0056,-0.0219 -0.0091,-0.0327 -0.0061,-0.0189 -0.01341,-0.0374 -0.02182,-0.0554 -0.0084,-0.0179 -0.01787,-0.0354 -0.02847,-0.0522 -0.01062,-0.0168 -0.02236,-0.033 -0.03497,-0.0484 -0.01268,-0.0154 -0.02637,-0.0302 -0.041,-0.0441 -0.0091,-0.008 0.02174,0.002 0.01261,-0.006 -0.0055,-0.006 -0.01115,-0.0111 -0.0169,-0.0165 -0.01535,-0.0134 -0.03168,-0.0258 -0.0488,-0.0375 -0.01715,-0.0116 -0.03513,-0.0224 -0.05387,-0.0323 -0.01871,-0.01 -0.03817,-0.0187 -0.0583,-0.0267 -0.02014,-0.008 -0.04093,-0.015 -0.06226,-0.0211 -0.02131,-0.006 -0.04315,-0.011 -0.06542,-0.0149 -0.02228,-0.004 -0.04506,-0.007 -0.06816,-0.009 -0.02306,-0.002 -0.01244,0.0152 -0.03595,0.0139 -0.02331,-0.001 -0.04696,-7e-4 -0.07075,-2.1e-4 -0.02387,9.5e-4 -0.04775,0.003 -0.07176,0.006 -0.02402,0.003 -0.048,0.008 -0.07195,0.0127 l -0.01065,0.003 m 0.354304,0.93515 c 4e-6,2e-5 3e-6,2e-5 10e-6,5e-5 0.01702,0.007 0.03458,0.0141 0.0526,0.0202 0.02085,0.007 0.04235,0.0126 0.06424,0.0174 0.02194,0.005 0.04436,0.009 0.06714,0.0112 0.02279,0.003 0.04931,0.005 0.07294,0.004 0.0236,-8.5e-4 0.04744,-0.003 0.07126,-0.006 0.02378,-0.003 0.04779,-0.007 0.07171,-0.0114 0.02393,-0.005 0.04778,-0.0104 0.07133,-0.0175 0.02345,-0.007 0.04712,-0.0145 0.07015,-0.0236 l 0.664649,-0.28223 v 0 c -0.0043,-0.0105 -0.0089,-0.0207 -0.01389,-0.0308 -0.0089,-0.0177 -0.01893,-0.0349 -0.03018,-0.0514 -0.01113,-0.0165 -0.02324,-0.0324 -0.03646,-0.0476 -0.01312,-0.0151 0.01463,-0.0175 6.74e-4,-0.0321 -0.01394,-0.0146 -0.02882,-0.0283 -0.04465,-0.0414 -0.0099,-0.008 -0.01998,-0.0151 -0.03045,-0.0222 -0.0065,-0.005 -0.01289,-0.01 -0.01959,-0.0142 -0.01755,-0.0112 -0.03584,-0.0216 -0.05493,-0.0311 -0.01903,-0.009 -0.03887,-0.0181 -0.05922,-0.0255 -0.02042,-0.008 -0.0414,-0.0141 -0.06296,-0.0196 -0.02153,-0.005 -0.04361,-0.0101 -0.06607,-0.0136 -0.02245,-0.004 -0.04533,-0.006 -0.06847,-0.007 -0.02321,-0.001 -0.04667,-0.002 -0.07028,-0.001 -0.02361,8.5e-4 -0.0055,0.0162 -0.02925,0.018 -0.02376,0.001 -0.04766,0.004 -0.07164,0.007 -0.02383,0.004 -0.04788,0.008 -0.07176,0.0137 -0.0239,0.006 -0.04747,0.0125 -0.07117,0.0196 l -0.01054,0.004 m 0.486254,0.8777 c 7e-6,2e-5 1e-5,2e-5 1.5e-5,4e-5 0.01832,0.005 0.03711,0.01 0.05619,0.0138 0.02212,0.005 0.0447,0.008 0.06762,0.01 0.02291,0.002 0.04616,0.003 0.06961,0.004 0.02346,1.6e-4 0.04716,-7.5e-4 0.07093,-0.003 0.02394,-0.001 0.04765,-0.005 0.07157,-0.009 0.02392,-0.004 0.04775,-0.009 0.07149,-0.0152 0.0237,-0.006 0.04731,-0.0131 0.07055,-0.0214 0.02332,-0.008 0.04631,-0.0173 0.06911,-0.027 l 0.680542,-0.29746 v 0 c -0.0042,-0.0104 -0.0089,-0.0207 -0.01389,-0.0308 -0.0089,-0.0178 -0.01898,-0.035 -0.03022,-0.0515 -0.01113,-0.0165 -0.02324,-0.0324 -0.03646,-0.0476 -0.01312,-0.0151 -0.02736,-0.0296 -0.04252,-0.0433 -0.01515,-0.0136 -0.03114,-0.0264 -0.04803,-0.0385 -0.0105,-0.007 -0.02125,-0.0138 -0.0323,-0.0203 -0.007,-0.005 -0.01372,-0.009 -0.02077,-0.013 -0.01847,-0.0101 -0.03769,-0.0194 -0.05765,-0.0278 -0.01991,-0.008 -0.04048,-0.0157 -0.06157,-0.0219 -0.0211,-0.006 -0.04279,-0.0116 -0.0649,-0.0159 -0.02211,-0.005 -0.0447,-0.008 -0.06762,-0.01 -0.02289,-0.002 -0.04613,-0.003 -0.06957,-0.004 -0.02348,-1.6e-4 -0.04717,7.5e-4 -0.07094,0.003 -0.02396,0.001 -0.04768,0.005 -0.07162,0.009 -0.02391,0.004 -0.04772,0.009 -0.07142,0.0152 -0.0237,0.006 -0.04732,0.0131 -0.07058,0.0214 -0.02333,0.008 -0.04632,0.0173 -0.06912,0.027 l -0.0103,0.004 m -3.922474,-0.56107 c -0.01418,-0.007 -0.02788,-0.0155 -0.04114,-0.0241 -0.01747,-0.0113 -0.03408,-0.0234 -0.04989,-0.0365 -0.01575,-0.0129 -0.03051,-0.0267 -0.04446,-0.0414 -0.01382,-0.0146 -0.02674,-0.0299 -0.03865,-0.0459 -0.01189,-0.016 0.02453,-0.008 0.01315,-0.0243 -0.01135,-0.0163 -0.02177,-0.0333 -0.031,-0.0508 -0.0091,-0.0176 0.01818,-0.0221 0.0098,-0.0401 -0.0084,-0.018 -0.01569,-0.0365 -0.02177,-0.0555 -0.110589,-0.15807 -0.128322,-0.48009 -0.12896,-0.51305 0.02316,0.001 0.04063,-2.4e-4 0.06403,3.5e-4 1.6e-5,0 2.4e-5,0 3.6e-5,0 0.02331,3.6e-4 0.04688,-1.3e-4 0.07059,-0.001 0.02373,-0.001 0.04754,-0.004 0.0714,-0.007 0.02376,-0.004 0.04475,-0.007 0.06865,-0.0108 0.024,-0.004 0.04772,-0.009 0.0714,-0.0157 7e-6,-1e-5 1.2e-5,-2e-5 1.7e-5,-4e-5 0.02373,-0.006 0.04994,-0.0119 0.07335,-0.0195 0.01979,-0.006 0.03985,-0.0126 0.05941,-0.0202 0.01795,0.006 0.0355,0.0129 0.05247,0.0203 0.01953,0.009 0.04254,0.0218 0.05966,0.0336 0.01712,0.0117 0.03337,0.0242 0.04877,0.0376 0.01536,0.0134 0.03277,0.0304 0.04466,0.0465 0.01189,0.016 0.02264,0.0326 0.0324,0.0499 0.0096,0.0172 0.01829,0.0351 0.02586,0.0534 0.0074,0.0184 0.01379,0.0372 0.01901,0.0564 0.0052,0.0192 0.0092,0.039 0.01197,0.0589 m 0.202667,0.9943 c -0.01251,-0.009 -0.02469,-0.0189 -0.03617,-0.0291 -0.0152,-0.0135 -0.02946,-0.0277 -0.04278,-0.0428 -0.01319,-0.015 -0.02548,-0.0306 -0.03677,-0.0471 -0.01116,-0.0163 -0.0213,-0.0334 -0.03036,-0.051 -0.009,-0.0176 -0.01689,-0.0357 -0.02373,-0.0543 -0.0067,-0.0186 -0.0082,-0.0345 -0.01274,-0.0538 -0.0046,-0.0194 -0.0081,-0.0392 -0.01026,-0.0593 -0.0022,-0.0201 -0.0033,-0.0404 -0.0031,-0.0609 l 0.0036,-0.59803 8.18e-4,-2e-4 c 0.0157,0.008 0.0247,0.0138 0.04049,0.022 0.01892,0.01 0.03863,0.0183 0.05892,0.0259 1.3e-5,10e-6 2.4e-5,3e-5 3.5e-5,4e-5 0.02029,0.008 0.04126,0.0145 0.06274,0.0202 0.0215,0.005 0.04354,0.0104 0.06597,0.0141 0.02245,0.004 0.04481,0.005 0.06773,0.008 0.02286,0.002 0.04617,0.004 0.06971,0.004 1e-5,0 1.6e-5,-2e-5 2.3e-5,-4e-5 0.02356,3.5e-4 0.04731,-1.4e-4 0.07116,-0.002 0.0202,-0.002 0.04059,-0.004 0.06094,-0.007 0.0147,0.0101 0.02881,0.0211 0.04216,0.0325 0.01536,0.0134 0.02979,0.0273 0.04322,0.0424 0.01342,0.0149 0.0262,0.031 0.03749,0.0474 0.01116,0.0163 0.0213,0.0333 0.03036,0.051 0.009,0.0176 0.01689,0.0357 0.02371,0.0543 0.0067,0.0186 0.01228,0.0376 0.01672,0.0572 0.0043,0.0194 0.0076,0.0393 0.0096,0.0594 0.002,0.0202 0.0028,0.0405 0.0024,0.0611 m 0.272811,1.02615 c -0.01365,-0.008 -0.0268,-0.0169 -0.0394,-0.026 -0.01672,-0.0121 -0.0325,-0.025 -0.04741,-0.0388 -0.01484,-0.0137 -0.02882,-0.0283 -0.04172,-0.0435 -0.01297,-0.0152 -0.05181,-0.0488 -0.06174,-0.066 -0.0098,-0.0172 -0.01846,-0.0349 -0.02626,-0.0533 -0.0076,-0.0183 -0.01407,-0.037 -0.01937,-0.0562 -0.0052,-0.0191 -0.0094,-0.0388 -0.01233,-0.0587 -0.0029,-0.0199 -0.0048,-0.0401 -0.0052,-0.0606 l -0.009,-0.62413 8.2e-4,-1.3e-4 c 0.01404,0.0101 0.0286,0.0199 0.04375,0.029 0.01815,0.0105 0.03705,0.0202 0.05673,0.029 7e-6,1e-5 1.8e-5,1e-5 2.9e-5,2e-5 0.01959,0.009 0.03993,0.0165 0.06082,0.0233 0.0209,0.007 0.04244,0.0126 0.06443,0.0173 0.02198,0.005 0.04446,0.009 0.06729,0.0112 0.02284,0.003 0.04603,0.004 0.06967,0.004 7e-6,0 1.6e-5,-1e-5 2.7e-5,-2e-5 0.02366,-5e-5 0.04751,-0.001 0.07143,-0.004 0.02016,-0.002 0.04063,-0.005 0.06101,-0.008 0.01513,0.01 0.02963,0.0202 0.04347,0.0312 0.0159,0.0129 0.0308,0.0265 0.04486,0.041 0.01404,0.0144 0.02701,0.0296 0.03901,0.0455 0.01194,0.0159 0.02286,0.0325 0.03277,0.0496 0.0098,0.0172 0.01853,0.0332 0.02709,0.051 0.0087,0.0178 0.01616,0.0361 0.02258,0.0549 0.0064,0.0188 0.01155,0.0381 0.01559,0.0577 0.0041,0.0196 0.0069,0.0396 0.0086,0.0597 m 0.417175,0.9763 c -0.01495,-0.006 -0.02942,-0.0136 -0.04349,-0.0212 -0.01861,-0.0101 -0.03639,-0.021 -0.05335,-0.0329 -0.01693,-0.0118 -0.0331,-0.0245 -0.04826,-0.038 -0.01521,-0.0135 -0.02948,-0.0279 -0.04279,-0.0429 -0.01322,-0.0151 -0.06333,-0.049 -0.07323,-0.0662 -0.0098,-0.0172 -0.0187,-0.0349 -0.02641,-0.0532 -0.0077,-0.0182 -0.01423,-0.0371 -0.01959,-0.0563 -0.0052,-0.0192 -0.0096,-0.0387 -0.01261,-0.0587 l -0.087,-0.60869 8.19e-4,-1.8e-4 c 0.01514,0.009 0.03084,0.0175 0.04703,0.0251 0.01934,0.009 0.03943,0.017 0.06016,0.0242 1.2e-5,0 2e-5,1e-5 3e-5,1e-5 0.02065,0.007 0.04196,0.0132 0.06374,0.0184 0.02181,0.005 0.04778,0.009 0.07087,0.0112 0.0231,0.002 0.04644,0.002 0.07005,0.003 0.02365,-4e-5 0.0474,-0.001 0.07129,-0.004 6e-6,-1e-5 1e-5,-3e-5 2.1e-5,-3e-5 0.02413,-0.001 0.04786,-0.006 0.07185,-0.01 0.0202,-0.004 0.04059,-0.008 0.0607,-0.0136 0.01651,0.008 0.03242,0.017 0.04774,0.0266 0.01765,0.0111 0.03445,0.0232 0.05038,0.0362 0.0159,0.0129 0.03092,0.0266 0.045,0.041 0.01404,0.0144 0.02546,0.0264 0.03871,0.0415 0.01319,0.015 0.02555,0.0308 0.03678,0.0472 0.01121,0.0164 0.02138,0.0334 0.03043,0.0511 0.009,0.0178 0.01693,0.0358 0.0238,0.0546 0.0067,0.0186 0.01244,0.0378 0.01694,0.0573 m 0.559959,0.9126 c -0.01603,-0.005 -0.03181,-0.01 -0.04717,-0.0159 -0.02026,-0.008 -0.03993,-0.0165 -0.05887,-0.0262 -0.01892,-0.01 -0.08066,-0.0348 -0.09699,-0.0474 -0.01637,-0.0125 -0.0318,-0.0258 -0.04631,-0.04 -0.01453,-0.0141 -0.02806,-0.0291 -0.04062,-0.0447 -0.01248,-0.0156 -0.02398,-0.0319 -0.03449,-0.0488 -0.01051,-0.0169 -0.01972,-0.0345 -0.02803,-0.0526 -0.0082,-0.018 -0.01538,-0.0366 -0.02138,-0.0557 l -0.175822,-0.58446 8.18e-4,-2.6e-4 c 0.01654,0.007 0.03362,0.0137 0.05109,0.0196 0.02085,0.007 0.04231,0.0126 0.06423,0.0174 1.2e-5,0 2.2e-5,0 3.5e-5,1e-5 0.02191,0.005 0.04433,0.009 0.06707,0.0113 0.02277,0.003 0.0493,0.006 0.0729,0.004 0.02359,-8.4e-4 0.04744,-0.003 0.07134,-0.005 0.02377,-0.003 0.04781,-0.007 0.07172,-0.0113 7e-6,-2e-5 1.2e-5,-2e-5 1.8e-5,-4e-5 0.02393,-0.005 0.04777,-0.0104 0.07131,-0.0176 0.01978,-0.006 0.03988,-0.0125 0.05961,-0.0196 0.01787,0.006 0.03533,0.013 0.05221,0.0205 0.01945,0.009 0.03822,0.0187 0.05626,0.0296 0.018,0.0107 0.03518,0.0224 0.05152,0.0349 0.01629,0.0125 0.03172,0.0258 0.04628,0.04 0.01453,0.0141 0.02802,0.029 0.04062,0.0446 0.01248,0.0156 0.02507,0.0305 0.03685,0.0467 0.01177,0.0161 0.02242,0.0329 0.03206,0.0505 0.0095,0.0174 0.01815,0.0353 0.02557,0.0539 m 0.581261,0.85285 c -0.0161,-0.005 -0.03181,-0.01 -0.04717,-0.0159 -0.02025,-0.008 -0.03994,-0.0164 -0.05882,-0.0261 -0.01892,-0.01 -0.03709,-0.0203 -0.05445,-0.0317 -0.01738,-0.0115 -0.03388,-0.0238 -0.04956,-0.0369 -0.01565,-0.0131 -0.03035,-0.0271 -0.0442,-0.0419 -0.01384,-0.0147 -0.02648,-0.0302 -0.03826,-0.0463 -0.01177,-0.0161 -0.02248,-0.033 -0.03206,-0.0505 -0.0096,-0.0175 -0.01811,-0.0353 -0.02558,-0.0539 l -0.221053,-0.55366 7.41e-4,-3e-4 c 0.01785,0.005 0.03607,0.01 0.05462,0.0135 0.02211,0.005 0.04469,0.008 0.06758,0.01 1.2e-5,0 2.3e-5,10e-6 3.7e-5,2e-5 0.02289,0.002 0.04612,0.003 0.06957,0.004 0.02346,1.7e-4 0.04717,-7.5e-4 0.0709,-0.003 0.02393,-0.001 0.04765,-0.005 0.07157,-0.009 0.02392,-0.004 0.04774,-0.009 0.07147,-0.0151 2e-6,-1e-5 9e-6,-2e-5 1.6e-5,-3e-5 0.0237,-0.006 0.04731,-0.0131 0.07055,-0.0214 0.01987,-0.006 0.03927,-0.0146 0.05858,-0.0228 0.01846,0.005 0.03659,0.011 0.05414,0.0175 0.02025,0.008 0.03993,0.0164 0.05882,0.0261 0.01892,0.01 0.03715,0.0203 0.05449,0.0317 0.01738,0.0115 0.03386,0.0238 0.04953,0.0369 0.01565,0.0131 0.03035,0.0271 0.04423,0.0418 0.01384,0.0147 0.02648,0.0302 0.03829,0.0464 0.01177,0.0161 0.02242,0.0329 0.03206,0.0504 0.0095,0.0174 0.01811,0.0353 0.02557,0.0539 m -5.087193,-2.52687 c 0.06311,0.0886 0.127166,0.1902 0.183637,0.27745 m 1.292356,-0.26514 -7.25e-4,1e-4 -0.738033,0.19832 1.89e-4,6.9e-4 c 0.01746,0.005 0.0345,0.0125 0.05103,0.0196 0.01959,0.009 0.04253,0.0218 0.05963,0.0335 l 3.5e-5,2e-5 c 0.01708,0.0117 0.03337,0.0242 0.04878,0.0376 0.01536,0.0134 0.03282,0.0305 0.04466,0.0465 0.01189,0.016 0.02263,0.0326 0.0324,0.0499 0.0098,0.0172 0.01837,0.0351 0.02586,0.0534 l -2.2e-5,4e-5 c 0.0074,0.0183 0.01383,0.0373 0.01901,0.0564 0.0041,0.0164 0.0077,0.0331 0.01018,0.0498 m 1.234335,-0.0132 -7.21e-4,3e-5 -0.721533,0.10596 -2.1e-5,7.8e-4 c 0.01441,0.01 0.028,0.0205 0.04105,0.0315 0.01536,0.0133 0.02972,0.0274 0.04326,0.0423 l 2.5e-5,2e-5 c 0.01342,0.0149 0.02624,0.0308 0.03749,0.0473 0.01121,0.0164 0.02134,0.0333 0.03028,0.051 0.009,0.0176 0.01689,0.0357 0.02371,0.0543 0.0067,0.0186 0.01229,0.0376 0.01667,0.0571 l -2.8e-5,3e-5 c 0.0043,0.0194 0.0076,0.0392 0.0096,0.0594 0.0016,0.0171 0.0023,0.0343 0.0022,0.0518 m 1.213301,-0.0392 -7.33e-4,7e-5 -0.704616,0.1495 -4e-6,7.6e-4 c 0.01464,0.009 0.02886,0.0197 0.04232,0.0303 0.0159,0.0129 0.0308,0.0265 0.04482,0.041 l 2.8e-5,2e-5 c 0.01399,0.0143 0.02706,0.0297 0.03901,0.0455 0.01194,0.0159 0.02286,0.0325 0.03269,0.0496 0.0098,0.0172 0.01849,0.0331 0.02709,0.051 0.0087,0.0178 0.01618,0.0361 0.02259,0.0549 l -2.7e-5,3e-5 c 0.0064,0.0188 0.01163,0.0381 0.01562,0.0577 0.0033,0.0166 0.0057,0.0335 0.0072,0.0507 m 1.221967,-0.15791 -7.1e-4,1.4e-4 -0.691686,0.21935 7.9e-5,7.3e-4 c 0.01603,0.008 0.03156,0.0166 0.04649,0.0258 0.01765,0.0112 0.0344,0.0231 0.05028,0.0359 l 3.3e-5,2e-5 c 0.01588,0.0127 0.03092,0.0265 0.04502,0.041 0.01404,0.0144 0.02551,0.0264 0.03866,0.0414 0.01319,0.015 0.02553,0.0308 0.03678,0.0472 0.01133,0.0164 0.02138,0.0334 0.03043,0.0511 l -2.2e-5,3e-5 c 0.009,0.0176 0.01694,0.0359 0.0238,0.0546 0.0056,0.0159 0.01049,0.0321 0.01434,0.0486 m 1.209478,-0.27731 -7.12e-4,2.2e-4 -0.664525,0.28172 1.81e-4,6.9e-4 c 0.0174,0.006 0.03437,0.0127 0.05084,0.0201 0.01948,0.009 0.03824,0.0188 0.05621,0.0295 l 3.8e-5,2e-5 c 0.01796,0.0106 0.03522,0.0225 0.05153,0.0349 0.01629,0.0125 0.03172,0.0258 0.04625,0.04 0.01453,0.0141 0.02802,0.029 0.04062,0.0446 0.01267,0.0157 0.02509,0.0305 0.03686,0.0467 l -2e-5,3e-5 c 0.0117,0.0161 0.02252,0.033 0.03206,0.0505 0.008,0.0148 0.01535,0.0301 0.02167,0.0456 m 1.23211,-0.33761 -7.07e-4,2.2e-4 -0.680301,0.29751 2.31e-4,6.8e-4 c 0.01807,0.005 0.03557,0.0107 0.05273,0.0171 0.02028,0.008 0.0399,0.0165 0.05884,0.0262 h 3.3e-5 c 0.01887,0.01 0.03708,0.0202 0.05451,0.0317 0.01738,0.0115 0.03386,0.0237 0.0495,0.037 0.01564,0.0131 0.03036,0.0271 0.04423,0.0418 0.01384,0.0146 0.02656,0.0302 0.03834,0.0463 l -1.8e-5,3e-5 c 0.0117,0.0161 0.02248,0.033 0.03206,0.0505 0.008,0.0149 0.01535,0.0301 0.02167,0.0456"
       inkscape:export-filename="C:\Users\nailu\Documents\Drawings\sketches\dist\SkyKid.png"
       inkscape:export-xdpi="590.92358"
       inkscape:export-ydpi="590.92358" />
    <path
       style="opacity:1;fill:#47fffd;fill-opacity:1;stroke:#000000;stroke-width:0.26499999;stroke-linecap:round;stroke-linejoin:round;stroke-miterlimit:4;stroke-dasharray:none;stroke-dashoffset:0;stroke-opacity:1"
       d="m 75.029007,148.34025 0.555978,0.35261 c -0.282447,-0.076 -0.975791,0.66054 -0.708237,1.20367 l -0.574164,-0.21392 c -0.327799,-0.38758 0.250648,-1.35002 0.726261,-1.34246 z"
       id="rect2170"
       inkscape:connector-curvature="0"
       sodipodi:nodetypes="cccccc"
       inkscape:export-filename="C:\Users\nailu\Documents\Drawings\sketches\dist\SkyKid.png"
       inkscape:export-xdpi="590.92358"
       inkscape:export-ydpi="590.92358" />
    <path
       sodipodi:nodetypes="cccccccccccccccccccccccccccccccccccccccccccccccccccccccccccccccccccccccccccccccccccccccscccccccccccccccccccccccccccccsccccccccccccccscccccccccccccccccccccccccccccccccccccscccccccccccccccccccccccccccccccccccccccccccccccccccccsccccccccccccccccccccccccccccccccccccccccccccccscccccccccccccccccccscccccccccccccccccccccccccccccccsccccccccccccccccccccccccccccccccccccccccccccccccccccccccccccccscccccccccccccccccccccsccccccccccccccccccccccccccccccccccccccccccccccccccccccccccccccccccccccccccccccccccccccccscccc"
       inkscape:connector-curvature="0"
       id="path85"
       style="opacity:1;fill:#ffffff;fill-opacity:1;stroke:#000000;stroke-width:0.26500002;stroke-linecap:round;stroke-linejoin:round;stroke-miterlimit:4;stroke-dasharray:none;stroke-dashoffset:0;stroke-opacity:1"
       d="m 67.583729,147.50357 c -6.2e-4,0.003 -0.0012,0.005 -0.0021,0.009 l -0.236198,0.51739 c -0.06994,-0.48703 -0.609875,-1.01232 -1.011055,-1.23584 m 1.573763,1.46317 c -0.0018,0.003 -0.0035,0.005 -0.0053,0.008 l -0.406231,0.4576 c -0.0095,-0.008 -0.01887,-0.0152 -0.02844,-0.022 -0.01597,-0.014 -0.03165,-0.0276 -0.04624,-0.0426 -0.01452,-0.0151 -0.02836,-0.0305 -0.04123,-0.0466 -0.01282,-0.0163 -0.02109,-0.003 -0.03267,-0.0209 -0.01188,-0.0167 -0.02276,-0.0341 -0.03267,-0.0519 -0.0058,-0.0108 -0.0112,-0.022 -0.01624,-0.0332 -0.0038,-0.007 -0.0071,-0.0142 -0.01042,-0.0213 -0.0079,-0.0186 -0.01475,-0.0376 -0.0205,-0.0569 -0.0058,-0.0193 -0.01048,-0.0387 -0.01409,-0.0584 -0.0015,-0.007 0.0085,0.0398 0.0068,0.0331 m 0.755305,0.68622 c -0.0023,0.003 -0.0041,0.004 -0.0064,0.007 l -0.414747,0.48649 c -0.0099,-0.007 -0.01969,-0.0138 -0.02912,-0.0212 -0.01679,-0.0127 -0.03251,-0.0268 -0.04757,-0.0413 -0.01516,-0.0143 -0.0328,-0.0523 -0.04553,-0.0685 -0.01271,-0.0163 -0.02452,-0.033 -0.0353,-0.0505 -0.01086,-0.0173 -0.02077,-0.0351 -0.02962,-0.0533 -0.005,-0.0115 -0.0099,-0.0225 -0.01427,-0.034 -0.0035,-0.007 -0.0063,-0.0145 -0.0092,-0.0218 -0.0068,-0.019 -0.01251,-0.0383 -0.01717,-0.0578 -0.0046,-0.0195 -0.0082,-0.0392 -0.01064,-0.0591 -0.0011,-0.007 -0.0016,-0.0141 -0.0022,-0.0213 m 0.784982,0.78287 c -0.002,0.003 -0.0038,0.005 -0.0058,0.008 l -0.35631,0.52421 c -0.01084,-0.005 -0.0211,-0.012 -0.0314,-0.0182 -0.01794,-0.0115 -0.03535,-0.0236 -0.05198,-0.0366 -0.01675,-0.0126 -0.03249,-0.0267 -0.04758,-0.0411 -0.01513,-0.0143 -0.02934,-0.0295 -0.04272,-0.0452 -0.01341,-0.0157 -0.02592,-0.0321 -0.03749,-0.049 -0.0068,-0.0105 -0.02163,-0.0583 -0.02704,-0.0694 -0.0039,-0.007 -0.0076,-0.0139 -0.01114,-0.021 -0.0085,-0.0185 -0.01596,-0.0372 -0.02241,-0.0563 -0.0064,-0.019 -0.01172,-0.0385 -0.01599,-0.0581 -0.0014,-0.007 -0.0028,-0.0139 -0.0042,-0.0209 m 0.880652,0.71521 c -0.0016,0.003 -0.003,0.005 -0.0048,0.008 l -0.285405,0.56186 c -0.0113,-0.005 -0.02257,-0.009 -0.0337,-0.0144 -0.01937,-0.01 -0.0383,-0.0193 -0.05664,-0.0301 -0.01827,-0.0109 -0.03573,-0.0231 -0.05278,-0.0354 -0.01714,-0.0121 -0.0331,-0.026 -0.04854,-0.04 -0.01528,-0.0144 -0.04593,-0.0679 -0.05864,-0.0841 -0.0072,-0.0107 -0.01467,-0.0201 -0.02144,-0.0306 -0.0049,-0.006 -0.0093,-0.013 -0.01375,-0.0197 -0.01081,-0.0173 -0.02062,-0.0351 -0.02943,-0.0534 -0.0088,-0.0182 -0.01662,-0.0368 -0.02338,-0.0558 -0.0025,-0.007 -0.0046,-0.0135 -0.0068,-0.0204 m 0.962983,0.6159 c -0.0014,0.003 -0.0022,0.005 -0.0036,0.009 l -0.237496,0.56661 c -0.0116,-0.004 -0.02311,-0.008 -0.03455,-0.0126 -0.02008,-0.008 -0.03973,-0.0167 -0.05853,-0.0269 -0.01877,-0.0103 -0.03739,-0.0206 -0.0551,-0.0322 -0.01777,-0.0115 -0.03482,-0.0239 -0.05114,-0.0372 -0.01659,-0.0126 -0.03196,-0.027 -0.04672,-0.0417 -0.0088,-0.009 -0.01729,-0.0183 -0.0254,-0.0279 -0.0054,-0.006 -0.01092,-0.012 -0.01633,-0.0179 -0.01307,-0.0159 -0.02526,-0.0324 -0.03646,-0.0495 -0.01119,-0.0171 -0.02146,-0.0347 -0.03072,-0.0527 -0.0035,-0.006 -0.0065,-0.0128 -0.0095,-0.0194 m -0.505674,-4.32175 -1.3e-5,4e-5 c 0.01011,0.0145 0.02091,0.0286 0.03233,0.0423 0.01334,0.0157 0.02497,0.0257 0.03889,0.041 0.0139,0.0153 0.02871,0.0299 0.04419,0.0439 0.01558,0.0138 0.03187,0.027 0.04893,0.0393 0.01717,0.0121 0.03172,0.0235 0.04926,0.0353 0.01737,0.0122 0.03562,0.0231 0.05445,0.0331 0.01871,0.0103 0.03853,0.0225 0.05798,0.0316 0.01883,0.0103 0.0387,0.0187 0.05894,0.0263 l 0.585444,0.31672 v 0 c 0.0065,-0.01 0.01285,-0.0196 0.01875,-0.0298 -0.104619,-0.50669 0.144099,-0.61439 0.293374,-0.77472 m -0.958298,0.9492 c -1e-5,1e-5 -2e-5,2e-5 -2.5e-5,3e-5 0.0041,0.0169 0.006,0.0272 0.01035,0.0441 0.0052,0.0193 0.01139,0.0385 0.01868,0.0573 0.0073,0.0188 0.01559,0.0372 0.0249,0.0553 0.0093,0.0181 0.01968,0.0356 0.03094,0.0527 0.01126,0.0171 0.02394,0.0324 0.03627,0.0489 0.01239,0.0164 0.0256,0.0325 0.03971,0.0478 0.01416,0.0151 0.02907,0.0299 0.04483,0.0438 0.01573,0.0139 0.03225,0.0271 0.04949,0.0395 l 0.51381,0.37634 v 0 c 0.008,-0.009 0.01554,-0.0179 0.02288,-0.0273 0.0128,-0.0164 0.0248,-0.0335 0.03576,-0.051 0.01091,-0.0175 0.02093,-0.0354 0.03,-0.0539 0.009,-0.0183 0.01696,-0.0372 0.02382,-0.0562 0.007,-0.0191 0.01273,-0.0385 0.01761,-0.058 0.0026,-0.012 0.0049,-0.0241 0.0067,-0.0361 0.0017,-0.008 0.003,-0.0154 0.0043,-0.0231 0.0026,-0.0199 0.0032,-0.0457 0.0034,-0.0657 1.34e-4,-0.02 -6.92e-4,-0.0399 -0.0027,-0.0599 -0.0019,-0.02 -0.0051,-0.0397 -0.0093,-0.0594 -0.0042,-0.0196 -0.0095,-0.039 -0.01581,-0.0582 -0.0063,-0.0192 -0.01785,-0.0685 -0.02719,-0.0864 -0.0093,-0.0181 -0.01962,-0.0357 -0.03096,-0.0527 -0.01129,-0.0171 -0.02356,-0.0336 -0.03665,-0.0497 -0.01314,-0.0159 -0.0271,-0.0314 -0.04199,-0.0459 -0.01466,-0.0151 -0.03052,-0.0287 -0.04692,-0.042 -0.01667,-0.0127 -0.04184,-0.0669 -0.0606,-0.0773 l -0.0089,-0.004 m -0.524784,0.97225 c -1.2e-5,2e-5 -2.3e-5,2e-5 -3.1e-5,3e-5 0.0018,0.0172 0.0042,0.0344 0.0076,0.0515 0.004,0.0197 0.0091,0.0391 0.01524,0.0583 0.0062,0.0191 0.01338,0.038 0.02165,0.0565 0.0083,0.0185 0.01754,0.0366 0.02785,0.0541 0.01027,0.0176 0.02152,0.0348 0.03368,0.0514 0.01219,0.0166 0.02544,0.0324 0.04005,0.0473 0.01454,0.015 0.03001,0.0291 0.04622,0.0425 0.01594,0.014 0.03313,0.0261 0.05073,0.0381 l 0.533135,0.33175 v 0 c 0.0071,-0.009 0.01388,-0.0192 0.02036,-0.0289 0.01126,-0.0174 0.02166,-0.0353 0.031,-0.0535 0.0094,-0.0183 0.01763,-0.0369 0.02495,-0.0559 0.0073,-0.019 0.01355,-0.0383 0.01869,-0.058 0.0052,-0.0195 0.0156,-0.009 0.0197,-0.0286 0.0022,-0.012 0.004,-0.0242 0.0053,-0.0362 0.0013,-0.008 0.0025,-0.0155 0.0034,-0.0233 0.0018,-0.02 0.0025,-0.04 0.0021,-0.0601 -4.15e-4,-0.0201 -0.002,-0.0399 -0.0046,-0.0598 -0.0027,-0.0198 -0.0063,-0.0396 -0.01114,-0.059 -0.0048,-0.0195 -0.0107,-0.0388 -0.01766,-0.0576 -0.0069,-0.0189 -0.01033,-0.0125 -0.01868,-0.0307 -0.0083,-0.0185 -0.01755,-0.0366 -0.02784,-0.0542 -0.01027,-0.0176 -0.02155,-0.0348 -0.03371,-0.0514 -0.01218,-0.0166 -0.02528,-0.0326 -0.0392,-0.048 -0.01399,-0.0154 -0.02882,-0.0301 -0.0444,-0.0442 -0.01543,-0.0144 -0.03199,-0.0274 -0.04911,-0.0399 l -0.0077,-0.006 m -0.524067,0.91108 c -7e-6,1e-5 -1.7e-5,2e-5 -2.9e-5,4e-5 0.0033,0.017 0.0074,0.0338 0.01227,0.0506 0.0058,0.0192 0.01267,0.0382 0.02053,0.0569 0.0079,0.0186 0.01685,0.0368 0.02673,0.0546 0.01,0.0177 0.02312,0.0374 0.03596,0.0536 0.01286,0.0161 0.02665,0.0315 0.04119,0.0465 0.0145,0.015 0.03001,0.0291 0.04627,0.0423 0.01595,0.0139 0.03314,0.0261 0.05075,0.0379 0.01776,0.0115 0.03578,0.0231 0.05478,0.033 l 0.572317,0.26964 v 0 c 0.0059,-0.0101 0.01133,-0.0205 0.01648,-0.0309 0.009,-0.0184 0.01702,-0.0374 0.02394,-0.0564 0.007,-0.0191 0.01281,-0.0385 0.0177,-0.0582 0.0048,-0.0197 0.0085,-0.0396 0.01117,-0.0594 0.0026,-0.0199 0.0042,-0.04 0.0046,-0.06 -2.9e-5,-0.0121 0.01169,0.0157 0.01179,0.003 4.22e-4,-0.008 6.42e-4,-0.0157 7.96e-4,-0.0234 -4.15e-4,-0.02 -0.002,-0.0399 -0.0047,-0.0598 -0.0027,-0.0199 -0.0064,-0.0395 -0.01123,-0.0591 -0.0048,-0.0195 -0.01076,-0.0387 -0.01772,-0.0576 -0.007,-0.0189 -0.01497,-0.0375 -0.02399,-0.0557 -0.009,-0.0182 -0.01905,-0.0358 -0.03005,-0.053 -0.01102,-0.0172 -0.02297,-0.0339 -0.03581,-0.0501 -0.01287,-0.0161 -0.01779,0.003 -0.03136,-0.0121 -0.01369,-0.0155 -0.02819,-0.0304 -0.04347,-0.0448 -0.01527,-0.0144 -0.03147,-0.0278 -0.04833,-0.0405 -0.01686,-0.0128 -0.03442,-0.0248 -0.05262,-0.0359 l -0.0085,-0.004 m -0.41278,0.94465 c -8e-6,2e-5 -1.4e-5,2e-5 -2.4e-5,4e-5 0.0055,0.0165 0.01166,0.0328 0.01864,0.0489 0.0082,0.0184 0.01744,0.0366 0.02771,0.0541 0.01021,0.0176 0.02142,0.0348 0.03357,0.0513 0.01212,0.0166 0.02677,0.0352 0.04172,0.0497 0.01504,0.0143 0.03069,0.0283 0.04724,0.0412 0.01667,0.0126 0.03375,0.0252 0.05164,0.0367 0.01785,0.0115 0.03628,0.0224 0.0555,0.0318 0.01938,0.009 0.03867,0.0187 0.05891,0.0263 l 0.597622,0.20438 v 0 c 0.0044,-0.0108 0.0084,-0.0215 0.01221,-0.0325 0.0064,-0.0193 0.01193,-0.0389 0.0161,-0.0587 0.0042,-0.0197 0.0076,-0.0397 0.0097,-0.0597 0.0021,-0.02 0.0207,-0.004 0.02203,-0.0243 0.0013,-0.02 0.0014,-0.0401 5.11e-4,-0.0602 -8.15e-4,-0.0122 -0.002,-0.0243 -0.0037,-0.0364 -4.44e-4,-0.008 -0.0014,-0.0156 -0.0024,-0.0234 -0.0031,-0.0198 -0.0074,-0.0394 -0.01271,-0.0588 -0.0054,-0.0194 -0.01168,-0.0385 -0.01917,-0.0571 -0.0074,-0.0188 -0.01593,-0.0371 -0.02538,-0.0551 -0.0095,-0.018 -0.01994,-0.0354 -0.03138,-0.0524 -0.01141,-0.017 -0.02371,-0.0334 -0.03701,-0.0491 -0.01327,-0.0158 -0.02736,-0.0311 -0.04236,-0.0454 -0.01505,-0.0143 -0.01432,0.009 -0.0301,-0.004 -0.01562,-0.0138 -0.0319,-0.0272 -0.04893,-0.0397 -0.01724,-0.0121 -0.03482,-0.0242 -0.05323,-0.0349 -0.01834,-0.0109 -0.03749,-0.0206 -0.05681,-0.0301 l -0.009,-0.004 m -0.293178,0.98414 -1.7e-5,4e-5 c 0.0076,0.0157 0.01602,0.0312 0.02514,0.0463 0.01066,0.0174 0.0223,0.0342 0.03484,0.0504 0.01252,0.0163 0.02598,0.0319 0.04028,0.0469 0.01427,0.0151 0.02942,0.0293 0.04534,0.0428 0.01575,0.0139 0.03257,0.0264 0.04989,0.0385 0.01734,0.0121 0.03535,0.0234 0.05403,0.0337 0.01868,0.0103 0.03782,0.02 0.05768,0.0283 0.01972,0.009 0.04008,0.016 0.06053,0.0231 l 0.617623,0.20275 v 0 c 0.0044,-0.0108 0.0084,-0.0215 0.01221,-0.0325 0.0065,-0.0194 0.01193,-0.0389 0.01617,-0.0588 0.0042,-0.0197 0.0076,-0.0397 0.0097,-0.0597 0.0021,-0.02 0.0032,-0.0402 0.0031,-0.0602 -9.1e-5,-0.0201 -0.0013,-0.0401 -0.0035,-0.0601 -0.0017,-0.0121 -0.0037,-0.0241 -0.0062,-0.036 -8.96e-4,-0.008 -0.0025,-0.0155 -0.0039,-0.0231 -0.0045,-0.0195 -0.01003,-0.0389 -0.01662,-0.0579 -0.0066,-0.019 -0.01426,-0.0377 -0.02298,-0.0559 -0.0087,-0.0182 -0.01837,-0.0361 -0.02904,-0.0534 -0.01066,-0.0174 -0.02229,-0.0342 -0.03484,-0.0504 -0.01251,-0.0163 -0.02594,-0.0319 -0.04023,-0.0469 -0.01428,-0.0151 -0.02943,-0.0293 -0.04535,-0.0429 -0.01577,-0.0139 -0.0326,-0.0264 -0.04995,-0.0385 -0.01732,-0.0121 -0.03532,-0.0234 -0.054,-0.0336 -0.01869,-0.0103 -0.03784,-0.02 -0.05772,-0.0283 -0.01973,-0.009 -0.04009,-0.016 -0.06055,-0.0231 l -0.0093,-0.003 m -1.722287,-4.05186 c 0.0068,0.019 0.01296,0.0402 0.01624,0.0601 0.0032,0.0199 0.0054,0.0398 0.0064,0.06 0.001,0.0201 9.58e-4,0.0404 -1.47e-4,0.0605 -0.0012,0.0202 -0.0077,0.0366 -0.01247,0.0564 m -0.314434,0.89449 c -0.0036,-0.0148 -0.0066,-0.0297 -0.009,-0.0446 -0.0031,-0.0198 -0.0051,-0.0397 -0.006,-0.0597 -8.95e-4,-0.02 -6.92e-4,-0.0399 6.48e-4,-0.06 0.0013,-0.02 0.0038,-0.04 0.0072,-0.0598 0.0035,-0.0199 0.02053,0.009 0.02447,-0.0104 0.004,-0.0197 0.0091,-0.0394 0.01522,-0.0588 0.0063,-0.0194 0.02601,-0.005 0.033,-0.0246 0.007,-0.0192 0.01493,-0.038 0.02405,-0.0565 l 0.23416,-0.51772 7.32e-4,1.4e-4 c 0.0098,0.0142 0.02032,0.0279 0.03143,0.0411 0.01333,0.0157 0.02508,0.0256 0.03894,0.041 5e-6,2e-5 1.4e-5,2e-5 2.1e-5,3e-5 0.01389,0.0153 0.02867,0.0299 0.04416,0.0438 0.01559,0.0138 0.03189,0.027 0.04896,0.0393 0.01717,0.0121 0.03182,0.0234 0.04933,0.0353 0.01736,0.0122 0.0356,0.0231 0.05438,0.0332 1.3e-5,0 2.3e-5,0 3.4e-5,-1e-5 0.01872,0.0103 0.0386,0.0226 0.05805,0.0316 0.01654,0.008 0.03289,0.0157 0.05001,0.0222 0.007,0.016 0.0131,0.0324 0.0185,0.0489 0.0061,0.0191 0.01137,0.0438 0.014,0.0636 0.0026,0.0199 0.0042,0.0398 0.0045,0.0599 4.15e-4,0.0201 -3.8e-4,0.0441 -0.0039,0.064 -0.0035,0.0199 -0.0081,0.0395 -0.01373,0.0589 -0.0057,0.0194 -0.01245,0.0386 -0.02014,0.0575 -0.0078,0.0188 -0.01662,0.0374 -0.02638,0.0555 -0.0098,0.0182 -0.02066,0.0358 -0.03235,0.0529 m -0.545585,0.89397 c -0.0014,-0.0151 -0.0024,-0.0302 -0.0025,-0.0454 -2.58e-4,-0.02 5.92e-4,-0.04 0.0026,-0.06 0.0021,-0.02 0.005,-0.0398 0.0092,-0.0595 0.0042,-0.0196 0.0094,-0.0392 0.01573,-0.0585 0.0063,-0.0193 0.01371,-0.0382 0.02208,-0.0569 0.0084,-0.0186 0.01815,-0.0317 0.02845,-0.0495 0.01028,-0.0179 0.02151,-0.0353 0.03365,-0.0521 0.01218,-0.0169 0.02519,-0.0332 0.03917,-0.0489 l 0.405103,-0.45807 6.32e-4,3.6e-4 c 0.004,0.0164 0.0058,0.0263 0.01,0.0427 0.0051,0.0194 0.01137,0.0386 0.01867,0.0573 l 2e-6,5e-5 c 0.0073,0.0187 0.01555,0.0372 0.02485,0.0553 0.0093,0.0181 0.01969,0.0356 0.03099,0.0526 0.01126,0.0171 0.02401,0.0324 0.03633,0.0489 0.01238,0.0164 0.02558,0.0324 0.03964,0.0477 1.1e-5,0 2.4e-5,0 3.7e-5,-1e-5 0.0141,0.0153 0.02907,0.0299 0.04483,0.0438 0.01353,0.0115 0.02742,0.0229 0.04191,0.0335 0.0022,0.0171 0.0034,0.0345 0.004,0.0517 4.15e-4,0.02 -1.9e-4,0.04 -0.0021,0.0601 -0.0018,0.02 -0.0048,0.0405 -0.009,0.0602 -0.0042,0.0197 -0.0094,0.0392 -0.01573,0.0585 -0.0063,0.0193 -0.01372,0.0382 -0.02205,0.0568 -0.0084,0.0186 -0.01783,0.0368 -0.0283,0.0546 -0.01045,0.0178 -0.02183,0.0351 -0.03411,0.0518 -0.01238,0.0168 -0.02553,0.033 -0.03962,0.0486 m -0.524039,0.96299 c -0.0029,-0.015 -0.0051,-0.0299 -0.0067,-0.045 -0.0021,-0.0199 -0.0031,-0.0399 -0.0029,-0.06 1.35e-4,-0.02 0.0014,-0.0401 0.0037,-0.06 0.0023,-0.02 0.0011,-0.0705 0.0066,-0.09 0.0056,-0.0195 0.01221,-0.0386 0.01977,-0.0576 0.0076,-0.0188 0.01632,-0.0374 0.02599,-0.0555 0.0097,-0.0181 0.02035,-0.0358 0.03202,-0.053 0.01159,-0.0172 0.02413,-0.0338 0.03761,-0.0499 l 0.414972,-0.48613 5.78e-4,4.3e-4 c 0.0018,0.0168 0.0041,0.0335 0.0073,0.0501 0.004,0.0197 0.0091,0.0391 0.01525,0.0583 3e-6,1e-5 3e-6,3e-5 3e-6,4e-5 0.0061,0.0192 0.01334,0.038 0.0216,0.0565 0.0083,0.0184 0.01755,0.0366 0.02786,0.0542 0.01026,0.0177 0.02152,0.0348 0.03368,0.0514 0.01218,0.0166 0.02538,0.0324 0.03993,0.0474 1.3e-5,-10e-6 2.3e-5,-10e-6 3.4e-5,-10e-6 0.01453,0.015 0.03001,0.0291 0.04622,0.0425 0.01399,0.0109 0.02814,0.0221 0.04295,0.0323 0.0028,0.0171 0.0046,0.0343 0.0056,0.0516 0.0011,0.02 0.001,0.04 -1.77e-4,0.0601 -0.0011,0.02 -0.0034,0.0399 -0.0067,0.0598 -0.0034,0.0198 -0.0079,0.0395 -0.01334,0.0589 -0.0056,0.0195 -0.01093,0.0373 -0.01775,0.0564 -0.0067,0.0193 -0.01443,0.038 -0.02318,0.0566 -0.0088,0.0185 -0.01856,0.0366 -0.02928,0.0543 -0.01072,0.0176 -0.0224,0.0349 -0.03505,0.0515 m -0.401951,1.01621 c -0.0048,-0.0145 -0.0089,-0.0291 -0.0124,-0.0439 -0.0046,-0.0195 -0.0081,-0.0392 -0.01057,-0.0591 -0.0024,-0.0198 -0.0038,-0.0398 -0.004,-0.0599 -2.58e-4,-0.02 6.9e-4,-0.0402 0.0026,-0.0601 0.0021,-0.02 -0.0058,-0.0779 -3.35e-4,-0.0974 0.0056,-0.0195 0.01207,-0.0388 0.01961,-0.0576 0.0076,-0.0189 0.01627,-0.0376 0.02593,-0.0558 0.0097,-0.0182 0.02023,-0.0359 0.03184,-0.0532 l 0.356732,-0.52377 6.23e-4,3.8e-4 c 0.0032,0.0165 0.0072,0.033 0.01191,0.0492 0.0058,0.0192 0.01269,0.0381 0.02055,0.0568 10e-7,2e-5 4e-6,3e-5 7e-6,3e-5 0.0079,0.0186 0.01681,0.0368 0.02671,0.0546 0.0099,0.0178 0.02307,0.0374 0.03592,0.0536 0.01286,0.0161 0.0266,0.0316 0.04119,0.0465 0.01452,0.015 0.03002,0.029 0.04618,0.0424 1.2e-5,0 2.7e-5,-2e-5 3.3e-5,-1e-5 0.01595,0.0139 0.03314,0.0261 0.05076,0.0379 0.0151,0.01 0.03039,0.0195 0.04637,0.0281 0.0046,0.0168 0.0084,0.0336 0.01135,0.0508 0.0033,0.0198 0.0055,0.0397 0.0065,0.0598 0.0011,0.02 0.0011,0.04 -2e-5,0.0601 -0.0011,0.02 -0.0022,0.0365 -0.0042,0.0564 -0.0021,0.02 -0.005,0.0399 -0.0093,0.0597 -0.0042,0.0197 -0.0094,0.0393 -0.01575,0.0587 -0.0064,0.0194 -0.01374,0.0383 -0.02216,0.0571 -0.0084,0.0187 -0.01782,0.0369 -0.02824,0.0549 m -0.2715,1.05776 c -0.0067,-0.0138 -0.01275,-0.0279 -0.01821,-0.0422 -0.0072,-0.0188 -0.0134,-0.0379 -0.01844,-0.0575 -0.0051,-0.0194 -0.02599,-0.078 -0.02756,-0.098 -0.0016,-0.02 -0.0021,-0.04 -0.0015,-0.0601 6.25e-4,-0.0201 0.0024,-0.0402 0.0052,-0.0601 0.0029,-0.02 0.0068,-0.0397 0.01173,-0.0595 0.005,-0.0197 0.01114,-0.039 0.01823,-0.0583 0.0071,-0.0191 0.01521,-0.0379 0.02441,-0.0564 l 0.285947,-0.56146 6.55e-4,3.1e-4 c 0.0053,0.0161 0.01134,0.0319 0.01812,0.0475 0.0082,0.0184 0.01747,0.0365 0.0277,0.0541 2e-6,1e-5 7e-6,2e-5 1e-5,3e-5 0.01021,0.0176 0.02139,0.0348 0.03351,0.0513 0.01216,0.0165 0.02668,0.0353 0.04168,0.0497 0.01503,0.0143 0.03069,0.0283 0.0472,0.0413 0.01667,0.0126 0.0337,0.0253 0.05159,0.0368 l 3.6e-5,-2e-5 c 0.01786,0.0115 0.03628,0.0224 0.05554,0.0317 0.01653,0.008 0.03287,0.0157 0.04971,0.0228 0.0068,0.0161 0.01287,0.0324 0.01817,0.049 0.0059,0.0192 0.01082,0.0387 0.01457,0.0584 0.0038,0.0197 0.0065,0.0396 0.0081,0.0595 0.0015,0.02 0.002,0.04 0.0014,0.0601 -6.25e-4,0.0201 -0.0024,0.0401 -0.0052,0.0601 -0.0029,0.02 -0.0052,0.0395 -0.0088,0.0593 -0.0036,0.0199 -0.0084,0.0396 -0.01432,0.0591 -0.0059,0.0194 -0.0127,0.0387 -0.02062,0.0576 m -0.218183,1.02526 c -0.0066,-0.0138 -0.01275,-0.0279 -0.01822,-0.0421 -0.0072,-0.0188 -0.01341,-0.0379 -0.01851,-0.0574 -0.0051,-0.0194 -0.0091,-0.0391 -0.01202,-0.0589 -0.0029,-0.0199 -0.0048,-0.0398 -0.0055,-0.0599 -7.29e-4,-0.0201 -3.5e-4,-0.0401 0.0012,-0.0603 0.0014,-0.0201 0.0041,-0.0401 0.0077,-0.0599 0.0036,-0.0199 0.0084,-0.0397 0.01432,-0.0591 0.0059,-0.0195 0.0127,-0.0387 0.02062,-0.0576 l 0.237464,-0.56644 6.91e-4,2.4e-4 c 0.0074,0.0154 0.01558,0.0303 0.02439,0.0451 0.01066,0.0174 0.0223,0.0341 0.0348,0.0504 7e-6,1e-5 1.3e-5,2e-5 1.6e-5,4e-5 0.01251,0.0163 0.02594,0.0319 0.04023,0.0469 0.01427,0.0151 0.02943,0.0293 0.04536,0.0428 0.01574,0.0139 0.03257,0.0264 0.04989,0.0385 0.01733,0.0121 0.03534,0.0234 0.054,0.0337 1.3e-5,-2e-5 2.1e-5,-1e-5 3.3e-5,-2e-5 0.01868,0.0103 0.03782,0.02 0.05768,0.0283 0.01662,0.008 0.03389,0.0137 0.0513,0.0195 0.0079,0.0157 0.01501,0.0317 0.02143,0.0478 0.0072,0.0188 0.0134,0.038 0.01851,0.0574 0.0051,0.0194 0.0091,0.0391 0.01207,0.0589 0.0029,0.0199 0.0047,0.0398 0.0055,0.0599 7.39e-4,0.02 3.5e-4,0.0401 -0.0011,0.0602 -0.0014,0.0201 -0.0041,0.0401 -0.0077,0.0599 -0.0036,0.0199 -0.0084,0.0396 -0.01432,0.0592 -0.0059,0.0194 -0.01269,0.0387 -0.02062,0.0576 m -1.501644,-5.0714 c 0.0068,0.019 0.01297,0.0402 0.01624,0.0601 0.0033,0.0199 0.0054,0.0399 0.0065,0.06 l -2.6e-5,3e-5 c 0.0011,0.02 9.57e-4,0.0404 -1.48e-4,0.0605 -0.0011,0.017 -0.0068,0.0306 -0.01071,0.0472 m 0.970952,0.61574 -5.1e-4,-3.9e-4 -0.586083,-0.31552 -3.5e-4,6.4e-4 c 0.0067,0.0157 0.01278,0.0315 0.01805,0.0475 0.0061,0.0192 0.01136,0.0438 0.01402,0.0636 l 7e-6,4e-5 c 0.0026,0.0198 0.0042,0.0398 0.0045,0.0599 4.15e-4,0.02 -3.89e-4,0.0442 -0.0039,0.064 -0.0035,0.0199 -0.0081,0.0395 -0.01373,0.0589 -0.0056,0.0195 -0.01237,0.0386 -0.02014,0.0575 l -3.5e-5,2e-5 c -0.0078,0.0188 -0.01662,0.0374 -0.02638,0.0555 -0.0085,0.0152 -0.01755,0.0304 -0.0273,0.0448 m 0.765603,0.77293 -4.6e-4,-4.3e-4 -0.513747,-0.37616 -5.4e-4,5.9e-4 c 0.0022,0.0168 0.0034,0.0335 0.0039,0.0503 4.15e-4,0.0201 -2.69e-4,0.04 -0.002,0.06 l 4e-6,3e-5 c -0.0018,0.02 -0.0047,0.0404 -0.0089,0.0601 -0.0042,0.0197 -0.0094,0.0393 -0.01581,0.0585 -0.0063,0.0193 -0.01372,0.0383 -0.02205,0.0568 -0.0084,0.0187 -0.01783,0.0368 -0.02823,0.0545 l -3.5e-5,1e-5 c -0.01045,0.0178 -0.02183,0.0351 -0.03411,0.0518 -0.01055,0.0142 -0.02173,0.0279 -0.03356,0.0412 m 0.770279,0.73951 -4.97e-4,-4.1e-4 -0.532703,-0.33192 -5.19e-4,6e-4 c 0.0026,0.0166 0.0044,0.0335 0.0055,0.0502 0.0011,0.02 0.001,0.04 -1.68e-4,0.06 l 8e-6,3e-5 c -0.0011,0.02 -0.0034,0.04 -0.0067,0.0597 -0.0034,0.0198 -0.0079,0.0395 -0.01342,0.0589 -0.0056,0.0195 -0.01093,0.0373 -0.01775,0.0564 -0.0067,0.0193 -0.01435,0.038 -0.02318,0.0566 h -3.4e-5 c -0.0088,0.0185 -0.01853,0.0367 -0.02932,0.0543 -0.0092,0.0149 -0.01909,0.0294 -0.02969,0.0436 m 0.855561,0.65362 -5.26e-4,-3.4e-4 -0.57184,-0.26994 -4.46e-4,6.2e-4 c 0.0045,0.0163 0.0081,0.0328 0.01109,0.0494 0.0033,0.0198 0.0055,0.0396 0.0066,0.0595 l 7e-6,4e-5 c 0.0011,0.0199 0.0011,0.0401 -2.1e-5,0.0601 -0.0011,0.02 -0.0022,0.0365 -0.0042,0.0564 -0.0021,0.02 -0.0051,0.0399 -0.0093,0.0597 -0.0041,0.0198 -0.0094,0.0393 -0.01575,0.0587 l -3.6e-5,10e-6 c -0.0063,0.0193 -0.01377,0.0384 -0.02216,0.0571 -0.0073,0.0157 -0.01519,0.0313 -0.02396,0.0465 m 0.928335,0.5538 -5.85e-4,-2.8e-4 -0.597202,-0.2047 -3.56e-4,6.6e-4 c 0.0066,0.0157 0.01252,0.0316 0.01767,0.0477 0.006,0.0192 0.01078,0.0387 0.01458,0.0583 l 1.1e-5,4e-5 c 0.0038,0.0196 0.0065,0.0396 0.0081,0.0595 0.0015,0.02 0.002,0.04 0.0014,0.0602 -6.24e-4,0.0201 -0.0024,0.0401 -0.0052,0.0601 -0.0028,0.0201 -0.0052,0.0394 -0.0088,0.0593 l -3.1e-5,1e-5 c -0.0037,0.0199 -0.0084,0.0397 -0.01432,0.0591 -0.005,0.0165 -0.01087,0.0329 -0.01745,0.0489 m 0.982832,0.52174 -5.84e-4,-2.8e-4 -0.617509,-0.20256 -3.13e-4,6.8e-4 c 0.0077,0.0153 0.01461,0.0308 0.02084,0.0466 0.0073,0.0187 0.01337,0.0379 0.01846,0.0574 l 1.9e-5,2e-5 c 0.0051,0.0194 0.0091,0.0391 0.01208,0.0589 0.0029,0.0199 0.0047,0.0399 0.0054,0.0599 7.29e-4,0.0201 3.49e-4,0.0401 -0.0011,0.0602 -0.0014,0.0201 -0.004,0.0401 -0.0077,0.06 l -3e-5,1e-5 c -0.0037,0.0199 -0.0084,0.0397 -0.01432,0.0591 -0.005,0.0165 -0.01087,0.0329 -0.01745,0.0489"
       inkscape:export-filename="C:\Users\nailu\Documents\Drawings\sketches\dist\SkyKid.png"
       inkscape:export-xdpi="590.92358"
       inkscape:export-ydpi="590.92358" />
    <path
       style="opacity:1;fill:#ffffff;fill-opacity:1;stroke:#000000;stroke-width:0.26499999;stroke-linecap:round;stroke-linejoin:round;stroke-miterlimit:4;stroke-dasharray:none;stroke-dashoffset:0;stroke-opacity:1"
       d="m 70.733512,153.73272 c 0.28085,0.44254 -0.41215,1.00741 -0.921808,1.1199 -0.509656,0.11249 -1.36252,-0.15937 -1.279723,-0.65442 0.0828,-0.49508 0.329997,-1.32656 0.839655,-1.43905 0.509657,-0.11249 1.0756,0.52248 1.361876,0.97357 z"
       id="path2183-3-0"
       inkscape:connector-curvature="0"
       sodipodi:nodetypes="sszss"
       inkscape:export-filename="C:\Users\nailu\Documents\Drawings\sketches\dist\SkyKid.png"
       inkscape:export-xdpi="590.92358"
       inkscape:export-ydpi="590.92358" />
    <path
       style="opacity:1;fill:#47fffd;fill-opacity:1;stroke:#000000;stroke-width:0.26499999;stroke-linecap:round;stroke-linejoin:round;stroke-miterlimit:4;stroke-dasharray:none;stroke-dashoffset:0;stroke-opacity:1"
       d="m 69.882608,152.31664 0.179987,0.59183 c -0.06423,-0.18499 -1.009001,-0.0347 -1.347222,0.4019 l -0.211896,-0.55349 c 0.03351,-0.48363 1.061401,-0.76105 1.379085,-0.44041 z"
       id="rect2170-7-5"
       inkscape:connector-curvature="0"
       sodipodi:nodetypes="cccccc"
       inkscape:export-filename="C:\Users\nailu\Documents\Drawings\sketches\dist\SkyKid.png"
       inkscape:export-xdpi="590.92358"
       inkscape:export-ydpi="590.92358" />
  </g>
</svg>
