<svg width="949" height="953" xmlns="http://www.w3.org/2000/svg" xmlns:xlink="http://www.w3.org/1999/xlink" xml:space="preserve" overflow="hidden"><defs><clipPath id="clip0"><rect x="725" y="231" width="949" height="953"/></clipPath></defs><g clip-path="url(#clip0)" transform="translate(-725 -231)"><rect x="725" y="231" width="949" height="953" fill="#FFFFFF"/><path d="M1400.6 867.644 1186.8 1081.45 803.772 698.416 872.882 629.307" stroke="#000000" stroke-width="5.72917" stroke-linejoin="round" stroke-miterlimit="10" fill="#BFE2A8" fill-rule="evenodd"/><path d="M872.882 629.307 1186.74 315.452 1569.77 698.482 1400.6 867.644" stroke="#000000" stroke-width="5.72917" stroke-linejoin="round" stroke-miterlimit="10" fill="none" fill-rule="evenodd"/><path d="M873.5 629.5 1401.22 867.838" stroke="#000000" stroke-width="4.58333" stroke-linecap="square" stroke-linejoin="round" stroke-miterlimit="10" stroke-dasharray="13.75 4.58333" fill="none" fill-rule="evenodd"/><text font-family="LM Roman 10,LM Roman 10_MSFontService,sans-serif" font-weight="400" font-size="55" transform="matrix(1 0 0 1 1228.14 1111)">1</text><path d="M1175 1081.5C1175 1076.25 1179.25 1072 1184.5 1072 1189.75 1072 1194 1076.25 1194 1081.5 1194 1086.75 1189.75 1091 1184.5 1091 1179.25 1091 1175 1086.75 1175 1081.5Z" stroke="#000000" stroke-width="5.72917" stroke-linejoin="round" stroke-miterlimit="10" fill="#FFFFFF" fill-rule="evenodd"/><text font-family="LM Roman 10,LM Roman 10_MSFontService,sans-serif" font-weight="400" font-size="55" transform="matrix(1 0 0 1 1233.84 336)">G</text><text font-family="LM Roman 10,LM Roman 10_MSFontService,sans-serif" font-weight="400" font-size="55" transform="matrix(1 0 0 1 1419.37 909)">H</text></g></svg>